G04*
G04 #@! TF.GenerationSoftware,Altium Limited,Altium Designer,22.3.1 (43)*
G04*
G04 Layer_Physical_Order=1*
G04 Layer_Color=255*
%FSLAX44Y44*%
%MOMM*%
G71*
G04*
G04 #@! TF.SameCoordinates,8B6E1C31-416F-48FD-9094-7637D50CEA94*
G04*
G04*
G04 #@! TF.FilePolarity,Positive*
G04*
G01*
G75*
%ADD10C,0.2540*%
G36*
X2030625Y889000D02*
X2006600D01*
Y990600D01*
X1905000D01*
Y1014625D01*
X2030625D01*
Y889000D01*
D02*
G37*
G36*
X127000Y990600D02*
X25400D01*
Y889000D01*
X1375D01*
Y1014625D01*
X127000D01*
Y990600D01*
D02*
G37*
G36*
X947368Y513789D02*
X831250D01*
Y399789D01*
X831154Y397713D01*
X830867Y395654D01*
X830391Y393631D01*
X829731Y391661D01*
X828891Y389759D01*
X827880Y387944D01*
X826705Y386229D01*
X825378Y384630D01*
X823908Y383161D01*
X822309Y381833D01*
X820595Y380659D01*
X818779Y379647D01*
X816878Y378808D01*
X814907Y378148D01*
X812884Y377672D01*
X810826Y377385D01*
X808750Y377287D01*
X694750D01*
Y320287D01*
X694948Y318029D01*
X695534Y315840D01*
X696492Y313787D01*
X697791Y311930D01*
X699394Y310328D01*
X701250Y309028D01*
X703304Y308071D01*
X705493Y307484D01*
X707750Y307287D01*
X1324245D01*
X1326497Y307484D01*
X1328686Y308070D01*
X1330740Y309028D01*
X1332596Y310327D01*
X1334198Y311930D01*
X1335498Y313786D01*
X1336456Y315840D01*
X1337042Y318029D01*
X1337240Y320286D01*
Y377286D01*
X1225241Y377284D01*
X1223165Y377380D01*
X1221106Y377667D01*
X1219083Y378143D01*
X1217113Y378803D01*
X1215212Y379643D01*
X1213396Y380654D01*
X1211682Y381828D01*
X1210083Y383156D01*
X1208613Y384626D01*
X1207285Y386224D01*
X1206111Y387939D01*
X1205100Y389755D01*
X1204260Y391656D01*
X1203600Y393626D01*
X1203124Y395649D01*
X1202837Y397708D01*
X1202741Y399784D01*
Y513784D01*
X1086623D01*
Y703776D01*
X1323859D01*
Y513784D01*
X1207741D01*
Y399784D01*
X1207815Y398169D01*
X1208039Y396568D01*
X1208409Y394995D01*
X1208923Y393462D01*
X1209575Y391983D01*
X1210362Y390571D01*
X1211275Y389238D01*
X1212308Y387994D01*
X1213451Y386851D01*
X1214695Y385818D01*
X1216028Y384905D01*
X1217440Y384118D01*
X1218919Y383465D01*
X1220452Y382952D01*
X1222025Y382582D01*
X1223626Y382358D01*
X1225240Y382286D01*
X1463240D01*
X1464854Y382361D01*
X1466455Y382584D01*
X1468029Y382954D01*
X1469561Y383468D01*
X1471040Y384121D01*
X1472452Y384907D01*
X1473786Y385821D01*
X1475029Y386853D01*
X1476172Y387996D01*
X1477205Y389240D01*
X1478118Y390574D01*
X1478905Y391986D01*
X1479558Y393464D01*
X1480072Y394997D01*
X1480442Y396571D01*
X1480665Y398171D01*
X1480740Y399786D01*
Y513786D01*
X1364622D01*
Y703778D01*
X1601858D01*
Y513786D01*
X1485740D01*
Y399786D01*
X1485644Y397710D01*
X1485357Y395652D01*
X1484881Y393629D01*
X1484220Y391658D01*
X1483381Y389757D01*
X1482370Y387941D01*
X1481195Y386227D01*
X1479867Y384628D01*
X1478398Y383158D01*
X1476799Y381831D01*
X1475084Y380656D01*
X1473269Y379645D01*
X1471368Y378806D01*
X1469397Y378145D01*
X1467374Y377669D01*
X1465316Y377382D01*
X1463240Y377286D01*
X1351240D01*
Y320286D01*
X1351137Y317933D01*
X1350829Y315598D01*
X1350320Y313298D01*
X1349611Y311052D01*
X1348710Y308875D01*
X1347622Y306786D01*
X1346357Y304799D01*
X1344923Y302931D01*
X1343332Y301194D01*
X1341595Y299603D01*
X1339726Y298169D01*
X1337740Y296903D01*
X1335650Y295816D01*
X1333474Y294914D01*
X1331228Y294206D01*
X1328928Y293696D01*
X1326593Y293389D01*
X1324250Y293287D01*
X1039250D01*
Y179287D01*
X1041750D01*
X1060869Y184410D01*
X1061955Y183751D01*
X1062330Y182061D01*
X1062676Y179434D01*
X1062791Y176787D01*
X1062676Y174139D01*
X1062330Y171513D01*
X1061955Y169822D01*
X1060869Y169164D01*
X1041750Y174287D01*
X1034550D01*
Y60287D01*
X1033481D01*
X1034236Y59265D01*
X1016664Y2159D01*
X1015336D01*
X997841Y59016D01*
X998779Y60287D01*
X997450D01*
Y174287D01*
X990250D01*
X971131Y169164D01*
X970045Y169822D01*
X969670Y171513D01*
X969324Y174139D01*
X969209Y176787D01*
X969324Y179434D01*
X969670Y182061D01*
X970045Y183751D01*
X971131Y184410D01*
X990250Y179287D01*
X992750D01*
Y293287D01*
X707750D01*
X705397Y293389D01*
X703062Y293697D01*
X700762Y294207D01*
X698515Y294915D01*
X696339Y295816D01*
X694250Y296904D01*
X692263Y298169D01*
X690395Y299603D01*
X688658Y301195D01*
X687067Y302931D01*
X685633Y304800D01*
X684367Y306787D01*
X683280Y308876D01*
X682378Y311052D01*
X681670Y313298D01*
X681160Y315598D01*
X680853Y317933D01*
X680750Y320287D01*
Y377287D01*
X566750D01*
X564674Y377383D01*
X562616Y377670D01*
X560593Y378145D01*
X558622Y378806D01*
X556721Y379645D01*
X554905Y380657D01*
X553191Y381831D01*
X551592Y383159D01*
X550122Y384628D01*
X548795Y386227D01*
X547620Y387942D01*
X546609Y389757D01*
X545769Y391659D01*
X545109Y393629D01*
X544633Y395652D01*
X544346Y397710D01*
X544250Y399787D01*
Y513787D01*
X428132D01*
Y703779D01*
X665368D01*
Y513787D01*
X549250D01*
Y399787D01*
X549325Y398172D01*
X549548Y396571D01*
X549918Y394997D01*
X550432Y393465D01*
X551085Y391986D01*
X551871Y390574D01*
X552785Y389240D01*
X553817Y387997D01*
X554960Y386854D01*
X556204Y385821D01*
X557537Y384908D01*
X558950Y384121D01*
X560428Y383468D01*
X561961Y382955D01*
X563534Y382584D01*
X565135Y382361D01*
X566750Y382287D01*
X808750Y382289D01*
X810365Y382363D01*
X811966Y382587D01*
X813539Y382957D01*
X815072Y383470D01*
X816550Y384123D01*
X817963Y384910D01*
X819296Y385823D01*
X820540Y386856D01*
X821683Y387999D01*
X822715Y389243D01*
X823629Y390576D01*
X824415Y391988D01*
X825068Y393467D01*
X825582Y395000D01*
X825952Y396573D01*
X826175Y398174D01*
X826250Y399789D01*
Y513789D01*
X710132D01*
Y703781D01*
X947368D01*
Y513789D01*
D02*
G37*
G36*
X2030625Y1375D02*
X1905000D01*
Y25400D01*
X2006600D01*
Y127000D01*
X2030625D01*
Y1375D01*
D02*
G37*
G36*
X25400Y25400D02*
X127000D01*
Y1375D01*
X1375D01*
Y127000D01*
X25400D01*
Y25400D01*
D02*
G37*
D10*
X0Y0D02*
X2032000D01*
X0Y1016000D02*
X2032000D01*
Y0D02*
Y1016000D01*
X0Y0D02*
Y1016000D01*
M02*
