G04*
G04 #@! TF.GenerationSoftware,Altium Limited,Altium Designer,22.3.1 (43)*
G04*
G04 Layer_Physical_Order=1*
G04 Layer_Color=255*
%FSLAX44Y44*%
%MOMM*%
G71*
G04*
G04 #@! TF.SameCoordinates,2057BE5D-ADC3-43EC-8317-92C5632E5E39*
G04*
G04*
G04 #@! TF.FilePolarity,Positive*
G04*
G01*
G75*
%ADD10C,0.2540*%
G36*
X2030625Y889000D02*
X1968500D01*
Y952500D01*
X1905000D01*
Y1014625D01*
X2030625D01*
Y889000D01*
D02*
G37*
G36*
X127000Y952500D02*
X63500D01*
Y889000D01*
X1375D01*
Y1014625D01*
X127000D01*
Y952500D01*
D02*
G37*
G36*
X947368Y491602D02*
X831250D01*
Y377602D01*
X831154Y375526D01*
X830867Y373468D01*
X830391Y371445D01*
X829731Y369474D01*
X828891Y367573D01*
X827880Y365757D01*
X826705Y364043D01*
X825378Y362444D01*
X823908Y360974D01*
X822309Y359647D01*
X820595Y358472D01*
X818779Y357461D01*
X816878Y356621D01*
X814907Y355961D01*
X812884Y355485D01*
X810826Y355198D01*
X808750Y355100D01*
X694750D01*
Y298100D01*
X694948Y295843D01*
X695534Y293654D01*
X696492Y291600D01*
X697791Y289744D01*
X699394Y288141D01*
X701250Y286842D01*
X703304Y285884D01*
X705493Y285298D01*
X707750Y285100D01*
X1324245D01*
X1326497Y285297D01*
X1328686Y285884D01*
X1330740Y286841D01*
X1332596Y288141D01*
X1334198Y289743D01*
X1335498Y291600D01*
X1336456Y293653D01*
X1337042Y295842D01*
X1337240Y298100D01*
Y355099D01*
X1225241Y355097D01*
X1223165Y355193D01*
X1221106Y355480D01*
X1219083Y355956D01*
X1217113Y356617D01*
X1215212Y357456D01*
X1213396Y358467D01*
X1211682Y359642D01*
X1210083Y360970D01*
X1208613Y362439D01*
X1207285Y364038D01*
X1206111Y365752D01*
X1205100Y367568D01*
X1204260Y369469D01*
X1203600Y371440D01*
X1203124Y373463D01*
X1202837Y375521D01*
X1202741Y377597D01*
Y491597D01*
X1086623D01*
Y681589D01*
X1323859D01*
Y491597D01*
X1207741D01*
Y377597D01*
X1207815Y375983D01*
X1208039Y374381D01*
X1208409Y372808D01*
X1208923Y371275D01*
X1209575Y369797D01*
X1210362Y368385D01*
X1211275Y367051D01*
X1212308Y365807D01*
X1213451Y364664D01*
X1214695Y363632D01*
X1216028Y362718D01*
X1217440Y361932D01*
X1218919Y361279D01*
X1220452Y360765D01*
X1222025Y360395D01*
X1223626Y360172D01*
X1225240Y360099D01*
X1463240D01*
X1464854Y360174D01*
X1466455Y360397D01*
X1468029Y360768D01*
X1469561Y361281D01*
X1471040Y361934D01*
X1472452Y362721D01*
X1473786Y363634D01*
X1475029Y364667D01*
X1476172Y365810D01*
X1477205Y367053D01*
X1478118Y368387D01*
X1478905Y369799D01*
X1479558Y371278D01*
X1480072Y372811D01*
X1480442Y374384D01*
X1480665Y375985D01*
X1480740Y377599D01*
Y491600D01*
X1364622D01*
Y681592D01*
X1601858D01*
Y491600D01*
X1485740D01*
Y377599D01*
X1485644Y375523D01*
X1485357Y373465D01*
X1484881Y371442D01*
X1484220Y369472D01*
X1483381Y367570D01*
X1482370Y365755D01*
X1481195Y364040D01*
X1479867Y362441D01*
X1478398Y360972D01*
X1476799Y359644D01*
X1475084Y358470D01*
X1473269Y357458D01*
X1471368Y356619D01*
X1469397Y355959D01*
X1467374Y355483D01*
X1465316Y355196D01*
X1463240Y355099D01*
X1351240D01*
Y298100D01*
X1351137Y295746D01*
X1350829Y293411D01*
X1350320Y291111D01*
X1349611Y288865D01*
X1348710Y286689D01*
X1347622Y284599D01*
X1346357Y282613D01*
X1344923Y280744D01*
X1343332Y279008D01*
X1341595Y277416D01*
X1339726Y275982D01*
X1337740Y274717D01*
X1335650Y273629D01*
X1333474Y272728D01*
X1331228Y272020D01*
X1328928Y271510D01*
X1326593Y271202D01*
X1324250Y271100D01*
X1039250D01*
Y157100D01*
X1041750D01*
X1060869Y162223D01*
X1061955Y161564D01*
X1062330Y159874D01*
X1062676Y157247D01*
X1062791Y154600D01*
X1062676Y151953D01*
X1062330Y149326D01*
X1061955Y147636D01*
X1060869Y146977D01*
X1041750Y152100D01*
X1034550D01*
Y38100D01*
X1033352D01*
X1034026Y37023D01*
X1016669Y1375D01*
X1015331D01*
X997974Y37023D01*
X998648Y38100D01*
X997450D01*
Y152100D01*
X990250D01*
X971131Y146977D01*
X970045Y147636D01*
X969670Y149326D01*
X969324Y151953D01*
X969209Y154600D01*
X969324Y157247D01*
X969670Y159874D01*
X970045Y161564D01*
X971131Y162223D01*
X990250Y157100D01*
X992750D01*
Y271100D01*
X707750D01*
X705397Y271203D01*
X703062Y271510D01*
X700762Y272020D01*
X698515Y272728D01*
X696339Y273630D01*
X694250Y274717D01*
X692263Y275983D01*
X690395Y277417D01*
X688658Y279008D01*
X687067Y280745D01*
X685633Y282613D01*
X684367Y284600D01*
X683280Y286689D01*
X682378Y288866D01*
X681670Y291112D01*
X681160Y293412D01*
X680853Y295747D01*
X680750Y298100D01*
Y355100D01*
X566750D01*
X564674Y355196D01*
X562616Y355483D01*
X560593Y355959D01*
X558622Y356619D01*
X556721Y357459D01*
X554905Y358470D01*
X553191Y359645D01*
X551592Y360972D01*
X550122Y362442D01*
X548795Y364041D01*
X547620Y365755D01*
X546609Y367571D01*
X545769Y369472D01*
X545109Y371443D01*
X544633Y373466D01*
X544346Y375524D01*
X544250Y377600D01*
Y491600D01*
X428132D01*
Y681592D01*
X665368D01*
Y491600D01*
X549250D01*
Y377600D01*
X549325Y375985D01*
X549548Y374384D01*
X549918Y372811D01*
X550432Y371278D01*
X551085Y369800D01*
X551871Y368387D01*
X552785Y367054D01*
X553817Y365810D01*
X554960Y364667D01*
X556204Y363635D01*
X557537Y362721D01*
X558950Y361935D01*
X560428Y361282D01*
X561961Y360768D01*
X563534Y360398D01*
X565135Y360175D01*
X566750Y360100D01*
X808750Y360102D01*
X810365Y360177D01*
X811966Y360400D01*
X813539Y360770D01*
X815072Y361284D01*
X816550Y361937D01*
X817963Y362723D01*
X819296Y363637D01*
X820540Y364669D01*
X821683Y365812D01*
X822715Y367056D01*
X823629Y368390D01*
X824415Y369802D01*
X825068Y371280D01*
X825582Y372813D01*
X825952Y374386D01*
X826175Y375987D01*
X826250Y377602D01*
Y491602D01*
X710132D01*
Y681594D01*
X947368D01*
Y491602D01*
D02*
G37*
G36*
X2030625Y1375D02*
X1905000D01*
Y63500D01*
X1968500D01*
Y127000D01*
X2030625D01*
Y1375D01*
D02*
G37*
G36*
X63500Y63500D02*
X127000D01*
Y1375D01*
X1375D01*
Y127000D01*
X63500D01*
Y63500D01*
D02*
G37*
G36*
X179963Y136860D02*
X180315Y136825D01*
X180739Y136790D01*
X181197Y136719D01*
X181691Y136649D01*
X182783Y136402D01*
X183911Y136049D01*
X184476Y135838D01*
X185005Y135591D01*
X185533Y135274D01*
X186027Y134921D01*
X186062Y134886D01*
X186133Y134815D01*
X186274Y134710D01*
X186450Y134569D01*
X186661Y134357D01*
X186873Y134110D01*
X187155Y133793D01*
X187437Y133476D01*
X187719Y133088D01*
X188001Y132665D01*
X188283Y132206D01*
X188565Y131678D01*
X188812Y131114D01*
X189059Y130514D01*
X189270Y129880D01*
X189447Y129210D01*
X184758Y128681D01*
Y128716D01*
X184722Y128787D01*
X184687Y128892D01*
X184652Y129033D01*
X184476Y129386D01*
X184264Y129844D01*
X183982Y130338D01*
X183629Y130867D01*
X183242Y131360D01*
X182748Y131783D01*
X182678Y131819D01*
X182501Y131960D01*
X182219Y132136D01*
X181796Y132312D01*
X181303Y132524D01*
X180703Y132665D01*
X180033Y132806D01*
X179293Y132841D01*
X179046D01*
X178905Y132806D01*
X178659D01*
X178412Y132771D01*
X177848Y132665D01*
X177143Y132524D01*
X176402Y132277D01*
X175627Y131960D01*
X174851Y131537D01*
X174816D01*
X174780Y131466D01*
X174675Y131396D01*
X174534Y131290D01*
X174146Y131008D01*
X173687Y130585D01*
X173194Y130021D01*
X172665Y129351D01*
X172136Y128540D01*
X171678Y127588D01*
Y127553D01*
X171643Y127482D01*
X171572Y127341D01*
X171502Y127130D01*
X171431Y126883D01*
X171325Y126601D01*
X171220Y126248D01*
X171114Y125861D01*
X171008Y125473D01*
X170902Y125014D01*
X170726Y124027D01*
X170585Y122970D01*
X170550Y121806D01*
Y121771D01*
Y121665D01*
Y121524D01*
X170585Y121313D01*
Y121031D01*
X170620Y120749D01*
X170726Y120079D01*
X170902Y119338D01*
X171114Y118563D01*
X171467Y117858D01*
X171678Y117505D01*
X171925Y117223D01*
X171995Y117152D01*
X172172Y117011D01*
X172524Y116765D01*
X172982Y116518D01*
X173547Y116236D01*
X174252Y115989D01*
X175098Y115848D01*
X176050Y115778D01*
X176332D01*
X176649Y115813D01*
X177072Y115848D01*
X177566Y115883D01*
X178130Y115989D01*
X178729Y116095D01*
X179364Y116236D01*
X179399D01*
X179434Y116271D01*
X179646Y116306D01*
X179963Y116412D01*
X180351Y116553D01*
X180809Y116694D01*
X181303Y116906D01*
X181796Y117117D01*
X182290Y117329D01*
X183065Y120995D01*
X176825D01*
X177671Y125085D01*
X188565D01*
X186379Y114544D01*
X186344D01*
X186309Y114473D01*
X186168Y114438D01*
X186027Y114332D01*
X185851Y114226D01*
X185604Y114121D01*
X185357Y113980D01*
X185075Y113803D01*
X184370Y113486D01*
X183559Y113133D01*
X182642Y112781D01*
X181620Y112428D01*
X181585D01*
X181479Y112393D01*
X181338Y112358D01*
X181126Y112287D01*
X180880Y112217D01*
X180598Y112146D01*
X180245Y112076D01*
X179857Y112005D01*
X179011Y111864D01*
X178024Y111723D01*
X177001Y111617D01*
X175909Y111582D01*
X175486D01*
X175168Y111617D01*
X174780Y111653D01*
X174357Y111688D01*
X173864Y111758D01*
X173335Y111829D01*
X172242Y112076D01*
X171643Y112252D01*
X171079Y112464D01*
X170515Y112675D01*
X169951Y112957D01*
X169457Y113274D01*
X168963Y113627D01*
X168928Y113662D01*
X168822Y113768D01*
X168646Y113909D01*
X168470Y114156D01*
X168188Y114438D01*
X167941Y114790D01*
X167624Y115213D01*
X167342Y115672D01*
X167024Y116236D01*
X166707Y116835D01*
X166460Y117505D01*
X166213Y118210D01*
X166002Y119021D01*
X165826Y119867D01*
X165720Y120784D01*
X165685Y121736D01*
Y121771D01*
Y121912D01*
Y122088D01*
X165720Y122335D01*
Y122688D01*
X165755Y123040D01*
X165790Y123463D01*
X165861Y123957D01*
X165931Y124450D01*
X166037Y124979D01*
X166284Y126143D01*
X166637Y127376D01*
X167095Y128610D01*
X167130Y128646D01*
X167165Y128787D01*
X167271Y128998D01*
X167412Y129245D01*
X167588Y129598D01*
X167800Y129950D01*
X168047Y130373D01*
X168329Y130831D01*
X168646Y131325D01*
X168999Y131819D01*
X169386Y132312D01*
X169845Y132841D01*
X170797Y133828D01*
X171325Y134286D01*
X171889Y134710D01*
X171925Y134745D01*
X172031Y134815D01*
X172207Y134921D01*
X172454Y135062D01*
X172736Y135203D01*
X173123Y135415D01*
X173511Y135591D01*
X174005Y135802D01*
X174498Y136014D01*
X175063Y136190D01*
X175662Y136402D01*
X176332Y136543D01*
X177001Y136684D01*
X177742Y136790D01*
X178482Y136860D01*
X179258Y136895D01*
X179681D01*
X179963Y136860D01*
D02*
G37*
G36*
X455165Y130091D02*
X455588Y130056D01*
X456082Y129985D01*
X456646Y129809D01*
X457210Y129598D01*
X457774Y129280D01*
X458303Y128857D01*
X458373Y128787D01*
X458514Y128646D01*
X458691Y128364D01*
X458937Y127976D01*
X459184Y127482D01*
X459360Y126918D01*
X459501Y126284D01*
X459572Y125543D01*
Y125508D01*
Y125367D01*
X459537Y125120D01*
X459466Y124732D01*
X459396Y124274D01*
X459290Y123639D01*
X459219Y123287D01*
X459149Y122899D01*
X459043Y122476D01*
X458937Y122018D01*
X456787Y112040D01*
X452063D01*
X454213Y122053D01*
Y122088D01*
X454248Y122159D01*
Y122264D01*
X454284Y122406D01*
X454354Y122793D01*
X454460Y123216D01*
X454530Y123675D01*
X454601Y124133D01*
X454672Y124486D01*
X454707Y124627D01*
Y124732D01*
Y124768D01*
Y124873D01*
X454672Y125050D01*
X454636Y125261D01*
X454566Y125473D01*
X454460Y125719D01*
X454319Y125966D01*
X454143Y126178D01*
X454107Y126213D01*
X454037Y126248D01*
X453931Y126354D01*
X453755Y126460D01*
X453543Y126530D01*
X453297Y126636D01*
X452979Y126671D01*
X452627Y126707D01*
X452450D01*
X452239Y126671D01*
X451922Y126601D01*
X451569Y126495D01*
X451181Y126319D01*
X450758Y126107D01*
X450265Y125825D01*
X450194Y125790D01*
X450053Y125649D01*
X449806Y125473D01*
X449524Y125191D01*
X449207Y124873D01*
X448854Y124486D01*
X448537Y124027D01*
X448220Y123498D01*
X448185Y123463D01*
X448114Y123287D01*
X448008Y123005D01*
X447938Y122793D01*
X447867Y122582D01*
X447797Y122300D01*
X447691Y122018D01*
X447585Y121665D01*
X447479Y121277D01*
X447374Y120854D01*
X447233Y120361D01*
X447127Y119832D01*
X446986Y119268D01*
X445470Y112040D01*
X440746D01*
X444448Y129739D01*
X448960D01*
X448502Y127412D01*
X448537D01*
X448572Y127482D01*
X448784Y127659D01*
X449136Y127905D01*
X449560Y128223D01*
X450053Y128540D01*
X450582Y128892D01*
X451146Y129210D01*
X451710Y129492D01*
X451781Y129527D01*
X451957Y129598D01*
X452274Y129703D01*
X452662Y129809D01*
X453120Y129915D01*
X453649Y130021D01*
X454213Y130091D01*
X454813Y130126D01*
X455024D01*
X455165Y130091D01*
D02*
G37*
G36*
X434329D02*
X434752Y130056D01*
X435246Y129985D01*
X435810Y129809D01*
X436374Y129598D01*
X436938Y129280D01*
X437467Y128857D01*
X437537Y128787D01*
X437678Y128646D01*
X437855Y128364D01*
X438102Y127976D01*
X438348Y127482D01*
X438525Y126918D01*
X438666Y126284D01*
X438736Y125543D01*
Y125508D01*
Y125367D01*
X438701Y125120D01*
X438630Y124732D01*
X438560Y124274D01*
X438454Y123639D01*
X438384Y123287D01*
X438313Y122899D01*
X438207Y122476D01*
X438102Y122018D01*
X435951Y112040D01*
X431227D01*
X433377Y122053D01*
Y122088D01*
X433413Y122159D01*
Y122264D01*
X433448Y122406D01*
X433518Y122793D01*
X433624Y123216D01*
X433695Y123675D01*
X433765Y124133D01*
X433836Y124486D01*
X433871Y124627D01*
Y124732D01*
Y124768D01*
Y124873D01*
X433836Y125050D01*
X433800Y125261D01*
X433730Y125473D01*
X433624Y125719D01*
X433483Y125966D01*
X433307Y126178D01*
X433272Y126213D01*
X433201Y126248D01*
X433095Y126354D01*
X432919Y126460D01*
X432707Y126530D01*
X432461Y126636D01*
X432143Y126671D01*
X431791Y126707D01*
X431615D01*
X431403Y126671D01*
X431086Y126601D01*
X430733Y126495D01*
X430345Y126319D01*
X429922Y126107D01*
X429429Y125825D01*
X429358Y125790D01*
X429217Y125649D01*
X428970Y125473D01*
X428688Y125191D01*
X428371Y124873D01*
X428018Y124486D01*
X427701Y124027D01*
X427384Y123498D01*
X427349Y123463D01*
X427278Y123287D01*
X427172Y123005D01*
X427102Y122793D01*
X427031Y122582D01*
X426961Y122300D01*
X426855Y122018D01*
X426749Y121665D01*
X426644Y121277D01*
X426538Y120854D01*
X426397Y120361D01*
X426291Y119832D01*
X426150Y119268D01*
X424634Y112040D01*
X419910D01*
X423612Y129739D01*
X428124D01*
X427666Y127412D01*
X427701D01*
X427737Y127482D01*
X427948Y127659D01*
X428301Y127905D01*
X428724Y128223D01*
X429217Y128540D01*
X429746Y128892D01*
X430310Y129210D01*
X430874Y129492D01*
X430945Y129527D01*
X431121Y129598D01*
X431438Y129703D01*
X431826Y129809D01*
X432284Y129915D01*
X432813Y130021D01*
X433377Y130091D01*
X433977Y130126D01*
X434188D01*
X434329Y130091D01*
D02*
G37*
G36*
X383174D02*
X383597Y130056D01*
X384091Y129985D01*
X384655Y129809D01*
X385219Y129598D01*
X385783Y129280D01*
X386312Y128857D01*
X386382Y128787D01*
X386523Y128646D01*
X386699Y128364D01*
X386946Y127976D01*
X387193Y127482D01*
X387369Y126918D01*
X387510Y126284D01*
X387581Y125543D01*
Y125508D01*
Y125367D01*
X387546Y125120D01*
X387475Y124732D01*
X387405Y124274D01*
X387299Y123639D01*
X387228Y123287D01*
X387158Y122899D01*
X387052Y122476D01*
X386946Y122018D01*
X384796Y112040D01*
X380071D01*
X382222Y122053D01*
Y122088D01*
X382257Y122159D01*
Y122264D01*
X382293Y122406D01*
X382363Y122793D01*
X382469Y123216D01*
X382539Y123675D01*
X382610Y124133D01*
X382680Y124486D01*
X382716Y124627D01*
Y124732D01*
Y124768D01*
Y124873D01*
X382680Y125050D01*
X382645Y125261D01*
X382575Y125473D01*
X382469Y125719D01*
X382328Y125966D01*
X382151Y126178D01*
X382116Y126213D01*
X382046Y126248D01*
X381940Y126354D01*
X381764Y126460D01*
X381552Y126530D01*
X381305Y126636D01*
X380988Y126671D01*
X380636Y126707D01*
X380459D01*
X380248Y126671D01*
X379930Y126601D01*
X379578Y126495D01*
X379190Y126319D01*
X378767Y126107D01*
X378274Y125825D01*
X378203Y125790D01*
X378062Y125649D01*
X377815Y125473D01*
X377533Y125191D01*
X377216Y124873D01*
X376863Y124486D01*
X376546Y124027D01*
X376229Y123498D01*
X376193Y123463D01*
X376123Y123287D01*
X376017Y123005D01*
X375947Y122793D01*
X375876Y122582D01*
X375806Y122300D01*
X375700Y122018D01*
X375594Y121665D01*
X375488Y121277D01*
X375382Y120854D01*
X375242Y120361D01*
X375136Y119832D01*
X374995Y119268D01*
X373479Y112040D01*
X368755D01*
X372456Y129739D01*
X376969D01*
X376511Y127412D01*
X376546D01*
X376581Y127482D01*
X376793Y127659D01*
X377145Y127905D01*
X377568Y128223D01*
X378062Y128540D01*
X378591Y128892D01*
X379155Y129210D01*
X379719Y129492D01*
X379789Y129527D01*
X379966Y129598D01*
X380283Y129703D01*
X380671Y129809D01*
X381129Y129915D01*
X381658Y130021D01*
X382222Y130091D01*
X382821Y130126D01*
X383033D01*
X383174Y130091D01*
D02*
G37*
G36*
X210106Y112040D02*
X205135D01*
X207391Y122934D01*
X197908D01*
X195616Y112040D01*
X190645D01*
X195757Y136437D01*
X200763D01*
X198789Y127024D01*
X208273D01*
X210247Y136437D01*
X215253D01*
X210106Y112040D01*
D02*
G37*
G36*
X306071Y130091D02*
X306318D01*
X306635Y130056D01*
X307340Y129915D01*
X308151Y129739D01*
X308962Y129421D01*
X309808Y129033D01*
X310196Y128751D01*
X310548Y128469D01*
X310583Y128434D01*
X310619Y128399D01*
X310725Y128293D01*
X310830Y128187D01*
X311148Y127800D01*
X311500Y127306D01*
X311888Y126671D01*
X312241Y125931D01*
X312487Y125085D01*
X312593Y124627D01*
X312663Y124133D01*
X308116Y123675D01*
Y123745D01*
X308080Y123921D01*
X308010Y124168D01*
X307939Y124521D01*
X307798Y124873D01*
X307657Y125226D01*
X307446Y125578D01*
X307199Y125861D01*
X307164Y125896D01*
X307058Y125966D01*
X306917Y126107D01*
X306670Y126248D01*
X306388Y126354D01*
X306071Y126495D01*
X305683Y126566D01*
X305260Y126601D01*
X305013D01*
X304766Y126530D01*
X304414Y126460D01*
X304026Y126354D01*
X303603Y126143D01*
X303145Y125896D01*
X302686Y125543D01*
X302651Y125508D01*
X302475Y125367D01*
X302263Y125120D01*
X302017Y124768D01*
X301699Y124345D01*
X301417Y123816D01*
X301100Y123181D01*
X300853Y122441D01*
Y122406D01*
X300818Y122335D01*
X300783Y122229D01*
X300747Y122088D01*
X300641Y121700D01*
X300536Y121207D01*
X300430Y120608D01*
X300324Y119938D01*
X300254Y119268D01*
X300218Y118563D01*
Y118492D01*
Y118316D01*
X300254Y118034D01*
X300324Y117681D01*
X300395Y117294D01*
X300536Y116906D01*
X300712Y116518D01*
X300959Y116165D01*
X300994Y116130D01*
X301100Y116024D01*
X301276Y115883D01*
X301488Y115742D01*
X301770Y115601D01*
X302122Y115460D01*
X302475Y115354D01*
X302898Y115319D01*
X303109D01*
X303321Y115354D01*
X303603Y115425D01*
X303920Y115531D01*
X304308Y115672D01*
X304696Y115848D01*
X305084Y116130D01*
X305119Y116165D01*
X305260Y116306D01*
X305471Y116483D01*
X305718Y116765D01*
X305965Y117117D01*
X306247Y117540D01*
X306529Y118034D01*
X306776Y118633D01*
X311430Y117858D01*
Y117822D01*
X311359Y117717D01*
X311324Y117576D01*
X311218Y117364D01*
X311077Y117082D01*
X310936Y116800D01*
X310583Y116130D01*
X310090Y115354D01*
X309491Y114579D01*
X308821Y113839D01*
X308010Y113169D01*
X307975D01*
X307904Y113098D01*
X307798Y113028D01*
X307622Y112922D01*
X307411Y112816D01*
X307129Y112675D01*
X306846Y112534D01*
X306529Y112393D01*
X305753Y112076D01*
X304872Y111829D01*
X303885Y111653D01*
X303356Y111617D01*
X302792Y111582D01*
X302475D01*
X302228Y111617D01*
X301946Y111653D01*
X301629Y111688D01*
X301241Y111758D01*
X300853Y111829D01*
X300007Y112076D01*
X299549Y112252D01*
X299090Y112428D01*
X298667Y112675D01*
X298244Y112922D01*
X297821Y113239D01*
X297433Y113592D01*
X297398Y113627D01*
X297363Y113697D01*
X297257Y113803D01*
X297116Y113980D01*
X296975Y114156D01*
X296799Y114403D01*
X296622Y114720D01*
X296446Y115037D01*
X296270Y115425D01*
X296094Y115813D01*
X295917Y116271D01*
X295776Y116765D01*
X295635Y117294D01*
X295529Y117893D01*
X295494Y118492D01*
X295459Y119127D01*
Y119162D01*
Y119268D01*
Y119409D01*
X295494Y119620D01*
Y119867D01*
X295529Y120184D01*
X295565Y120502D01*
X295600Y120890D01*
X295741Y121736D01*
X295953Y122652D01*
X296270Y123604D01*
X296658Y124591D01*
Y124627D01*
X296728Y124697D01*
X296799Y124838D01*
X296869Y125014D01*
X297010Y125226D01*
X297151Y125473D01*
X297574Y126072D01*
X298068Y126707D01*
X298667Y127376D01*
X299408Y128046D01*
X300254Y128646D01*
X300289Y128681D01*
X300359Y128716D01*
X300501Y128787D01*
X300677Y128892D01*
X300924Y128998D01*
X301170Y129104D01*
X301488Y129245D01*
X301840Y129386D01*
X302616Y129668D01*
X303497Y129880D01*
X304484Y130056D01*
X305542Y130126D01*
X305859D01*
X306071Y130091D01*
D02*
G37*
G36*
X153028Y131748D02*
X144884D01*
X143791Y127976D01*
X143826D01*
X143897Y128046D01*
X144038Y128082D01*
X144214Y128152D01*
X144672Y128293D01*
X145166Y128434D01*
X145201D01*
X145272Y128469D01*
X145413Y128505D01*
X145624Y128540D01*
X146047Y128575D01*
X146576Y128610D01*
X146858D01*
X147035Y128575D01*
X147281Y128540D01*
X147563Y128505D01*
X148198Y128364D01*
X148903Y128152D01*
X149679Y127800D01*
X150067Y127588D01*
X150454Y127341D01*
X150807Y127059D01*
X151159Y126707D01*
X151195Y126671D01*
X151230Y126636D01*
X151336Y126530D01*
X151441Y126354D01*
X151582Y126178D01*
X151723Y125966D01*
X151900Y125684D01*
X152076Y125367D01*
X152252Y125050D01*
X152429Y124662D01*
X152570Y124239D01*
X152711Y123780D01*
X152922Y122793D01*
X152957Y122229D01*
X152993Y121665D01*
Y121630D01*
Y121559D01*
Y121418D01*
X152957Y121242D01*
Y120995D01*
X152922Y120749D01*
X152887Y120431D01*
X152852Y120079D01*
X152675Y119338D01*
X152464Y118492D01*
X152147Y117576D01*
X151723Y116659D01*
Y116624D01*
X151653Y116553D01*
X151582Y116412D01*
X151477Y116271D01*
X151371Y116060D01*
X151195Y115813D01*
X150807Y115249D01*
X150313Y114649D01*
X149714Y114015D01*
X149009Y113415D01*
X148198Y112887D01*
X148163D01*
X148092Y112816D01*
X147986Y112781D01*
X147810Y112675D01*
X147599Y112569D01*
X147352Y112464D01*
X146788Y112252D01*
X146083Y112005D01*
X145307Y111794D01*
X144461Y111653D01*
X143544Y111582D01*
X143227D01*
X143015Y111617D01*
X142769Y111653D01*
X142451Y111688D01*
X142099Y111758D01*
X141711Y111829D01*
X140900Y112076D01*
X140054Y112428D01*
X139631Y112640D01*
X139208Y112922D01*
X138785Y113204D01*
X138397Y113556D01*
X138362Y113592D01*
X138327Y113662D01*
X138221Y113768D01*
X138080Y113909D01*
X137939Y114121D01*
X137762Y114367D01*
X137586Y114649D01*
X137410Y115002D01*
X137198Y115354D01*
X137022Y115742D01*
X136846Y116201D01*
X136705Y116694D01*
X136564Y117188D01*
X136458Y117752D01*
X136423Y118316D01*
X136388Y118951D01*
X141041Y119374D01*
Y119303D01*
Y119162D01*
X141006Y118986D01*
Y118845D01*
Y118809D01*
Y118774D01*
Y118563D01*
X141041Y118281D01*
X141112Y117893D01*
X141182Y117470D01*
X141323Y117047D01*
X141500Y116659D01*
X141746Y116306D01*
X141782Y116271D01*
X141887Y116165D01*
X142064Y116060D01*
X142275Y115919D01*
X142557Y115742D01*
X142910Y115637D01*
X143298Y115531D01*
X143721Y115496D01*
X143791D01*
X144003Y115531D01*
X144355Y115566D01*
X144743Y115707D01*
X145237Y115883D01*
X145765Y116165D01*
X146294Y116588D01*
X146576Y116835D01*
X146823Y117117D01*
Y117152D01*
X146894Y117188D01*
X146964Y117294D01*
X147035Y117435D01*
X147140Y117576D01*
X147281Y117787D01*
X147528Y118281D01*
X147775Y118915D01*
X148022Y119691D01*
X148163Y120608D01*
X148233Y121630D01*
Y121665D01*
Y121700D01*
Y121912D01*
X148198Y122229D01*
X148127Y122582D01*
X148022Y123005D01*
X147881Y123428D01*
X147704Y123851D01*
X147422Y124204D01*
X147387Y124239D01*
X147281Y124345D01*
X147105Y124486D01*
X146858Y124662D01*
X146576Y124803D01*
X146224Y124944D01*
X145801Y125050D01*
X145342Y125085D01*
X145166D01*
X144990Y125050D01*
X144743Y125014D01*
X144461Y124979D01*
X144179Y124909D01*
X143826Y124768D01*
X143509Y124627D01*
X143474Y124591D01*
X143368Y124556D01*
X143192Y124450D01*
X142980Y124309D01*
X142733Y124133D01*
X142451Y123886D01*
X142169Y123639D01*
X141852Y123322D01*
X137939Y123604D01*
X141641Y136120D01*
X153945D01*
X153028Y131748D01*
D02*
G37*
G36*
X472158Y130091D02*
X472440D01*
X472757Y130056D01*
X473498Y129950D01*
X474344Y129809D01*
X475155Y129562D01*
X475966Y129210D01*
X476318Y128998D01*
X476636Y128751D01*
X476671D01*
X476706Y128681D01*
X476882Y128505D01*
X477164Y128223D01*
X477482Y127800D01*
X477764Y127306D01*
X478046Y126742D01*
X478222Y126107D01*
X478293Y125755D01*
Y125367D01*
Y125332D01*
Y125226D01*
Y125085D01*
X478257Y124873D01*
Y124627D01*
X478222Y124345D01*
X478116Y123675D01*
Y123639D01*
X478081Y123463D01*
X478046Y123357D01*
Y123181D01*
X477975Y123005D01*
X477940Y122758D01*
X477869Y122476D01*
X477799Y122123D01*
X477728Y121736D01*
X477658Y121313D01*
X477552Y120819D01*
X477411Y120255D01*
X477270Y119620D01*
X477129Y118951D01*
Y118915D01*
X477094Y118809D01*
X477058Y118668D01*
X477023Y118457D01*
X476988Y118175D01*
X476917Y117893D01*
X476812Y117223D01*
X476671Y116483D01*
X476565Y115778D01*
X476494Y115108D01*
X476459Y114790D01*
Y114544D01*
Y114508D01*
Y114332D01*
X476494Y114121D01*
Y113803D01*
X476565Y113451D01*
X476636Y113028D01*
X476706Y112534D01*
X476847Y112040D01*
X472229D01*
Y112076D01*
X472193Y112217D01*
X472123Y112393D01*
X472052Y112640D01*
X472017Y112957D01*
X471946Y113274D01*
X471876Y114015D01*
X471841Y113980D01*
X471700Y113839D01*
X471453Y113627D01*
X471171Y113345D01*
X470818Y113063D01*
X470395Y112781D01*
X469937Y112464D01*
X469443Y112217D01*
X469373Y112182D01*
X469197Y112111D01*
X468950Y112005D01*
X468597Y111899D01*
X468174Y111794D01*
X467716Y111688D01*
X467222Y111617D01*
X466693Y111582D01*
X466482D01*
X466341Y111617D01*
X465918Y111653D01*
X465424Y111758D01*
X464860Y111935D01*
X464226Y112182D01*
X463626Y112534D01*
X463062Y112992D01*
X462992Y113063D01*
X462851Y113239D01*
X462604Y113556D01*
X462357Y114015D01*
X462110Y114544D01*
X461864Y115178D01*
X461722Y115919D01*
X461652Y116729D01*
Y116765D01*
Y116835D01*
Y116976D01*
X461687Y117152D01*
Y117364D01*
X461722Y117611D01*
X461864Y118175D01*
X462040Y118845D01*
X462322Y119515D01*
X462710Y120184D01*
X462921Y120502D01*
X463203Y120784D01*
X463238Y120819D01*
X463274Y120854D01*
X463380Y120925D01*
X463521Y121031D01*
X463697Y121136D01*
X463908Y121277D01*
X464190Y121418D01*
X464508Y121595D01*
X464860Y121736D01*
X465283Y121912D01*
X465742Y122053D01*
X466270Y122194D01*
X466834Y122335D01*
X467434Y122441D01*
X468104Y122547D01*
X468844Y122617D01*
X468985D01*
X469161Y122652D01*
X469408D01*
X469655Y122688D01*
X469972Y122723D01*
X470677Y122829D01*
X471453Y122899D01*
X472193Y123040D01*
X472546Y123111D01*
X472863Y123181D01*
X473145Y123252D01*
X473392Y123322D01*
Y123357D01*
X473427Y123498D01*
X473498Y123675D01*
X473568Y123886D01*
X473674Y124415D01*
X473709Y124662D01*
Y124909D01*
Y124944D01*
Y125050D01*
X473674Y125155D01*
X473639Y125332D01*
X473568Y125543D01*
X473427Y125755D01*
X473286Y125966D01*
X473075Y126178D01*
X473039Y126213D01*
X472969Y126248D01*
X472828Y126354D01*
X472616Y126460D01*
X472334Y126530D01*
X472052Y126636D01*
X471665Y126671D01*
X471241Y126707D01*
X471030D01*
X470783Y126671D01*
X470501Y126636D01*
X470184Y126566D01*
X469831Y126495D01*
X469514Y126354D01*
X469197Y126178D01*
X469161Y126143D01*
X469091Y126072D01*
X468950Y125966D01*
X468809Y125790D01*
X468633Y125578D01*
X468456Y125332D01*
X468315Y125050D01*
X468209Y124732D01*
X463556Y125120D01*
Y125155D01*
X463591Y125226D01*
X463626Y125332D01*
X463697Y125508D01*
X463908Y125931D01*
X464190Y126460D01*
X464578Y127024D01*
X465037Y127659D01*
X465636Y128258D01*
X466306Y128787D01*
X466341D01*
X466412Y128857D01*
X466517Y128928D01*
X466658Y128998D01*
X466870Y129104D01*
X467117Y129210D01*
X467399Y129316D01*
X467716Y129457D01*
X468069Y129598D01*
X468492Y129703D01*
X468915Y129809D01*
X469373Y129915D01*
X470431Y130056D01*
X471594Y130126D01*
X471911D01*
X472158Y130091D01*
D02*
G37*
G36*
X365652Y112040D02*
X360893D01*
X360082Y117435D01*
X350422D01*
X347496Y112040D01*
X342348D01*
X356063Y136437D01*
X361739D01*
X365652Y112040D01*
D02*
G37*
G36*
X321865Y127729D02*
X321900D01*
X321936Y127800D01*
X322147Y127941D01*
X322464Y128152D01*
X322852Y128434D01*
X323311Y128751D01*
X323839Y129033D01*
X324368Y129316D01*
X324897Y129562D01*
X324968Y129598D01*
X325144Y129668D01*
X325426Y129739D01*
X325814Y129844D01*
X326272Y129950D01*
X326766Y130056D01*
X327330Y130091D01*
X327929Y130126D01*
X328141D01*
X328282Y130091D01*
X328669Y130056D01*
X329163Y129985D01*
X329727Y129809D01*
X330291Y129598D01*
X330855Y129280D01*
X331349Y128857D01*
X331419Y128787D01*
X331560Y128646D01*
X331737Y128364D01*
X331983Y128011D01*
X332230Y127517D01*
X332406Y126989D01*
X332547Y126354D01*
X332618Y125649D01*
Y125614D01*
Y125437D01*
X332583Y125191D01*
X332547Y124838D01*
X332477Y124380D01*
X332371Y123816D01*
X332265Y123111D01*
X332089Y122335D01*
X329868Y112040D01*
X325144D01*
X327400Y122547D01*
Y122582D01*
Y122617D01*
X327471Y122829D01*
X327506Y123111D01*
X327576Y123463D01*
X327647Y123816D01*
X327718Y124168D01*
X327753Y124486D01*
X327788Y124732D01*
Y124768D01*
Y124873D01*
X327753Y125050D01*
X327718Y125226D01*
X327647Y125473D01*
X327541Y125684D01*
X327400Y125931D01*
X327224Y126143D01*
X327189Y126178D01*
X327118Y126248D01*
X327012Y126319D01*
X326836Y126425D01*
X326625Y126530D01*
X326343Y126636D01*
X326060Y126671D01*
X325708Y126707D01*
X325496D01*
X325250Y126671D01*
X324968Y126601D01*
X324580Y126495D01*
X324192Y126354D01*
X323769Y126143D01*
X323346Y125861D01*
X323275Y125825D01*
X323099Y125649D01*
X322852Y125437D01*
X322535Y125120D01*
X322182Y124732D01*
X321795Y124274D01*
X321442Y123745D01*
X321125Y123181D01*
X321090Y123146D01*
X321054Y123005D01*
X320948Y122723D01*
X320913Y122547D01*
X320843Y122335D01*
X320772Y122088D01*
X320667Y121771D01*
X320596Y121454D01*
X320490Y121066D01*
X320384Y120608D01*
X320279Y120149D01*
X320173Y119620D01*
X320032Y119021D01*
X318551Y112040D01*
X313827D01*
X318939Y136437D01*
X323663D01*
X321865Y127729D01*
D02*
G37*
G36*
X275117Y130091D02*
X275399D01*
X275716Y130056D01*
X276456Y129950D01*
X277303Y129809D01*
X278113Y129562D01*
X278924Y129210D01*
X279277Y128998D01*
X279594Y128751D01*
X279629D01*
X279665Y128681D01*
X279841Y128505D01*
X280123Y128223D01*
X280440Y127800D01*
X280722Y127306D01*
X281004Y126742D01*
X281181Y126107D01*
X281251Y125755D01*
Y125367D01*
Y125332D01*
Y125226D01*
Y125085D01*
X281216Y124873D01*
Y124627D01*
X281181Y124345D01*
X281075Y123675D01*
Y123639D01*
X281040Y123463D01*
X281004Y123357D01*
Y123181D01*
X280934Y123005D01*
X280899Y122758D01*
X280828Y122476D01*
X280758Y122123D01*
X280687Y121736D01*
X280617Y121313D01*
X280511Y120819D01*
X280370Y120255D01*
X280229Y119620D01*
X280088Y118951D01*
Y118915D01*
X280053Y118809D01*
X280017Y118668D01*
X279982Y118457D01*
X279947Y118175D01*
X279876Y117893D01*
X279770Y117223D01*
X279629Y116483D01*
X279524Y115778D01*
X279453Y115108D01*
X279418Y114790D01*
Y114544D01*
Y114508D01*
Y114332D01*
X279453Y114121D01*
Y113803D01*
X279524Y113451D01*
X279594Y113028D01*
X279665Y112534D01*
X279806Y112040D01*
X275187D01*
Y112076D01*
X275152Y112217D01*
X275082Y112393D01*
X275011Y112640D01*
X274976Y112957D01*
X274905Y113274D01*
X274835Y114015D01*
X274799Y113980D01*
X274658Y113839D01*
X274412Y113627D01*
X274130Y113345D01*
X273777Y113063D01*
X273354Y112781D01*
X272896Y112464D01*
X272402Y112217D01*
X272332Y112182D01*
X272155Y112111D01*
X271908Y112005D01*
X271556Y111899D01*
X271133Y111794D01*
X270675Y111688D01*
X270181Y111617D01*
X269652Y111582D01*
X269441D01*
X269300Y111617D01*
X268877Y111653D01*
X268383Y111758D01*
X267819Y111935D01*
X267184Y112182D01*
X266585Y112534D01*
X266021Y112992D01*
X265950Y113063D01*
X265809Y113239D01*
X265563Y113556D01*
X265316Y114015D01*
X265069Y114544D01*
X264822Y115178D01*
X264681Y115919D01*
X264611Y116729D01*
Y116765D01*
Y116835D01*
Y116976D01*
X264646Y117152D01*
Y117364D01*
X264681Y117611D01*
X264822Y118175D01*
X264998Y118845D01*
X265280Y119515D01*
X265668Y120184D01*
X265880Y120502D01*
X266162Y120784D01*
X266197Y120819D01*
X266232Y120854D01*
X266338Y120925D01*
X266479Y121031D01*
X266656Y121136D01*
X266867Y121277D01*
X267149Y121418D01*
X267466Y121595D01*
X267819Y121736D01*
X268242Y121912D01*
X268700Y122053D01*
X269229Y122194D01*
X269793Y122335D01*
X270393Y122441D01*
X271062Y122547D01*
X271803Y122617D01*
X271944D01*
X272120Y122652D01*
X272367D01*
X272614Y122688D01*
X272931Y122723D01*
X273636Y122829D01*
X274412Y122899D01*
X275152Y123040D01*
X275505Y123111D01*
X275822Y123181D01*
X276104Y123252D01*
X276351Y123322D01*
Y123357D01*
X276386Y123498D01*
X276456Y123675D01*
X276527Y123886D01*
X276633Y124415D01*
X276668Y124662D01*
Y124909D01*
Y124944D01*
Y125050D01*
X276633Y125155D01*
X276597Y125332D01*
X276527Y125543D01*
X276386Y125755D01*
X276245Y125966D01*
X276033Y126178D01*
X275998Y126213D01*
X275928Y126248D01*
X275787Y126354D01*
X275575Y126460D01*
X275293Y126530D01*
X275011Y126636D01*
X274623Y126671D01*
X274200Y126707D01*
X273989D01*
X273742Y126671D01*
X273460Y126636D01*
X273143Y126566D01*
X272790Y126495D01*
X272473Y126354D01*
X272155Y126178D01*
X272120Y126143D01*
X272050Y126072D01*
X271908Y125966D01*
X271768Y125790D01*
X271591Y125578D01*
X271415Y125332D01*
X271274Y125050D01*
X271168Y124732D01*
X266514Y125120D01*
Y125155D01*
X266550Y125226D01*
X266585Y125332D01*
X266656Y125508D01*
X266867Y125931D01*
X267149Y126460D01*
X267537Y127024D01*
X267995Y127659D01*
X268594Y128258D01*
X269264Y128787D01*
X269300D01*
X269370Y128857D01*
X269476Y128928D01*
X269617Y128998D01*
X269828Y129104D01*
X270075Y129210D01*
X270357Y129316D01*
X270675Y129457D01*
X271027Y129598D01*
X271450Y129703D01*
X271873Y129809D01*
X272332Y129915D01*
X273389Y130056D01*
X274553Y130126D01*
X274870D01*
X275117Y130091D01*
D02*
G37*
G36*
X257419Y136402D02*
X257665D01*
X258265Y136367D01*
X258935Y136296D01*
X259604Y136155D01*
X260310Y136014D01*
X260909Y135802D01*
X260944D01*
X260979Y135767D01*
X261156Y135697D01*
X261438Y135520D01*
X261790Y135309D01*
X262178Y135027D01*
X262601Y134674D01*
X263024Y134216D01*
X263377Y133722D01*
X263412Y133652D01*
X263518Y133476D01*
X263659Y133158D01*
X263835Y132771D01*
X264011Y132242D01*
X264152Y131678D01*
X264258Y131008D01*
X264293Y130303D01*
Y130267D01*
Y130232D01*
Y130126D01*
Y129985D01*
X264258Y129633D01*
X264188Y129139D01*
X264117Y128610D01*
X263976Y127976D01*
X263800Y127341D01*
X263553Y126671D01*
Y126636D01*
X263518Y126601D01*
X263412Y126389D01*
X263271Y126072D01*
X263060Y125684D01*
X262813Y125226D01*
X262531Y124768D01*
X262178Y124309D01*
X261790Y123886D01*
X261755Y123851D01*
X261614Y123710D01*
X261402Y123534D01*
X261120Y123322D01*
X260803Y123040D01*
X260415Y122793D01*
X260028Y122547D01*
X259569Y122300D01*
X259499Y122264D01*
X259358Y122229D01*
X259076Y122123D01*
X258723Y122018D01*
X258265Y121877D01*
X257701Y121736D01*
X257066Y121595D01*
X256326Y121489D01*
X256255D01*
X256079Y121454D01*
X255762D01*
X255550Y121418D01*
X255021D01*
X254704Y121383D01*
X253964D01*
X253505Y121348D01*
X248675D01*
X246701Y112040D01*
X241730D01*
X246842Y136437D01*
X257172D01*
X257419Y136402D01*
D02*
G37*
G36*
X230907Y126883D02*
X221070Y115919D01*
X229673D01*
X228862Y112040D01*
X214372D01*
X215042Y115284D01*
X224737Y126002D01*
X216840D01*
X217616Y129739D01*
X231506D01*
X230907Y126883D01*
D02*
G37*
G36*
X411836Y130091D02*
X412118Y130056D01*
X412436Y130021D01*
X412788Y129950D01*
X413176Y129880D01*
X414022Y129633D01*
X414445Y129492D01*
X414868Y129280D01*
X415291Y129033D01*
X415714Y128787D01*
X416102Y128469D01*
X416490Y128117D01*
X416525Y128082D01*
X416561Y128011D01*
X416666Y127905D01*
X416807Y127764D01*
X416948Y127553D01*
X417089Y127306D01*
X417266Y126989D01*
X417477Y126671D01*
X417654Y126284D01*
X417830Y125861D01*
X417971Y125402D01*
X418112Y124873D01*
X418253Y124345D01*
X418359Y123745D01*
X418394Y123146D01*
X418429Y122476D01*
Y122441D01*
Y122406D01*
Y122194D01*
Y121841D01*
X418394Y121454D01*
X418359Y120960D01*
X418288Y120431D01*
X418077Y119374D01*
X406090D01*
Y119338D01*
Y119197D01*
X406055Y119056D01*
Y118915D01*
Y118880D01*
Y118845D01*
Y118633D01*
X406125Y118316D01*
X406196Y117893D01*
X406301Y117435D01*
X406478Y116976D01*
X406724Y116483D01*
X407042Y116060D01*
X407077Y116024D01*
X407218Y115883D01*
X407430Y115742D01*
X407747Y115531D01*
X408099Y115354D01*
X408522Y115178D01*
X409016Y115037D01*
X409545Y115002D01*
X409792D01*
X409933Y115037D01*
X410144Y115072D01*
X410391Y115143D01*
X410920Y115319D01*
X411202Y115425D01*
X411519Y115601D01*
X411836Y115813D01*
X412118Y116060D01*
X412436Y116342D01*
X412753Y116659D01*
X413035Y117047D01*
X413282Y117470D01*
X417548Y116765D01*
Y116729D01*
X417477Y116659D01*
X417407Y116518D01*
X417301Y116342D01*
X417195Y116130D01*
X417019Y115883D01*
X416666Y115284D01*
X416173Y114649D01*
X415574Y114015D01*
X414904Y113380D01*
X414163Y112851D01*
X414128D01*
X414058Y112781D01*
X413952Y112746D01*
X413811Y112640D01*
X413599Y112569D01*
X413388Y112464D01*
X412788Y112217D01*
X412118Y111970D01*
X411308Y111794D01*
X410462Y111653D01*
X409510Y111582D01*
X409157D01*
X408910Y111617D01*
X408593Y111653D01*
X408240Y111688D01*
X407853Y111758D01*
X407430Y111864D01*
X406513Y112146D01*
X406019Y112323D01*
X405526Y112534D01*
X405067Y112781D01*
X404574Y113098D01*
X404115Y113451D01*
X403693Y113839D01*
X403657Y113874D01*
X403587Y113944D01*
X403481Y114085D01*
X403340Y114262D01*
X403164Y114473D01*
X402987Y114755D01*
X402776Y115072D01*
X402600Y115425D01*
X402388Y115848D01*
X402177Y116271D01*
X402000Y116765D01*
X401824Y117294D01*
X401683Y117858D01*
X401577Y118492D01*
X401507Y119127D01*
X401471Y119797D01*
Y119832D01*
Y119973D01*
Y120149D01*
X401507Y120396D01*
X401542Y120713D01*
X401577Y121101D01*
X401648Y121524D01*
X401718Y121982D01*
X401965Y122970D01*
X402141Y123498D01*
X402318Y124062D01*
X402564Y124627D01*
X402811Y125191D01*
X403128Y125755D01*
X403481Y126284D01*
X403516Y126319D01*
X403622Y126460D01*
X403763Y126636D01*
X403974Y126883D01*
X404292Y127165D01*
X404609Y127517D01*
X405032Y127835D01*
X405490Y128223D01*
X406019Y128575D01*
X406619Y128928D01*
X407253Y129245D01*
X407958Y129527D01*
X408699Y129774D01*
X409510Y129950D01*
X410391Y130091D01*
X411308Y130126D01*
X411625D01*
X411836Y130091D01*
D02*
G37*
G36*
X398545Y129739D02*
X401471D01*
X400731Y126178D01*
X397805D01*
X396254Y118704D01*
Y118668D01*
Y118633D01*
X396218Y118527D01*
X396183Y118386D01*
X396113Y118069D01*
X396042Y117681D01*
X395972Y117258D01*
X395901Y116906D01*
X395866Y116588D01*
X395831Y116483D01*
Y116412D01*
Y116377D01*
Y116342D01*
X395866Y116095D01*
X395972Y115848D01*
X396148Y115566D01*
X396183D01*
X396218Y115531D01*
X396324Y115460D01*
X396430Y115425D01*
X396606Y115354D01*
X396853Y115284D01*
X397135Y115249D01*
X397629D01*
X397770Y115284D01*
X397981D01*
X398263Y115319D01*
X398616Y115354D01*
X399039Y115390D01*
X398298Y111864D01*
X398228D01*
X398087Y111829D01*
X397840Y111794D01*
X397523Y111723D01*
X397135Y111688D01*
X396712Y111617D01*
X395760Y111582D01*
X395337D01*
X395125Y111617D01*
X394914D01*
X394350Y111688D01*
X393750Y111829D01*
X393116Y111970D01*
X392552Y112217D01*
X392058Y112534D01*
X392023Y112569D01*
X391882Y112710D01*
X391706Y112957D01*
X391494Y113239D01*
X391283Y113627D01*
X391106Y114121D01*
X390965Y114649D01*
X390930Y115284D01*
Y115319D01*
Y115460D01*
X390965Y115707D01*
X391001Y116060D01*
X391036Y116306D01*
X391071Y116553D01*
X391142Y116870D01*
X391212Y117223D01*
X391283Y117611D01*
X391353Y118034D01*
X391459Y118527D01*
X391565Y119056D01*
X393081Y126178D01*
X390718D01*
X391459Y129739D01*
X393786D01*
X394350Y132559D01*
X399779Y135838D01*
X398545Y129739D01*
D02*
G37*
G36*
X292462D02*
X295389D01*
X294648Y126178D01*
X291722D01*
X290171Y118704D01*
Y118668D01*
Y118633D01*
X290135Y118527D01*
X290100Y118386D01*
X290030Y118069D01*
X289959Y117681D01*
X289889Y117258D01*
X289818Y116906D01*
X289783Y116588D01*
X289748Y116483D01*
Y116412D01*
Y116377D01*
Y116342D01*
X289783Y116095D01*
X289889Y115848D01*
X290065Y115566D01*
X290100D01*
X290135Y115531D01*
X290241Y115460D01*
X290347Y115425D01*
X290523Y115354D01*
X290770Y115284D01*
X291052Y115249D01*
X291546D01*
X291687Y115284D01*
X291898D01*
X292180Y115319D01*
X292533Y115354D01*
X292956Y115390D01*
X292215Y111864D01*
X292145D01*
X292004Y111829D01*
X291757Y111794D01*
X291440Y111723D01*
X291052Y111688D01*
X290629Y111617D01*
X289677Y111582D01*
X289254D01*
X289043Y111617D01*
X288831D01*
X288267Y111688D01*
X287668Y111829D01*
X287033Y111970D01*
X286469Y112217D01*
X285975Y112534D01*
X285940Y112569D01*
X285799Y112710D01*
X285623Y112957D01*
X285411Y113239D01*
X285200Y113627D01*
X285023Y114121D01*
X284882Y114649D01*
X284847Y115284D01*
Y115319D01*
Y115460D01*
X284882Y115707D01*
X284918Y116060D01*
X284953Y116306D01*
X284988Y116553D01*
X285059Y116870D01*
X285129Y117223D01*
X285200Y117611D01*
X285270Y118034D01*
X285376Y118527D01*
X285482Y119056D01*
X286998Y126178D01*
X284636D01*
X285376Y129739D01*
X287703D01*
X288267Y132559D01*
X293696Y135838D01*
X292462Y129739D01*
D02*
G37*
G36*
X314109Y100357D02*
X314391Y100322D01*
X314708Y100251D01*
X315096Y100181D01*
X315519Y100040D01*
X315942Y99863D01*
X314109Y95950D01*
X314074D01*
X314003Y95985D01*
X313862Y96020D01*
X313686Y96091D01*
X313228Y96161D01*
X312699Y96197D01*
X312487D01*
X312241Y96161D01*
X311923Y96091D01*
X311535Y95950D01*
X311112Y95809D01*
X310654Y95562D01*
X310160Y95245D01*
X310090Y95210D01*
X309949Y95069D01*
X309737Y94857D01*
X309455Y94610D01*
X309138Y94258D01*
X308785Y93835D01*
X308468Y93341D01*
X308186Y92777D01*
X308151Y92706D01*
X308116Y92601D01*
X308080Y92495D01*
X308010Y92319D01*
X307939Y92107D01*
X307834Y91860D01*
X307763Y91578D01*
X307657Y91261D01*
X307516Y90908D01*
X307411Y90485D01*
X307305Y90027D01*
X307164Y89569D01*
X307023Y89040D01*
X306917Y88441D01*
X306776Y87841D01*
X305613Y82306D01*
X300888D01*
X304590Y100004D01*
X309032D01*
X308327Y96585D01*
X308362Y96620D01*
X308433Y96761D01*
X308574Y96937D01*
X308750Y97184D01*
X308997Y97466D01*
X309279Y97783D01*
X309596Y98136D01*
X309949Y98488D01*
X310760Y99193D01*
X311183Y99511D01*
X311676Y99793D01*
X312135Y100040D01*
X312663Y100216D01*
X313192Y100357D01*
X313721Y100392D01*
X313897D01*
X314109Y100357D01*
D02*
G37*
G36*
X300853D02*
X301135Y100322D01*
X301452Y100251D01*
X301840Y100181D01*
X302263Y100040D01*
X302686Y99863D01*
X300853Y95950D01*
X300818D01*
X300747Y95985D01*
X300606Y96020D01*
X300430Y96091D01*
X299972Y96161D01*
X299443Y96197D01*
X299231D01*
X298985Y96161D01*
X298667Y96091D01*
X298279Y95950D01*
X297856Y95809D01*
X297398Y95562D01*
X296905Y95245D01*
X296834Y95210D01*
X296693Y95069D01*
X296481Y94857D01*
X296199Y94610D01*
X295882Y94258D01*
X295529Y93835D01*
X295212Y93341D01*
X294930Y92777D01*
X294895Y92706D01*
X294860Y92601D01*
X294824Y92495D01*
X294754Y92319D01*
X294683Y92107D01*
X294578Y91860D01*
X294507Y91578D01*
X294401Y91261D01*
X294260Y90908D01*
X294155Y90485D01*
X294049Y90027D01*
X293908Y89569D01*
X293767Y89040D01*
X293661Y88441D01*
X293520Y87841D01*
X292356Y82306D01*
X287632D01*
X291334Y100004D01*
X295776D01*
X295071Y96585D01*
X295106Y96620D01*
X295177Y96761D01*
X295318Y96937D01*
X295494Y97184D01*
X295741Y97466D01*
X296023Y97783D01*
X296340Y98136D01*
X296693Y98488D01*
X297504Y99193D01*
X297927Y99511D01*
X298420Y99793D01*
X298879Y100040D01*
X299408Y100216D01*
X299936Y100357D01*
X300465Y100392D01*
X300641D01*
X300853Y100357D01*
D02*
G37*
G36*
X342243Y80579D02*
Y80543D01*
X342172Y80473D01*
X342102Y80367D01*
X342031Y80191D01*
X341784Y79768D01*
X341467Y79274D01*
X341115Y78710D01*
X340762Y78146D01*
X340409Y77653D01*
X340092Y77229D01*
X340057Y77194D01*
X339951Y77053D01*
X339810Y76877D01*
X339599Y76665D01*
X339316Y76419D01*
X338999Y76172D01*
X338647Y75925D01*
X338259Y75678D01*
X338224Y75643D01*
X338083Y75608D01*
X337836Y75502D01*
X337519Y75396D01*
X337131Y75290D01*
X336708Y75220D01*
X336214Y75149D01*
X335650Y75114D01*
X335368D01*
X335086Y75149D01*
X334663Y75185D01*
X334169Y75255D01*
X333570Y75361D01*
X332935Y75502D01*
X332265Y75678D01*
X332653Y79239D01*
X332688D01*
X332794Y79204D01*
X332971Y79169D01*
X333182Y79098D01*
X333429Y79063D01*
X333711Y78992D01*
X334310Y78957D01*
X334416D01*
X334522Y78992D01*
X334663Y79028D01*
X335086Y79133D01*
X335333Y79239D01*
X335579Y79380D01*
X335862Y79556D01*
X336143Y79768D01*
X336461Y80050D01*
X336778Y80367D01*
X337060Y80755D01*
X337377Y81213D01*
X337659Y81707D01*
X337942Y82306D01*
X334874Y100004D01*
X339634D01*
X340797Y91155D01*
Y91120D01*
X340832Y91014D01*
Y90838D01*
X340868Y90591D01*
X340903Y90344D01*
X340938Y90027D01*
X341044Y89287D01*
X341115Y88511D01*
X341220Y87736D01*
X341291Y87030D01*
X341326Y86713D01*
Y86466D01*
X341361Y86537D01*
X341432Y86713D01*
X341502Y86889D01*
X341608Y87136D01*
X341714Y87453D01*
X341855Y87771D01*
X341996Y88159D01*
X342384Y89005D01*
X342807Y89957D01*
X343336Y91014D01*
X343900Y92107D01*
X348130Y100004D01*
X353172D01*
X342243Y80579D01*
D02*
G37*
G36*
X325073Y100357D02*
X325355D01*
X325673Y100322D01*
X326413Y100216D01*
X327259Y100075D01*
X328070Y99828D01*
X328881Y99475D01*
X329234Y99264D01*
X329551Y99017D01*
X329586D01*
X329621Y98947D01*
X329798Y98770D01*
X330080Y98488D01*
X330397Y98065D01*
X330679Y97572D01*
X330961Y97008D01*
X331137Y96373D01*
X331208Y96020D01*
Y95633D01*
Y95597D01*
Y95492D01*
Y95351D01*
X331172Y95139D01*
Y94892D01*
X331137Y94610D01*
X331031Y93940D01*
Y93905D01*
X330996Y93729D01*
X330961Y93623D01*
Y93447D01*
X330891Y93271D01*
X330855Y93024D01*
X330785Y92742D01*
X330714Y92389D01*
X330644Y92001D01*
X330573Y91578D01*
X330467Y91085D01*
X330326Y90521D01*
X330185Y89886D01*
X330044Y89216D01*
Y89181D01*
X330009Y89075D01*
X329974Y88934D01*
X329939Y88723D01*
X329903Y88441D01*
X329833Y88159D01*
X329727Y87489D01*
X329586Y86748D01*
X329480Y86043D01*
X329410Y85373D01*
X329375Y85056D01*
Y84809D01*
Y84774D01*
Y84598D01*
X329410Y84386D01*
Y84069D01*
X329480Y83716D01*
X329551Y83293D01*
X329621Y82800D01*
X329762Y82306D01*
X325144D01*
Y82341D01*
X325109Y82483D01*
X325038Y82659D01*
X324968Y82906D01*
X324932Y83223D01*
X324862Y83540D01*
X324791Y84281D01*
X324756Y84245D01*
X324615Y84104D01*
X324368Y83893D01*
X324086Y83611D01*
X323734Y83329D01*
X323311Y83047D01*
X322852Y82729D01*
X322359Y82483D01*
X322288Y82447D01*
X322112Y82377D01*
X321865Y82271D01*
X321513Y82165D01*
X321090Y82059D01*
X320631Y81954D01*
X320138Y81883D01*
X319609Y81848D01*
X319397D01*
X319256Y81883D01*
X318833Y81918D01*
X318340Y82024D01*
X317775Y82200D01*
X317141Y82447D01*
X316542Y82800D01*
X315977Y83258D01*
X315907Y83329D01*
X315766Y83505D01*
X315519Y83822D01*
X315272Y84281D01*
X315026Y84809D01*
X314779Y85444D01*
X314638Y86184D01*
X314567Y86995D01*
Y87030D01*
Y87101D01*
Y87242D01*
X314603Y87418D01*
Y87630D01*
X314638Y87877D01*
X314779Y88441D01*
X314955Y89110D01*
X315237Y89780D01*
X315625Y90450D01*
X315837Y90767D01*
X316119Y91049D01*
X316154Y91085D01*
X316189Y91120D01*
X316295Y91191D01*
X316436Y91296D01*
X316612Y91402D01*
X316824Y91543D01*
X317106Y91684D01*
X317423Y91860D01*
X317775Y92001D01*
X318199Y92178D01*
X318657Y92319D01*
X319186Y92460D01*
X319750Y92601D01*
X320349Y92706D01*
X321019Y92812D01*
X321759Y92883D01*
X321900D01*
X322077Y92918D01*
X322323D01*
X322570Y92953D01*
X322887Y92989D01*
X323593Y93094D01*
X324368Y93165D01*
X325109Y93306D01*
X325461Y93376D01*
X325779Y93447D01*
X326060Y93517D01*
X326307Y93588D01*
Y93623D01*
X326343Y93764D01*
X326413Y93940D01*
X326484Y94152D01*
X326589Y94681D01*
X326625Y94928D01*
Y95174D01*
Y95210D01*
Y95315D01*
X326589Y95421D01*
X326554Y95597D01*
X326484Y95809D01*
X326343Y96020D01*
X326202Y96232D01*
X325990Y96444D01*
X325955Y96479D01*
X325884Y96514D01*
X325743Y96620D01*
X325532Y96726D01*
X325250Y96796D01*
X324968Y96902D01*
X324580Y96937D01*
X324157Y96972D01*
X323945D01*
X323698Y96937D01*
X323416Y96902D01*
X323099Y96831D01*
X322747Y96761D01*
X322429Y96620D01*
X322112Y96444D01*
X322077Y96408D01*
X322006Y96338D01*
X321865Y96232D01*
X321724Y96056D01*
X321548Y95844D01*
X321372Y95597D01*
X321231Y95315D01*
X321125Y94998D01*
X316471Y95386D01*
Y95421D01*
X316506Y95492D01*
X316542Y95597D01*
X316612Y95774D01*
X316824Y96197D01*
X317106Y96726D01*
X317493Y97290D01*
X317952Y97924D01*
X318551Y98524D01*
X319221Y99052D01*
X319256D01*
X319327Y99123D01*
X319433Y99193D01*
X319574Y99264D01*
X319785Y99370D01*
X320032Y99475D01*
X320314Y99581D01*
X320631Y99722D01*
X320984Y99863D01*
X321407Y99969D01*
X321830Y100075D01*
X322288Y100181D01*
X323346Y100322D01*
X324509Y100392D01*
X324827D01*
X325073Y100357D01*
D02*
G37*
G36*
X284882Y82306D02*
X280123D01*
X279312Y87700D01*
X269652D01*
X266726Y82306D01*
X261579D01*
X275293Y106703D01*
X280969D01*
X284882Y82306D01*
D02*
G37*
G36*
X252078Y65793D02*
X247318D01*
X248235Y70094D01*
X252959D01*
X252078Y65793D01*
D02*
G37*
G36*
X267096Y63748D02*
X267519Y63713D01*
X268013Y63642D01*
X268577Y63466D01*
X269141Y63254D01*
X269705Y62937D01*
X270234Y62514D01*
X270304Y62443D01*
X270445Y62302D01*
X270622Y62020D01*
X270868Y61633D01*
X271115Y61139D01*
X271292Y60575D01*
X271433Y59940D01*
X271503Y59200D01*
Y59165D01*
Y59024D01*
X271468Y58777D01*
X271397Y58389D01*
X271327Y57931D01*
X271221Y57296D01*
X271150Y56944D01*
X271080Y56556D01*
X270974Y56133D01*
X270868Y55674D01*
X268718Y45697D01*
X263994D01*
X266144Y55710D01*
Y55745D01*
X266180Y55816D01*
Y55921D01*
X266215Y56062D01*
X266285Y56450D01*
X266391Y56873D01*
X266462Y57331D01*
X266532Y57790D01*
X266603Y58142D01*
X266638Y58283D01*
Y58389D01*
Y58424D01*
Y58530D01*
X266603Y58706D01*
X266567Y58918D01*
X266497Y59129D01*
X266391Y59376D01*
X266250Y59623D01*
X266074Y59835D01*
X266038Y59870D01*
X265968Y59905D01*
X265862Y60011D01*
X265686Y60117D01*
X265474Y60187D01*
X265228Y60293D01*
X264910Y60328D01*
X264558Y60363D01*
X264382D01*
X264170Y60328D01*
X263853Y60258D01*
X263500Y60152D01*
X263112Y59976D01*
X262689Y59764D01*
X262196Y59482D01*
X262125Y59447D01*
X261984Y59306D01*
X261737Y59129D01*
X261455Y58847D01*
X261138Y58530D01*
X260786Y58142D01*
X260468Y57684D01*
X260151Y57155D01*
X260116Y57120D01*
X260045Y56944D01*
X259939Y56662D01*
X259869Y56450D01*
X259798Y56238D01*
X259728Y55957D01*
X259622Y55674D01*
X259516Y55322D01*
X259411Y54934D01*
X259305Y54511D01*
X259164Y54017D01*
X259058Y53489D01*
X258917Y52924D01*
X257401Y45697D01*
X252677D01*
X256379Y63395D01*
X260891D01*
X260433Y61069D01*
X260468D01*
X260504Y61139D01*
X260715Y61315D01*
X261068Y61562D01*
X261491Y61879D01*
X261984Y62197D01*
X262513Y62549D01*
X263077Y62867D01*
X263641Y63148D01*
X263712Y63184D01*
X263888Y63254D01*
X264205Y63360D01*
X264593Y63466D01*
X265051Y63572D01*
X265580Y63677D01*
X266144Y63748D01*
X266744Y63783D01*
X266955D01*
X267096Y63748D01*
D02*
G37*
G36*
X316700D02*
X316982Y63713D01*
X317300Y63642D01*
X317687Y63572D01*
X318111Y63431D01*
X318533Y63254D01*
X316700Y59341D01*
X316665D01*
X316595Y59376D01*
X316453Y59412D01*
X316277Y59482D01*
X315819Y59552D01*
X315290Y59588D01*
X315079D01*
X314832Y59552D01*
X314514Y59482D01*
X314127Y59341D01*
X313704Y59200D01*
X313245Y58953D01*
X312752Y58636D01*
X312681Y58601D01*
X312540Y58460D01*
X312329Y58248D01*
X312047Y58001D01*
X311729Y57649D01*
X311377Y57226D01*
X311059Y56732D01*
X310777Y56168D01*
X310742Y56097D01*
X310707Y55992D01*
X310672Y55886D01*
X310601Y55710D01*
X310531Y55498D01*
X310425Y55251D01*
X310354Y54969D01*
X310249Y54652D01*
X310107Y54300D01*
X310002Y53876D01*
X309896Y53418D01*
X309755Y52960D01*
X309614Y52431D01*
X309508Y51832D01*
X309367Y51232D01*
X308204Y45697D01*
X303480D01*
X307181Y63395D01*
X311623D01*
X310918Y59976D01*
X310954Y60011D01*
X311024Y60152D01*
X311165Y60328D01*
X311341Y60575D01*
X311588Y60857D01*
X311870Y61174D01*
X312188Y61527D01*
X312540Y61879D01*
X313351Y62585D01*
X313774Y62902D01*
X314268Y63184D01*
X314726Y63431D01*
X315255Y63607D01*
X315784Y63748D01*
X316312Y63783D01*
X316489D01*
X316700Y63748D01*
D02*
G37*
G36*
X234168Y45697D02*
X229091D01*
X228527Y63536D01*
X219643Y45697D01*
X214460D01*
X213543Y70094D01*
X218444D01*
X218655Y52995D01*
X227082Y70094D01*
X232511D01*
X233075Y53171D01*
X241113Y70094D01*
X245978D01*
X234168Y45697D01*
D02*
G37*
G36*
X394826Y70200D02*
X395108Y70164D01*
X395425Y70129D01*
X396166Y69988D01*
X396976Y69777D01*
X397822Y69424D01*
X398246Y69212D01*
X398633Y68966D01*
X399021Y68684D01*
X399374Y68331D01*
X399409Y68296D01*
X399444Y68260D01*
X399550Y68155D01*
X399656Y68014D01*
X399797Y67802D01*
X399938Y67591D01*
X400255Y67062D01*
X400572Y66427D01*
X400854Y65652D01*
X401066Y64805D01*
X401101Y64347D01*
X401137Y63854D01*
Y63818D01*
Y63783D01*
Y63677D01*
Y63536D01*
X401066Y63184D01*
X400995Y62726D01*
X400854Y62161D01*
X400678Y61597D01*
X400396Y60998D01*
X400008Y60399D01*
X399973Y60328D01*
X399797Y60152D01*
X399550Y59870D01*
X399197Y59552D01*
X398774Y59165D01*
X398246Y58777D01*
X397646Y58460D01*
X396941Y58142D01*
X396976D01*
X397012Y58107D01*
X397188Y58001D01*
X397470Y57825D01*
X397822Y57578D01*
X398175Y57261D01*
X398563Y56908D01*
X398915Y56485D01*
X399233Y56027D01*
X399268Y55957D01*
X399338Y55816D01*
X399479Y55533D01*
X399621Y55216D01*
X399726Y54793D01*
X399867Y54335D01*
X399938Y53841D01*
X399973Y53312D01*
Y53277D01*
Y53207D01*
Y53066D01*
X399938Y52854D01*
X399902Y52607D01*
X399867Y52325D01*
X399797Y52008D01*
X399726Y51691D01*
X399515Y50915D01*
X399162Y50069D01*
X398951Y49646D01*
X398669Y49187D01*
X398387Y48764D01*
X398034Y48341D01*
X397999Y48306D01*
X397928Y48200D01*
X397752Y48059D01*
X397576Y47848D01*
X397294Y47636D01*
X396976Y47354D01*
X396624Y47072D01*
X396201Y46790D01*
X395742Y46508D01*
X395249Y46226D01*
X394685Y45944D01*
X394085Y45732D01*
X393451Y45521D01*
X392781Y45380D01*
X392041Y45274D01*
X391300Y45239D01*
X391018D01*
X390771Y45274D01*
X390525Y45309D01*
X390207Y45345D01*
X389855Y45380D01*
X389502Y45450D01*
X388691Y45662D01*
X387845Y45979D01*
X387422Y46191D01*
X386999Y46438D01*
X386576Y46684D01*
X386188Y47002D01*
X386153Y47037D01*
X386118Y47072D01*
X386012Y47178D01*
X385871Y47319D01*
X385695Y47495D01*
X385518Y47742D01*
X385342Y47989D01*
X385131Y48306D01*
X384919Y48623D01*
X384707Y49011D01*
X384496Y49399D01*
X384320Y49857D01*
X384143Y50351D01*
X383967Y50880D01*
X383861Y51409D01*
X383756Y52008D01*
X388339Y52572D01*
Y52537D01*
Y52502D01*
X388374Y52396D01*
X388409Y52255D01*
X388480Y51902D01*
X388586Y51479D01*
X388727Y51056D01*
X388903Y50598D01*
X389114Y50175D01*
X389361Y49857D01*
X389397Y49822D01*
X389502Y49752D01*
X389678Y49611D01*
X389890Y49505D01*
X390172Y49364D01*
X390525Y49223D01*
X390913Y49152D01*
X391335Y49117D01*
X391406D01*
X391618Y49152D01*
X391900Y49187D01*
X392287Y49258D01*
X392710Y49399D01*
X393169Y49575D01*
X393627Y49857D01*
X394050Y50210D01*
X394085Y50245D01*
X394226Y50421D01*
X394403Y50633D01*
X394614Y50985D01*
X394790Y51373D01*
X394967Y51867D01*
X395108Y52431D01*
X395143Y53030D01*
Y53066D01*
Y53101D01*
Y53277D01*
X395108Y53559D01*
X395037Y53912D01*
X394931Y54300D01*
X394755Y54687D01*
X394544Y55075D01*
X394262Y55428D01*
X394226Y55463D01*
X394085Y55569D01*
X393909Y55710D01*
X393627Y55886D01*
X393310Y56027D01*
X392887Y56168D01*
X392428Y56274D01*
X391900Y56309D01*
X391688D01*
X391441Y56274D01*
X391159Y56238D01*
X391970Y60187D01*
X392781D01*
X393134Y60222D01*
X393557Y60293D01*
X394015Y60434D01*
X394473Y60575D01*
X394931Y60822D01*
X395355Y61139D01*
X395390Y61174D01*
X395531Y61315D01*
X395672Y61527D01*
X395883Y61844D01*
X396060Y62232D01*
X396236Y62690D01*
X396342Y63219D01*
X396377Y63818D01*
Y63889D01*
Y64030D01*
X396342Y64241D01*
X396306Y64524D01*
X396201Y64805D01*
X396095Y65123D01*
X395919Y65440D01*
X395672Y65722D01*
X395637Y65757D01*
X395566Y65828D01*
X395390Y65934D01*
X395214Y66075D01*
X394931Y66216D01*
X394650Y66322D01*
X394297Y66392D01*
X393909Y66427D01*
X393733D01*
X393557Y66392D01*
X393310Y66322D01*
X393028Y66251D01*
X392710Y66110D01*
X392393Y65898D01*
X392076Y65652D01*
X392041Y65616D01*
X391935Y65511D01*
X391794Y65299D01*
X391618Y65052D01*
X391406Y64700D01*
X391194Y64241D01*
X390983Y63713D01*
X390807Y63078D01*
X386435Y63924D01*
Y63959D01*
X386470Y64030D01*
X386506Y64171D01*
X386576Y64383D01*
X386682Y64594D01*
X386788Y64841D01*
X387034Y65440D01*
X387352Y66110D01*
X387739Y66780D01*
X388198Y67450D01*
X388727Y68049D01*
X388762Y68084D01*
X388832Y68155D01*
X388973Y68260D01*
X389114Y68402D01*
X389361Y68543D01*
X389608Y68754D01*
X389925Y68930D01*
X390278Y69142D01*
X390666Y69353D01*
X391054Y69530D01*
X392005Y69882D01*
X392534Y70023D01*
X393098Y70129D01*
X393662Y70200D01*
X394262Y70235D01*
X394579D01*
X394826Y70200D01*
D02*
G37*
G36*
X375753D02*
X376035Y70164D01*
X376387Y70129D01*
X376740Y70094D01*
X377128Y69988D01*
X378009Y69777D01*
X378890Y69459D01*
X379349Y69248D01*
X379772Y69001D01*
X380160Y68684D01*
X380547Y68366D01*
X380583Y68331D01*
X380618Y68296D01*
X380724Y68190D01*
X380865Y68049D01*
X381006Y67838D01*
X381182Y67626D01*
X381358Y67379D01*
X381535Y67097D01*
X381887Y66427D01*
X382204Y65616D01*
X382451Y64700D01*
X382486Y64206D01*
X382522Y63677D01*
Y63607D01*
Y63431D01*
X382486Y63148D01*
X382451Y62761D01*
X382381Y62338D01*
X382275Y61844D01*
X382134Y61315D01*
X381922Y60751D01*
X381887Y60681D01*
X381817Y60504D01*
X381676Y60222D01*
X381464Y59835D01*
X381182Y59376D01*
X380830Y58847D01*
X380442Y58283D01*
X379948Y57684D01*
X379913Y57649D01*
X379772Y57473D01*
X379525Y57226D01*
X379173Y56873D01*
X378714Y56415D01*
X378150Y55851D01*
X377480Y55216D01*
X376705Y54476D01*
X376669Y54440D01*
X376599Y54370D01*
X376493Y54300D01*
X376352Y54159D01*
X375964Y53806D01*
X375506Y53348D01*
X375012Y52889D01*
X374519Y52431D01*
X374096Y52008D01*
X373743Y51655D01*
X373708Y51620D01*
X373637Y51514D01*
X373496Y51373D01*
X373320Y51197D01*
X373109Y50950D01*
X372897Y50668D01*
X372403Y50069D01*
X380865D01*
X379948Y45697D01*
X365141D01*
Y45732D01*
Y45768D01*
X365176Y45873D01*
Y46014D01*
X365247Y46367D01*
X365352Y46790D01*
X365494Y47319D01*
X365670Y47883D01*
X365881Y48518D01*
X366163Y49117D01*
Y49152D01*
X366199Y49187D01*
X366304Y49399D01*
X366481Y49716D01*
X366727Y50104D01*
X367045Y50562D01*
X367397Y51056D01*
X367785Y51585D01*
X368208Y52114D01*
X368279Y52184D01*
X368455Y52396D01*
X368596Y52537D01*
X368772Y52713D01*
X368984Y52960D01*
X369230Y53207D01*
X369512Y53524D01*
X369865Y53841D01*
X370218Y54229D01*
X370641Y54617D01*
X371099Y55075D01*
X371593Y55569D01*
X372121Y56097D01*
X372721Y56662D01*
X372756Y56697D01*
X372826Y56767D01*
X372968Y56873D01*
X373109Y57049D01*
X373532Y57437D01*
X374025Y57931D01*
X374554Y58460D01*
X375083Y58953D01*
X375506Y59412D01*
X375682Y59588D01*
X375823Y59729D01*
X375858Y59799D01*
X375999Y59940D01*
X376211Y60187D01*
X376458Y60504D01*
X376740Y60857D01*
X376987Y61245D01*
X377233Y61633D01*
X377410Y61985D01*
X377445Y62020D01*
X377480Y62161D01*
X377551Y62338D01*
X377657Y62549D01*
X377727Y62831D01*
X377798Y63113D01*
X377833Y63431D01*
X377868Y63713D01*
Y63783D01*
Y63924D01*
X377833Y64136D01*
X377762Y64418D01*
X377692Y64735D01*
X377551Y65088D01*
X377374Y65405D01*
X377128Y65722D01*
X377092Y65757D01*
X376987Y65828D01*
X376846Y65969D01*
X376634Y66110D01*
X376352Y66251D01*
X376035Y66392D01*
X375682Y66462D01*
X375294Y66498D01*
X375118D01*
X374907Y66462D01*
X374624Y66392D01*
X374307Y66286D01*
X373990Y66110D01*
X373637Y65898D01*
X373320Y65616D01*
X373285Y65581D01*
X373179Y65440D01*
X373038Y65229D01*
X372862Y64911D01*
X372650Y64488D01*
X372439Y63959D01*
X372227Y63325D01*
X372051Y62549D01*
X367397Y63219D01*
Y63254D01*
X367433Y63360D01*
X367468Y63536D01*
X367503Y63783D01*
X367609Y64065D01*
X367679Y64383D01*
X367785Y64735D01*
X367926Y65123D01*
X368279Y65969D01*
X368737Y66850D01*
X369301Y67661D01*
X369654Y68049D01*
X370006Y68402D01*
X370041Y68437D01*
X370112Y68472D01*
X370218Y68578D01*
X370394Y68684D01*
X370570Y68825D01*
X370817Y68966D01*
X371099Y69142D01*
X371452Y69318D01*
X371804Y69495D01*
X372192Y69671D01*
X373073Y69953D01*
X374061Y70164D01*
X374624Y70200D01*
X375189Y70235D01*
X375506D01*
X375753Y70200D01*
D02*
G37*
G36*
X337818D02*
X338100Y70164D01*
X338453Y70129D01*
X338805Y70094D01*
X339193Y69988D01*
X340075Y69777D01*
X340956Y69459D01*
X341414Y69248D01*
X341837Y69001D01*
X342225Y68684D01*
X342613Y68366D01*
X342648Y68331D01*
X342683Y68296D01*
X342789Y68190D01*
X342930Y68049D01*
X343071Y67838D01*
X343247Y67626D01*
X343424Y67379D01*
X343600Y67097D01*
X343952Y66427D01*
X344270Y65616D01*
X344517Y64700D01*
X344552Y64206D01*
X344587Y63677D01*
Y63607D01*
Y63431D01*
X344552Y63148D01*
X344517Y62761D01*
X344446Y62338D01*
X344340Y61844D01*
X344199Y61315D01*
X343988Y60751D01*
X343952Y60681D01*
X343882Y60504D01*
X343741Y60222D01*
X343530Y59835D01*
X343247Y59376D01*
X342895Y58847D01*
X342507Y58283D01*
X342014Y57684D01*
X341978Y57649D01*
X341837Y57473D01*
X341590Y57226D01*
X341238Y56873D01*
X340780Y56415D01*
X340215Y55851D01*
X339546Y55216D01*
X338770Y54476D01*
X338735Y54440D01*
X338664Y54370D01*
X338559Y54300D01*
X338418Y54159D01*
X338030Y53806D01*
X337571Y53348D01*
X337078Y52889D01*
X336584Y52431D01*
X336161Y52008D01*
X335809Y51655D01*
X335773Y51620D01*
X335703Y51514D01*
X335562Y51373D01*
X335386Y51197D01*
X335174Y50950D01*
X334962Y50668D01*
X334469Y50069D01*
X342930D01*
X342014Y45697D01*
X327206D01*
Y45732D01*
Y45768D01*
X327242Y45873D01*
Y46014D01*
X327312Y46367D01*
X327418Y46790D01*
X327559Y47319D01*
X327735Y47883D01*
X327947Y48518D01*
X328229Y49117D01*
Y49152D01*
X328264Y49187D01*
X328370Y49399D01*
X328546Y49716D01*
X328793Y50104D01*
X329110Y50562D01*
X329463Y51056D01*
X329850Y51585D01*
X330274Y52114D01*
X330344Y52184D01*
X330520Y52396D01*
X330661Y52537D01*
X330838Y52713D01*
X331049Y52960D01*
X331296Y53207D01*
X331578Y53524D01*
X331931Y53841D01*
X332283Y54229D01*
X332706Y54617D01*
X333164Y55075D01*
X333658Y55569D01*
X334187Y56097D01*
X334786Y56662D01*
X334821Y56697D01*
X334892Y56767D01*
X335033Y56873D01*
X335174Y57049D01*
X335597Y57437D01*
X336091Y57931D01*
X336619Y58460D01*
X337148Y58953D01*
X337571Y59412D01*
X337748Y59588D01*
X337889Y59729D01*
X337924Y59799D01*
X338065Y59940D01*
X338276Y60187D01*
X338523Y60504D01*
X338805Y60857D01*
X339052Y61245D01*
X339299Y61633D01*
X339475Y61985D01*
X339510Y62020D01*
X339546Y62161D01*
X339616Y62338D01*
X339722Y62549D01*
X339792Y62831D01*
X339863Y63113D01*
X339898Y63431D01*
X339933Y63713D01*
Y63783D01*
Y63924D01*
X339898Y64136D01*
X339828Y64418D01*
X339757Y64735D01*
X339616Y65088D01*
X339440Y65405D01*
X339193Y65722D01*
X339158Y65757D01*
X339052Y65828D01*
X338911Y65969D01*
X338699Y66110D01*
X338418Y66251D01*
X338100Y66392D01*
X337748Y66462D01*
X337360Y66498D01*
X337183D01*
X336972Y66462D01*
X336690Y66392D01*
X336373Y66286D01*
X336055Y66110D01*
X335703Y65898D01*
X335386Y65616D01*
X335350Y65581D01*
X335244Y65440D01*
X335103Y65229D01*
X334927Y64911D01*
X334716Y64488D01*
X334504Y63959D01*
X334293Y63325D01*
X334116Y62549D01*
X329463Y63219D01*
Y63254D01*
X329498Y63360D01*
X329533Y63536D01*
X329568Y63783D01*
X329674Y64065D01*
X329745Y64383D01*
X329850Y64735D01*
X329991Y65123D01*
X330344Y65969D01*
X330802Y66850D01*
X331366Y67661D01*
X331719Y68049D01*
X332071Y68402D01*
X332107Y68437D01*
X332177Y68472D01*
X332283Y68578D01*
X332459Y68684D01*
X332636Y68825D01*
X332882Y68966D01*
X333164Y69142D01*
X333517Y69318D01*
X333870Y69495D01*
X334257Y69671D01*
X335139Y69953D01*
X336126Y70164D01*
X336690Y70200D01*
X337254Y70235D01*
X337571D01*
X337818Y70200D01*
D02*
G37*
G36*
X247847Y45697D02*
X243123D01*
X246824Y63395D01*
X251584D01*
X247847Y45697D01*
D02*
G37*
G36*
X357279Y70200D02*
X357526Y70164D01*
X357808Y70129D01*
X358513Y69953D01*
X359288Y69706D01*
X359676Y69530D01*
X360099Y69318D01*
X360487Y69071D01*
X360910Y68754D01*
X361298Y68437D01*
X361651Y68049D01*
X361686Y68014D01*
X361721Y67943D01*
X361827Y67838D01*
X361968Y67661D01*
X362109Y67414D01*
X362250Y67168D01*
X362426Y66850D01*
X362638Y66462D01*
X362814Y66040D01*
X362990Y65581D01*
X363131Y65052D01*
X363272Y64524D01*
X363413Y63889D01*
X363519Y63254D01*
X363554Y62549D01*
X363590Y61809D01*
Y61774D01*
Y61633D01*
Y61421D01*
X363554Y61139D01*
Y60822D01*
X363519Y60399D01*
X363484Y59940D01*
X363413Y59412D01*
X363343Y58812D01*
X363237Y58213D01*
X363131Y57543D01*
X362990Y56873D01*
X362638Y55392D01*
X362179Y53841D01*
Y53806D01*
X362109Y53665D01*
X362038Y53453D01*
X361933Y53171D01*
X361792Y52819D01*
X361615Y52396D01*
X361404Y51973D01*
X361192Y51479D01*
X360628Y50457D01*
X359994Y49399D01*
X359253Y48377D01*
X358830Y47883D01*
X358407Y47460D01*
X358372Y47425D01*
X358301Y47354D01*
X358160Y47248D01*
X357984Y47107D01*
X357773Y46931D01*
X357491Y46755D01*
X357209Y46543D01*
X356856Y46367D01*
X356045Y45944D01*
X355164Y45592D01*
X354670Y45450D01*
X354141Y45345D01*
X353613Y45274D01*
X353048Y45239D01*
X352766D01*
X352555Y45274D01*
X352308Y45309D01*
X352026Y45345D01*
X351321Y45521D01*
X350545Y45768D01*
X350157Y45944D01*
X349734Y46156D01*
X349311Y46402D01*
X348923Y46684D01*
X348536Y47002D01*
X348148Y47389D01*
X348113Y47425D01*
X348077Y47495D01*
X347972Y47601D01*
X347866Y47777D01*
X347725Y48024D01*
X347549Y48271D01*
X347372Y48588D01*
X347196Y48976D01*
X347020Y49399D01*
X346843Y49857D01*
X346702Y50351D01*
X346526Y50915D01*
X346420Y51514D01*
X346315Y52149D01*
X346279Y52854D01*
X346244Y53594D01*
Y53630D01*
Y53771D01*
Y53947D01*
X346279Y54229D01*
Y54581D01*
X346315Y54969D01*
X346350Y55428D01*
X346385Y55921D01*
X346456Y56450D01*
X346561Y57049D01*
X346773Y58319D01*
X347055Y59658D01*
X347478Y61069D01*
X347513Y61139D01*
X347549Y61280D01*
X347654Y61527D01*
X347760Y61844D01*
X347901Y62232D01*
X348113Y62655D01*
X348324Y63148D01*
X348571Y63677D01*
X349135Y64805D01*
X349805Y65934D01*
X350157Y66498D01*
X350580Y67027D01*
X351004Y67520D01*
X351427Y67979D01*
X351462Y68014D01*
X351532Y68084D01*
X351673Y68190D01*
X351850Y68331D01*
X352061Y68507D01*
X352343Y68684D01*
X352661Y68895D01*
X353013Y69107D01*
X353789Y69530D01*
X354705Y69882D01*
X355199Y70023D01*
X355692Y70129D01*
X356221Y70200D01*
X356785Y70235D01*
X357067D01*
X357279Y70200D01*
D02*
G37*
G36*
X295759Y63748D02*
X296041Y63713D01*
X296358Y63677D01*
X296711Y63607D01*
X297098Y63536D01*
X297945Y63290D01*
X298368Y63148D01*
X298791Y62937D01*
X299214Y62690D01*
X299637Y62443D01*
X300025Y62126D01*
X300412Y61774D01*
X300448Y61738D01*
X300483Y61668D01*
X300589Y61562D01*
X300730Y61421D01*
X300871Y61210D01*
X301012Y60963D01*
X301188Y60645D01*
X301399Y60328D01*
X301576Y59940D01*
X301752Y59517D01*
X301893Y59059D01*
X302034Y58530D01*
X302175Y58001D01*
X302281Y57402D01*
X302316Y56803D01*
X302351Y56133D01*
Y56097D01*
Y56062D01*
Y55851D01*
Y55498D01*
X302316Y55110D01*
X302281Y54617D01*
X302210Y54088D01*
X301999Y53030D01*
X290012D01*
Y52995D01*
Y52854D01*
X289977Y52713D01*
Y52572D01*
Y52537D01*
Y52502D01*
Y52290D01*
X290047Y51973D01*
X290118Y51550D01*
X290224Y51091D01*
X290400Y50633D01*
X290647Y50139D01*
X290964Y49716D01*
X290999Y49681D01*
X291140Y49540D01*
X291352Y49399D01*
X291669Y49187D01*
X292022Y49011D01*
X292445Y48835D01*
X292938Y48694D01*
X293467Y48659D01*
X293714D01*
X293855Y48694D01*
X294066Y48729D01*
X294313Y48800D01*
X294842Y48976D01*
X295124Y49082D01*
X295441Y49258D01*
X295759Y49469D01*
X296041Y49716D01*
X296358Y49998D01*
X296675Y50316D01*
X296957Y50704D01*
X297204Y51126D01*
X301470Y50421D01*
Y50386D01*
X301399Y50316D01*
X301329Y50175D01*
X301223Y49998D01*
X301117Y49787D01*
X300941Y49540D01*
X300589Y48941D01*
X300095Y48306D01*
X299496Y47671D01*
X298826Y47037D01*
X298085Y46508D01*
X298050D01*
X297980Y46438D01*
X297874Y46402D01*
X297733Y46297D01*
X297521Y46226D01*
X297310Y46120D01*
X296711Y45873D01*
X296041Y45627D01*
X295230Y45450D01*
X294384Y45309D01*
X293432Y45239D01*
X293079D01*
X292833Y45274D01*
X292515Y45309D01*
X292163Y45345D01*
X291775Y45415D01*
X291352Y45521D01*
X290435Y45803D01*
X289942Y45979D01*
X289448Y46191D01*
X288990Y46438D01*
X288496Y46755D01*
X288038Y47107D01*
X287615Y47495D01*
X287579Y47530D01*
X287509Y47601D01*
X287403Y47742D01*
X287262Y47918D01*
X287086Y48130D01*
X286910Y48412D01*
X286698Y48729D01*
X286522Y49082D01*
X286310Y49505D01*
X286099Y49928D01*
X285923Y50421D01*
X285746Y50950D01*
X285605Y51514D01*
X285499Y52149D01*
X285429Y52783D01*
X285394Y53453D01*
Y53489D01*
Y53630D01*
Y53806D01*
X285429Y54053D01*
X285464Y54370D01*
X285499Y54758D01*
X285570Y55181D01*
X285640Y55639D01*
X285887Y56626D01*
X286063Y57155D01*
X286240Y57719D01*
X286486Y58283D01*
X286733Y58847D01*
X287051Y59412D01*
X287403Y59940D01*
X287438Y59976D01*
X287544Y60117D01*
X287685Y60293D01*
X287897Y60540D01*
X288214Y60822D01*
X288531Y61174D01*
X288954Y61491D01*
X289413Y61879D01*
X289942Y62232D01*
X290541Y62585D01*
X291175Y62902D01*
X291881Y63184D01*
X292621Y63431D01*
X293432Y63607D01*
X294313Y63748D01*
X295230Y63783D01*
X295547D01*
X295759Y63748D01*
D02*
G37*
G36*
X282467Y63395D02*
X285394D01*
X284653Y59835D01*
X281727D01*
X280176Y52360D01*
Y52325D01*
Y52290D01*
X280141Y52184D01*
X280105Y52043D01*
X280035Y51726D01*
X279964Y51338D01*
X279894Y50915D01*
X279823Y50562D01*
X279788Y50245D01*
X279753Y50139D01*
Y50069D01*
Y50034D01*
Y49998D01*
X279788Y49752D01*
X279894Y49505D01*
X280070Y49223D01*
X280105D01*
X280141Y49187D01*
X280246Y49117D01*
X280352Y49082D01*
X280528Y49011D01*
X280775Y48941D01*
X281057Y48905D01*
X281551D01*
X281692Y48941D01*
X281903D01*
X282185Y48976D01*
X282538Y49011D01*
X282961Y49047D01*
X282221Y45521D01*
X282150D01*
X282009Y45486D01*
X281762Y45450D01*
X281445Y45380D01*
X281057Y45345D01*
X280634Y45274D01*
X279682Y45239D01*
X279259D01*
X279048Y45274D01*
X278836D01*
X278272Y45345D01*
X277673Y45486D01*
X277038Y45627D01*
X276474Y45873D01*
X275980Y46191D01*
X275945Y46226D01*
X275804Y46367D01*
X275628Y46614D01*
X275416Y46896D01*
X275205Y47284D01*
X275029Y47777D01*
X274888Y48306D01*
X274852Y48941D01*
Y48976D01*
Y49117D01*
X274888Y49364D01*
X274923Y49716D01*
X274958Y49963D01*
X274993Y50210D01*
X275064Y50527D01*
X275134Y50880D01*
X275205Y51267D01*
X275275Y51691D01*
X275381Y52184D01*
X275487Y52713D01*
X277003Y59835D01*
X274641D01*
X275381Y63395D01*
X277708D01*
X278272Y66216D01*
X283701Y69495D01*
X282467Y63395D01*
D02*
G37*
G36*
X424898Y36058D02*
X420139D01*
X421056Y40360D01*
X425780D01*
X424898Y36058D01*
D02*
G37*
G36*
X331084D02*
X326325D01*
X327242Y40360D01*
X331966D01*
X331084Y36058D01*
D02*
G37*
G36*
X212592D02*
X207832D01*
X208749Y40360D01*
X213473D01*
X212592Y36058D01*
D02*
G37*
G36*
X184141D02*
X179381D01*
X180298Y40360D01*
X185022D01*
X184141Y36058D01*
D02*
G37*
G36*
X346103Y34014D02*
X346526Y33978D01*
X347020Y33908D01*
X347584Y33732D01*
X348148Y33520D01*
X348712Y33203D01*
X349241Y32780D01*
X349311Y32709D01*
X349452Y32568D01*
X349629Y32286D01*
X349875Y31898D01*
X350122Y31405D01*
X350299Y30841D01*
X350439Y30206D01*
X350510Y29466D01*
Y29430D01*
Y29290D01*
X350475Y29043D01*
X350404Y28655D01*
X350334Y28196D01*
X350228Y27562D01*
X350157Y27209D01*
X350087Y26822D01*
X349981Y26398D01*
X349875Y25940D01*
X347725Y15963D01*
X343001D01*
X345151Y25975D01*
Y26011D01*
X345187Y26081D01*
Y26187D01*
X345222Y26328D01*
X345292Y26716D01*
X345398Y27139D01*
X345468Y27597D01*
X345539Y28056D01*
X345610Y28408D01*
X345645Y28549D01*
Y28655D01*
Y28690D01*
Y28796D01*
X345610Y28972D01*
X345574Y29184D01*
X345504Y29395D01*
X345398Y29642D01*
X345257Y29889D01*
X345081Y30100D01*
X345045Y30136D01*
X344975Y30171D01*
X344869Y30277D01*
X344693Y30382D01*
X344481Y30453D01*
X344235Y30559D01*
X343917Y30594D01*
X343565Y30629D01*
X343388D01*
X343177Y30594D01*
X342860Y30523D01*
X342507Y30418D01*
X342119Y30241D01*
X341696Y30030D01*
X341203Y29748D01*
X341132Y29713D01*
X340991Y29571D01*
X340744Y29395D01*
X340462Y29113D01*
X340145Y28796D01*
X339792Y28408D01*
X339475Y27950D01*
X339158Y27421D01*
X339123Y27386D01*
X339052Y27209D01*
X338946Y26927D01*
X338876Y26716D01*
X338805Y26504D01*
X338735Y26222D01*
X338629Y25940D01*
X338523Y25588D01*
X338418Y25200D01*
X338312Y24777D01*
X338171Y24283D01*
X338065Y23754D01*
X337924Y23190D01*
X336408Y15963D01*
X331684D01*
X335386Y33661D01*
X339898D01*
X339440Y31334D01*
X339475D01*
X339510Y31405D01*
X339722Y31581D01*
X340075Y31828D01*
X340498Y32145D01*
X340991Y32462D01*
X341520Y32815D01*
X342084Y33132D01*
X342648Y33414D01*
X342719Y33450D01*
X342895Y33520D01*
X343212Y33626D01*
X343600Y33732D01*
X344058Y33837D01*
X344587Y33943D01*
X345151Y34014D01*
X345751Y34049D01*
X345962D01*
X346103Y34014D01*
D02*
G37*
G36*
X302422D02*
X302704D01*
X303021Y33978D01*
X303797Y33908D01*
X304608Y33732D01*
X305489Y33520D01*
X306300Y33203D01*
X306653Y32991D01*
X307005Y32780D01*
X307040D01*
X307076Y32709D01*
X307287Y32568D01*
X307604Y32286D01*
X307957Y31898D01*
X308345Y31405D01*
X308697Y30841D01*
X309015Y30171D01*
X309261Y29395D01*
X304855Y28655D01*
Y28690D01*
X304784Y28796D01*
X304713Y28972D01*
X304573Y29184D01*
X304431Y29430D01*
X304220Y29642D01*
X303973Y29889D01*
X303691Y30065D01*
X303656Y30100D01*
X303515Y30171D01*
X303268Y30277D01*
X302986Y30418D01*
X302598Y30523D01*
X302175Y30629D01*
X301681Y30700D01*
X301117Y30735D01*
X300871D01*
X300589Y30700D01*
X300271Y30664D01*
X299919Y30594D01*
X299566Y30523D01*
X299214Y30382D01*
X298932Y30206D01*
X298896Y30171D01*
X298826Y30136D01*
X298720Y30030D01*
X298614Y29889D01*
X298403Y29536D01*
X298332Y29325D01*
X298297Y29078D01*
Y29043D01*
Y28972D01*
X298332Y28831D01*
X298368Y28690D01*
X298438Y28514D01*
X298579Y28338D01*
X298720Y28161D01*
X298932Y27985D01*
X298967D01*
X299037Y27915D01*
X299178Y27844D01*
X299425Y27773D01*
X299778Y27633D01*
X299989Y27562D01*
X300271Y27456D01*
X300553Y27386D01*
X300871Y27280D01*
X301223Y27139D01*
X301646Y27033D01*
X301681D01*
X301787Y26998D01*
X301964Y26927D01*
X302210Y26857D01*
X302492Y26751D01*
X302810Y26645D01*
X303550Y26398D01*
X304326Y26116D01*
X305101Y25764D01*
X305454Y25588D01*
X305806Y25411D01*
X306088Y25235D01*
X306335Y25059D01*
X306371D01*
X306406Y24988D01*
X306617Y24812D01*
X306864Y24495D01*
X307181Y24107D01*
X307499Y23613D01*
X307781Y23049D01*
X307957Y22415D01*
X307992Y22062D01*
X308027Y21710D01*
Y21674D01*
Y21604D01*
Y21463D01*
X307992Y21286D01*
X307957Y21075D01*
X307922Y20828D01*
X307745Y20229D01*
X307499Y19559D01*
X307322Y19171D01*
X307111Y18819D01*
X306864Y18431D01*
X306582Y18078D01*
X306265Y17691D01*
X305877Y17338D01*
X305842Y17303D01*
X305771Y17267D01*
X305665Y17162D01*
X305489Y17056D01*
X305278Y16915D01*
X304995Y16774D01*
X304678Y16598D01*
X304326Y16421D01*
X303938Y16245D01*
X303480Y16069D01*
X303021Y15928D01*
X302457Y15787D01*
X301893Y15681D01*
X301294Y15575D01*
X300624Y15540D01*
X299919Y15505D01*
X299566D01*
X299284Y15540D01*
X298967D01*
X298579Y15575D01*
X298191Y15610D01*
X297733Y15681D01*
X296781Y15857D01*
X295794Y16069D01*
X294842Y16421D01*
X294419Y16633D01*
X293996Y16880D01*
X293961D01*
X293890Y16950D01*
X293784Y17021D01*
X293643Y17126D01*
X293291Y17479D01*
X292868Y17902D01*
X292409Y18466D01*
X291916Y19171D01*
X291493Y19947D01*
X291175Y20863D01*
X295794Y21604D01*
X295829Y21533D01*
X295900Y21357D01*
X296041Y21110D01*
X296217Y20793D01*
X296429Y20440D01*
X296675Y20088D01*
X296993Y19770D01*
X297310Y19524D01*
X297345Y19489D01*
X297486Y19418D01*
X297698Y19347D01*
X297980Y19242D01*
X298332Y19101D01*
X298755Y19030D01*
X299249Y18960D01*
X299813Y18924D01*
X300095D01*
X300377Y18960D01*
X300765Y19030D01*
X301188Y19101D01*
X301646Y19207D01*
X302069Y19383D01*
X302457Y19629D01*
X302492Y19665D01*
X302563Y19735D01*
X302669Y19841D01*
X302810Y19982D01*
X303057Y20370D01*
X303127Y20581D01*
X303162Y20863D01*
Y20899D01*
Y20934D01*
X303127Y21146D01*
X303021Y21428D01*
X302810Y21710D01*
X302775Y21745D01*
X302739Y21780D01*
X302598Y21851D01*
X302422Y21956D01*
X302140Y22097D01*
X301787Y22274D01*
X301364Y22450D01*
X300800Y22626D01*
X300765D01*
X300624Y22697D01*
X300377Y22767D01*
X300095Y22873D01*
X299778Y22979D01*
X299390Y23120D01*
X298509Y23437D01*
X297592Y23825D01*
X296711Y24177D01*
X296287Y24389D01*
X295935Y24565D01*
X295653Y24741D01*
X295406Y24883D01*
X295336Y24953D01*
X295159Y25129D01*
X294912Y25411D01*
X294631Y25799D01*
X294313Y26293D01*
X294066Y26892D01*
X293890Y27562D01*
X293855Y27915D01*
X293820Y28302D01*
Y28338D01*
Y28408D01*
Y28514D01*
X293855Y28655D01*
X293890Y29043D01*
X294031Y29536D01*
X294207Y30100D01*
X294489Y30700D01*
X294877Y31299D01*
X295089Y31616D01*
X295371Y31898D01*
X295406Y31934D01*
X295477Y32004D01*
X295618Y32110D01*
X295794Y32251D01*
X296005Y32392D01*
X296287Y32568D01*
X296605Y32780D01*
X296993Y32991D01*
X297451Y33168D01*
X297909Y33379D01*
X298438Y33555D01*
X299037Y33732D01*
X299672Y33837D01*
X300342Y33943D01*
X301082Y34014D01*
X301858Y34049D01*
X302175D01*
X302422Y34014D01*
D02*
G37*
G36*
X436709D02*
X436956D01*
X437273Y33978D01*
X437978Y33837D01*
X438789Y33661D01*
X439600Y33344D01*
X440446Y32956D01*
X440834Y32674D01*
X441186Y32392D01*
X441222Y32357D01*
X441257Y32321D01*
X441363Y32216D01*
X441468Y32110D01*
X441786Y31722D01*
X442138Y31228D01*
X442526Y30594D01*
X442879Y29853D01*
X443125Y29007D01*
X443231Y28549D01*
X443302Y28056D01*
X438754Y27597D01*
Y27668D01*
X438718Y27844D01*
X438648Y28091D01*
X438577Y28443D01*
X438437Y28796D01*
X438295Y29148D01*
X438084Y29501D01*
X437837Y29783D01*
X437802Y29818D01*
X437696Y29889D01*
X437555Y30030D01*
X437308Y30171D01*
X437026Y30277D01*
X436709Y30418D01*
X436321Y30488D01*
X435898Y30523D01*
X435651D01*
X435405Y30453D01*
X435052Y30382D01*
X434664Y30277D01*
X434241Y30065D01*
X433783Y29818D01*
X433325Y29466D01*
X433289Y29430D01*
X433113Y29290D01*
X432901Y29043D01*
X432655Y28690D01*
X432337Y28267D01*
X432055Y27738D01*
X431738Y27104D01*
X431491Y26363D01*
Y26328D01*
X431456Y26258D01*
X431421Y26152D01*
X431385Y26011D01*
X431280Y25623D01*
X431174Y25129D01*
X431068Y24530D01*
X430962Y23860D01*
X430892Y23190D01*
X430857Y22485D01*
Y22415D01*
Y22238D01*
X430892Y21956D01*
X430962Y21604D01*
X431033Y21216D01*
X431174Y20828D01*
X431350Y20440D01*
X431597Y20088D01*
X431632Y20053D01*
X431738Y19947D01*
X431914Y19806D01*
X432126Y19665D01*
X432408Y19524D01*
X432760Y19383D01*
X433113Y19277D01*
X433536Y19242D01*
X433747D01*
X433959Y19277D01*
X434241Y19347D01*
X434558Y19453D01*
X434946Y19594D01*
X435334Y19770D01*
X435722Y20053D01*
X435757Y20088D01*
X435898Y20229D01*
X436110Y20405D01*
X436356Y20687D01*
X436603Y21040D01*
X436885Y21463D01*
X437167Y21956D01*
X437414Y22556D01*
X442068Y21780D01*
Y21745D01*
X441997Y21639D01*
X441962Y21498D01*
X441856Y21286D01*
X441715Y21005D01*
X441574Y20722D01*
X441222Y20053D01*
X440728Y19277D01*
X440129Y18501D01*
X439459Y17761D01*
X438648Y17091D01*
X438613D01*
X438542Y17021D01*
X438437Y16950D01*
X438260Y16844D01*
X438049Y16739D01*
X437767Y16598D01*
X437485Y16457D01*
X437167Y16315D01*
X436392Y15998D01*
X435510Y15752D01*
X434523Y15575D01*
X433994Y15540D01*
X433430Y15505D01*
X433113D01*
X432866Y15540D01*
X432584Y15575D01*
X432267Y15610D01*
X431879Y15681D01*
X431491Y15752D01*
X430645Y15998D01*
X430187Y16174D01*
X429728Y16351D01*
X429305Y16598D01*
X428882Y16844D01*
X428459Y17162D01*
X428071Y17514D01*
X428036Y17550D01*
X428001Y17620D01*
X427895Y17726D01*
X427754Y17902D01*
X427613Y18078D01*
X427437Y18325D01*
X427261Y18642D01*
X427084Y18960D01*
X426908Y19347D01*
X426732Y19735D01*
X426555Y20194D01*
X426414Y20687D01*
X426273Y21216D01*
X426168Y21815D01*
X426132Y22415D01*
X426097Y23049D01*
Y23084D01*
Y23190D01*
Y23331D01*
X426132Y23543D01*
Y23790D01*
X426168Y24107D01*
X426203Y24424D01*
X426238Y24812D01*
X426379Y25658D01*
X426591Y26575D01*
X426908Y27527D01*
X427296Y28514D01*
Y28549D01*
X427366Y28620D01*
X427437Y28761D01*
X427507Y28937D01*
X427648Y29148D01*
X427789Y29395D01*
X428213Y29995D01*
X428706Y30629D01*
X429305Y31299D01*
X430046Y31969D01*
X430892Y32568D01*
X430927Y32603D01*
X430998Y32639D01*
X431139Y32709D01*
X431315Y32815D01*
X431562Y32921D01*
X431809Y33026D01*
X432126Y33168D01*
X432478Y33308D01*
X433254Y33591D01*
X434135Y33802D01*
X435122Y33978D01*
X436180Y34049D01*
X436497D01*
X436709Y34014D01*
D02*
G37*
G36*
X410796Y15963D02*
X406178D01*
X399550Y32357D01*
X396095Y15963D01*
X391477D01*
X396589Y40360D01*
X401207D01*
X407835Y24036D01*
X411290Y40360D01*
X415908D01*
X410796Y15963D01*
D02*
G37*
G36*
X170039D02*
X165420D01*
X158792Y32357D01*
X155337Y15963D01*
X150719D01*
X155831Y40360D01*
X160449D01*
X167077Y24036D01*
X170532Y40360D01*
X175151D01*
X170039Y15963D01*
D02*
G37*
G36*
X267978Y25552D02*
Y25482D01*
X267907Y25306D01*
X267836Y24988D01*
X267766Y24601D01*
X267625Y24107D01*
X267484Y23578D01*
X267308Y22979D01*
X267096Y22344D01*
X266638Y21005D01*
X266074Y19700D01*
X265792Y19101D01*
X265439Y18537D01*
X265087Y18008D01*
X264734Y17585D01*
X264699Y17550D01*
X264628Y17479D01*
X264523Y17408D01*
X264346Y17267D01*
X264135Y17091D01*
X263888Y16915D01*
X263571Y16739D01*
X263218Y16562D01*
X262830Y16351D01*
X262372Y16174D01*
X261878Y15998D01*
X261314Y15822D01*
X260715Y15681D01*
X260045Y15610D01*
X259340Y15540D01*
X258600Y15505D01*
X258282D01*
X258036Y15540D01*
X257754D01*
X257401Y15575D01*
X257048Y15646D01*
X256625Y15716D01*
X255779Y15892D01*
X254898Y16174D01*
X254087Y16562D01*
X253699Y16809D01*
X253347Y17091D01*
X253311Y17126D01*
X253276Y17162D01*
X253206Y17267D01*
X253065Y17373D01*
X252959Y17550D01*
X252818Y17761D01*
X252500Y18255D01*
X252183Y18889D01*
X251901Y19629D01*
X251690Y20511D01*
X251654Y21005D01*
X251619Y21498D01*
Y21533D01*
Y21604D01*
Y21710D01*
Y21886D01*
X251654Y22274D01*
X251690Y22767D01*
X256308Y23296D01*
Y23261D01*
Y23190D01*
X256273Y23049D01*
Y22873D01*
X256238Y22450D01*
Y22062D01*
Y22027D01*
Y21886D01*
X256273Y21674D01*
X256308Y21392D01*
X256379Y21110D01*
X256520Y20828D01*
X256661Y20546D01*
X256872Y20299D01*
X256907Y20264D01*
X257013Y20194D01*
X257154Y20123D01*
X257401Y20017D01*
X257683Y19876D01*
X258036Y19806D01*
X258459Y19735D01*
X258952Y19700D01*
X259128D01*
X259270Y19735D01*
X259587Y19770D01*
X260010Y19841D01*
X260468Y19982D01*
X260891Y20194D01*
X261314Y20440D01*
X261667Y20828D01*
X261702Y20863D01*
X261773Y21040D01*
X261808Y21146D01*
X261878Y21322D01*
X261984Y21533D01*
X262055Y21780D01*
X262160Y22062D01*
X262266Y22415D01*
X262372Y22803D01*
X262513Y23261D01*
X262619Y23790D01*
X262760Y24354D01*
X262936Y25024D01*
X263077Y25729D01*
X266144Y40360D01*
X271080D01*
X267978Y25552D01*
D02*
G37*
G36*
X373955Y30171D02*
X380371D01*
Y25799D01*
X373955D01*
Y19489D01*
X369689D01*
Y25799D01*
X363308D01*
Y30171D01*
X369689D01*
Y36481D01*
X373955D01*
Y30171D01*
D02*
G37*
G36*
X234626D02*
X241043D01*
Y25799D01*
X234626D01*
Y19489D01*
X230360D01*
Y25799D01*
X223979D01*
Y30171D01*
X230360D01*
Y36481D01*
X234626D01*
Y30171D01*
D02*
G37*
G36*
X286099Y15963D02*
X281621D01*
X282115Y18219D01*
X282080Y18184D01*
X282009Y18114D01*
X281833Y17973D01*
X281657Y17796D01*
X281410Y17585D01*
X281092Y17373D01*
X280775Y17126D01*
X280387Y16880D01*
X279964Y16598D01*
X279506Y16351D01*
X278519Y15928D01*
X277990Y15752D01*
X277426Y15610D01*
X276862Y15540D01*
X276262Y15505D01*
X276086D01*
X275945Y15540D01*
X275557Y15575D01*
X275099Y15646D01*
X274606Y15822D01*
X274077Y16034D01*
X273548Y16315D01*
X273090Y16739D01*
X273054Y16809D01*
X272913Y16985D01*
X272737Y17267D01*
X272526Y17655D01*
X272314Y18114D01*
X272138Y18713D01*
X271997Y19383D01*
X271961Y20123D01*
Y20158D01*
Y20299D01*
X271997Y20546D01*
X272032Y20934D01*
X272102Y21428D01*
X272173Y21710D01*
X272208Y22062D01*
X272279Y22415D01*
X272349Y22838D01*
X272455Y23296D01*
X272561Y23790D01*
X274782Y33661D01*
X279612D01*
X277250Y23120D01*
Y23084D01*
Y23049D01*
X277179Y22838D01*
X277109Y22520D01*
X277038Y22133D01*
X276968Y21745D01*
X276897Y21357D01*
X276862Y21040D01*
X276827Y20793D01*
Y20758D01*
Y20652D01*
X276862Y20511D01*
X276897Y20335D01*
X277038Y19912D01*
X277144Y19665D01*
X277320Y19453D01*
X277355Y19418D01*
X277426Y19383D01*
X277532Y19277D01*
X277673Y19207D01*
X277884Y19101D01*
X278096Y18995D01*
X278343Y18960D01*
X278625Y18924D01*
X278836D01*
X278977Y18960D01*
X279330Y19030D01*
X279718Y19171D01*
X279753D01*
X279823Y19207D01*
X279929Y19277D01*
X280070Y19347D01*
X280423Y19594D01*
X280846Y19912D01*
X280881Y19947D01*
X280951Y20017D01*
X281057Y20123D01*
X281198Y20264D01*
X281551Y20617D01*
X281903Y21075D01*
X281939Y21110D01*
X281974Y21181D01*
X282080Y21357D01*
X282185Y21533D01*
X282326Y21815D01*
X282467Y22097D01*
X282644Y22450D01*
X282785Y22838D01*
Y22873D01*
X282820Y22979D01*
X282890Y23155D01*
X282961Y23437D01*
X283067Y23754D01*
X283173Y24177D01*
X283278Y24636D01*
X283419Y25200D01*
X285323Y33661D01*
X290083D01*
X286099Y15963D01*
D02*
G37*
G36*
X451481Y27633D02*
X457756Y33661D01*
X463961D01*
X456840Y27280D01*
X460682Y15963D01*
X455888D01*
X453420Y24177D01*
X450141Y21216D01*
X449013Y15963D01*
X444289D01*
X449401Y40360D01*
X454125D01*
X451481Y27633D01*
D02*
G37*
G36*
X420668Y15963D02*
X415944D01*
X419645Y33661D01*
X424405D01*
X420668Y15963D01*
D02*
G37*
G36*
X326854D02*
X322130D01*
X325831Y33661D01*
X330591D01*
X326854Y15963D01*
D02*
G37*
G36*
X208361D02*
X203637D01*
X207339Y33661D01*
X212098D01*
X208361Y15963D01*
D02*
G37*
G36*
X191756Y27633D02*
X198031Y33661D01*
X204236D01*
X197115Y27280D01*
X200957Y15963D01*
X196163D01*
X193695Y24177D01*
X190416Y21216D01*
X189288Y15963D01*
X184564D01*
X189676Y40360D01*
X194400D01*
X191756Y27633D01*
D02*
G37*
G36*
X179910Y15963D02*
X175186D01*
X178888Y33661D01*
X183647D01*
X179910Y15963D01*
D02*
G37*
G36*
X319803Y33661D02*
X322729D01*
X321988Y30100D01*
X319062D01*
X317511Y22626D01*
Y22591D01*
Y22556D01*
X317476Y22450D01*
X317441Y22309D01*
X317370Y21992D01*
X317300Y21604D01*
X317229Y21181D01*
X317159Y20828D01*
X317123Y20511D01*
X317088Y20405D01*
Y20335D01*
Y20299D01*
Y20264D01*
X317123Y20017D01*
X317229Y19770D01*
X317405Y19489D01*
X317441D01*
X317476Y19453D01*
X317582Y19383D01*
X317687Y19347D01*
X317864Y19277D01*
X318111Y19207D01*
X318393Y19171D01*
X318886D01*
X319027Y19207D01*
X319239D01*
X319521Y19242D01*
X319873Y19277D01*
X320296Y19312D01*
X319556Y15787D01*
X319485D01*
X319344Y15752D01*
X319098Y15716D01*
X318780Y15646D01*
X318393Y15610D01*
X317969Y15540D01*
X317018Y15505D01*
X316595D01*
X316383Y15540D01*
X316171D01*
X315607Y15610D01*
X315008Y15752D01*
X314373Y15892D01*
X313809Y16139D01*
X313316Y16457D01*
X313281Y16492D01*
X313139Y16633D01*
X312963Y16880D01*
X312752Y17162D01*
X312540Y17550D01*
X312364Y18043D01*
X312223Y18572D01*
X312188Y19207D01*
Y19242D01*
Y19383D01*
X312223Y19629D01*
X312258Y19982D01*
X312293Y20229D01*
X312329Y20476D01*
X312399Y20793D01*
X312470Y21146D01*
X312540Y21533D01*
X312611Y21956D01*
X312716Y22450D01*
X312822Y22979D01*
X314338Y30100D01*
X311976D01*
X312716Y33661D01*
X315043D01*
X315607Y36481D01*
X321037Y39760D01*
X319803Y33661D01*
D02*
G37*
%LPC*%
G36*
X472757Y120290D02*
X472722D01*
X472687Y120255D01*
X472581D01*
X472440Y120220D01*
X472088Y120114D01*
X471594Y120043D01*
X471559D01*
X471453Y120008D01*
X471241D01*
X471030Y119973D01*
X470713Y119938D01*
X470395Y119867D01*
X469655Y119726D01*
X468879Y119550D01*
X468104Y119338D01*
X467751Y119197D01*
X467434Y119056D01*
X467152Y118915D01*
X466905Y118774D01*
X466870Y118739D01*
X466799Y118668D01*
X466658Y118527D01*
X466517Y118351D01*
X466376Y118104D01*
X466235Y117822D01*
X466165Y117505D01*
X466129Y117152D01*
Y117117D01*
Y117011D01*
X466165Y116870D01*
X466200Y116659D01*
X466270Y116447D01*
X466376Y116201D01*
X466517Y115954D01*
X466729Y115742D01*
X466764Y115707D01*
X466834Y115672D01*
X466976Y115566D01*
X467152Y115460D01*
X467363Y115354D01*
X467645Y115284D01*
X467963Y115213D01*
X468315Y115178D01*
X468492D01*
X468703Y115213D01*
X468950Y115249D01*
X469267Y115284D01*
X469620Y115390D01*
X469972Y115496D01*
X470325Y115672D01*
X470360Y115707D01*
X470501Y115778D01*
X470677Y115883D01*
X470889Y116060D01*
X471100Y116236D01*
X471347Y116483D01*
X471594Y116729D01*
X471770Y117047D01*
X471805Y117082D01*
X471841Y117223D01*
X471946Y117399D01*
X472052Y117681D01*
X472193Y118034D01*
X472334Y118492D01*
X472475Y119021D01*
X472616Y119620D01*
X472757Y120290D01*
D02*
G37*
G36*
X358037Y131325D02*
X352678Y121524D01*
X359482D01*
X358037Y131325D01*
D02*
G37*
G36*
X275716Y120290D02*
X275681D01*
X275646Y120255D01*
X275540D01*
X275399Y120220D01*
X275046Y120114D01*
X274553Y120043D01*
X274517D01*
X274412Y120008D01*
X274200D01*
X273989Y119973D01*
X273671Y119938D01*
X273354Y119867D01*
X272614Y119726D01*
X271838Y119550D01*
X271062Y119338D01*
X270710Y119197D01*
X270393Y119056D01*
X270110Y118915D01*
X269864Y118774D01*
X269828Y118739D01*
X269758Y118668D01*
X269617Y118527D01*
X269476Y118351D01*
X269335Y118104D01*
X269194Y117822D01*
X269123Y117505D01*
X269088Y117152D01*
Y117117D01*
Y117011D01*
X269123Y116870D01*
X269159Y116659D01*
X269229Y116447D01*
X269335Y116201D01*
X269476Y115954D01*
X269687Y115742D01*
X269723Y115707D01*
X269793Y115672D01*
X269934Y115566D01*
X270110Y115460D01*
X270322Y115354D01*
X270604Y115284D01*
X270921Y115213D01*
X271274Y115178D01*
X271450D01*
X271662Y115213D01*
X271908Y115249D01*
X272226Y115284D01*
X272578Y115390D01*
X272931Y115496D01*
X273284Y115672D01*
X273319Y115707D01*
X273460Y115778D01*
X273636Y115883D01*
X273848Y116060D01*
X274059Y116236D01*
X274306Y116483D01*
X274553Y116729D01*
X274729Y117047D01*
X274764Y117082D01*
X274799Y117223D01*
X274905Y117399D01*
X275011Y117681D01*
X275152Y118034D01*
X275293Y118492D01*
X275434Y119021D01*
X275575Y119620D01*
X275716Y120290D01*
D02*
G37*
G36*
X255444Y132418D02*
X251002D01*
X249522Y125437D01*
X252025D01*
X252412Y125473D01*
X253223Y125508D01*
X254105Y125543D01*
X254986Y125649D01*
X255374Y125719D01*
X255762Y125755D01*
X256079Y125861D01*
X256361Y125931D01*
X256432Y125966D01*
X256572Y126037D01*
X256819Y126143D01*
X257137Y126319D01*
X257454Y126530D01*
X257806Y126812D01*
X258159Y127130D01*
X258476Y127482D01*
X258512Y127517D01*
X258582Y127659D01*
X258723Y127905D01*
X258864Y128187D01*
X259005Y128540D01*
X259146Y128963D01*
X259217Y129386D01*
X259252Y129880D01*
Y129915D01*
Y130021D01*
X259217Y130197D01*
Y130408D01*
X259076Y130867D01*
X258970Y131114D01*
X258829Y131325D01*
Y131360D01*
X258758Y131431D01*
X258547Y131642D01*
X258194Y131889D01*
X257736Y132136D01*
X257701D01*
X257595Y132171D01*
X257383Y132242D01*
X257066Y132277D01*
X256678Y132347D01*
X256114Y132383D01*
X255797D01*
X255444Y132418D01*
D02*
G37*
G36*
X410814Y126707D02*
X410567D01*
X410285Y126636D01*
X409933Y126566D01*
X409510Y126425D01*
X409051Y126248D01*
X408593Y125966D01*
X408135Y125578D01*
X408099Y125543D01*
X407958Y125367D01*
X407747Y125120D01*
X407500Y124732D01*
X407253Y124274D01*
X406971Y123710D01*
X406724Y123075D01*
X406548Y122300D01*
X414058D01*
Y122335D01*
Y122476D01*
Y122617D01*
Y122758D01*
Y122793D01*
Y122829D01*
Y122934D01*
Y123075D01*
X414022Y123428D01*
X413952Y123886D01*
X413846Y124345D01*
X413670Y124838D01*
X413458Y125296D01*
X413176Y125719D01*
X413141Y125755D01*
X413000Y125861D01*
X412824Y126037D01*
X412542Y126213D01*
X412224Y126389D01*
X411801Y126566D01*
X411343Y126671D01*
X410814Y126707D01*
D02*
G37*
G36*
X325673Y90556D02*
X325637D01*
X325602Y90521D01*
X325496D01*
X325355Y90485D01*
X325003Y90380D01*
X324509Y90309D01*
X324474D01*
X324368Y90274D01*
X324157D01*
X323945Y90239D01*
X323628Y90203D01*
X323311Y90133D01*
X322570Y89992D01*
X321795Y89816D01*
X321019Y89604D01*
X320667Y89463D01*
X320349Y89322D01*
X320067Y89181D01*
X319820Y89040D01*
X319785Y89005D01*
X319715Y88934D01*
X319574Y88793D01*
X319433Y88617D01*
X319291Y88370D01*
X319151Y88088D01*
X319080Y87771D01*
X319045Y87418D01*
Y87383D01*
Y87277D01*
X319080Y87136D01*
X319115Y86925D01*
X319186Y86713D01*
X319291Y86466D01*
X319433Y86220D01*
X319644Y86008D01*
X319679Y85973D01*
X319750Y85938D01*
X319891Y85832D01*
X320067Y85726D01*
X320279Y85620D01*
X320561Y85550D01*
X320878Y85479D01*
X321231Y85444D01*
X321407D01*
X321618Y85479D01*
X321865Y85514D01*
X322182Y85550D01*
X322535Y85655D01*
X322887Y85761D01*
X323240Y85938D01*
X323275Y85973D01*
X323416Y86043D01*
X323593Y86149D01*
X323804Y86325D01*
X324016Y86502D01*
X324263Y86748D01*
X324509Y86995D01*
X324686Y87312D01*
X324721Y87348D01*
X324756Y87489D01*
X324862Y87665D01*
X324968Y87947D01*
X325109Y88300D01*
X325250Y88758D01*
X325391Y89287D01*
X325532Y89886D01*
X325673Y90556D01*
D02*
G37*
G36*
X277267Y101591D02*
X271908Y91790D01*
X278713D01*
X277267Y101591D01*
D02*
G37*
G36*
X356609Y66427D02*
X356539D01*
X356398Y66392D01*
X356151Y66357D01*
X355834Y66286D01*
X355481Y66110D01*
X355093Y65898D01*
X354705Y65616D01*
X354318Y65193D01*
Y65158D01*
X354247Y65123D01*
X354176Y64982D01*
X354071Y64841D01*
X353965Y64629D01*
X353789Y64383D01*
X353648Y64100D01*
X353471Y63748D01*
X353260Y63325D01*
X353048Y62867D01*
X352837Y62373D01*
X352625Y61774D01*
X352414Y61174D01*
X352202Y60469D01*
X351991Y59729D01*
X351779Y58918D01*
Y58883D01*
X351744Y58742D01*
X351709Y58565D01*
X351638Y58283D01*
X351568Y57966D01*
X351497Y57578D01*
X351427Y57155D01*
X351356Y56697D01*
X351180Y55674D01*
X351039Y54652D01*
X350933Y53594D01*
X350898Y52607D01*
Y52572D01*
Y52537D01*
Y52431D01*
Y52290D01*
X350933Y51937D01*
X350968Y51514D01*
X351039Y51056D01*
X351180Y50598D01*
X351321Y50175D01*
X351532Y49822D01*
X351568Y49787D01*
X351638Y49716D01*
X351779Y49575D01*
X351991Y49434D01*
X352202Y49293D01*
X352484Y49152D01*
X352837Y49082D01*
X353189Y49047D01*
X353260D01*
X353401Y49082D01*
X353683Y49117D01*
X354000Y49187D01*
X354353Y49364D01*
X354776Y49575D01*
X355164Y49857D01*
X355587Y50280D01*
Y50316D01*
X355657Y50351D01*
X355728Y50457D01*
X355834Y50633D01*
X355939Y50809D01*
X356080Y51056D01*
X356221Y51373D01*
X356398Y51726D01*
X356609Y52114D01*
X356785Y52607D01*
X356997Y53136D01*
X357209Y53735D01*
X357420Y54405D01*
X357631Y55110D01*
X357843Y55921D01*
X358055Y56803D01*
Y56838D01*
X358090Y56979D01*
X358125Y57190D01*
X358196Y57437D01*
X358266Y57755D01*
X358337Y58142D01*
X358407Y58565D01*
X358513Y59024D01*
X358654Y60011D01*
X358795Y61033D01*
X358901Y62020D01*
X358936Y62514D01*
Y62937D01*
Y62972D01*
Y63007D01*
Y63254D01*
X358901Y63572D01*
X358866Y63959D01*
X358760Y64383D01*
X358654Y64841D01*
X358478Y65229D01*
X358266Y65581D01*
X358231Y65616D01*
X358160Y65722D01*
X358019Y65863D01*
X357808Y66004D01*
X357596Y66145D01*
X357314Y66286D01*
X356962Y66392D01*
X356609Y66427D01*
D02*
G37*
G36*
X294736Y60363D02*
X294489D01*
X294207Y60293D01*
X293855Y60222D01*
X293432Y60081D01*
X292973Y59905D01*
X292515Y59623D01*
X292057Y59235D01*
X292022Y59200D01*
X291881Y59024D01*
X291669Y58777D01*
X291422Y58389D01*
X291175Y57931D01*
X290893Y57367D01*
X290647Y56732D01*
X290470Y55957D01*
X297980D01*
Y55992D01*
Y56133D01*
Y56274D01*
Y56415D01*
Y56450D01*
Y56485D01*
Y56591D01*
Y56732D01*
X297945Y57085D01*
X297874Y57543D01*
X297768Y58001D01*
X297592Y58495D01*
X297380Y58953D01*
X297098Y59376D01*
X297063Y59412D01*
X296922Y59517D01*
X296746Y59693D01*
X296464Y59870D01*
X296147Y60046D01*
X295723Y60222D01*
X295265Y60328D01*
X294736Y60363D01*
D02*
G37*
%LPD*%
D10*
X0Y0D02*
X2032000D01*
X0Y1016000D02*
X2032000D01*
Y0D02*
Y1016000D01*
X0Y0D02*
Y1016000D01*
M02*
