G04 AWR Design Environment 17.01 *
G04 RS274-X Output Version 0.1 *
%FSLAX36Y36*%
%MOMM*%
%ADD10C,.010*%

%LPD*%
G36*
X51048266Y38388200D02*
G01*
X51049200D01*
Y100038200D01*
X51068950Y100263943D01*
X51127600Y100482826D01*
X51223367Y100688200D01*
X51353342Y100873824D01*
X51513576Y101034058D01*
X51699200Y101164033D01*
X51904574Y101259800D01*
X52123457Y101318450D01*
X52349200Y101338200D01*
X58049200D01*
Y89938200D01*
X58050965D01*
X58060299Y89736317D01*
X58089012Y89530485D01*
X58136593Y89328179D01*
X58202638Y89131127D01*
X58286584Y88941010D01*
X58387712Y88759449D01*
X58505162Y88587993D01*
X58637931Y88428106D01*
X58784886Y88281151D01*
X58944773Y88148382D01*
X59116229Y88030932D01*
X59297790Y87929804D01*
X59487907Y87845858D01*
X59684959Y87779813D01*
X59887265Y87732232D01*
X60093097Y87703519D01*
X60300701Y87693921D01*
X71700701D01*
Y76082121D01*
X90699901D01*
Y99805721D01*
X71700701D01*
Y88193921D01*
X60300701D01*
X60139231Y88201386D01*
X59979139Y88223718D01*
X59821791Y88260726D01*
X59668528Y88312095D01*
X59520659Y88377385D01*
X59379445Y88456041D01*
X59246090Y88547391D01*
X59121734Y88650655D01*
X59007435Y88764954D01*
X58904171Y88889310D01*
X58812821Y89022665D01*
X58734165Y89163879D01*
X58668875Y89311748D01*
X58617506Y89465011D01*
X58580498Y89622359D01*
X58558166Y89782451D01*
X58550701Y89943921D01*
X58549200D01*
Y114138200D01*
X58556665Y114299670D01*
X58578997Y114459762D01*
X58616005Y114617110D01*
X58667374Y114770373D01*
X58732664Y114918242D01*
X58811320Y115059456D01*
X58902670Y115192811D01*
X59005934Y115317167D01*
X59120233Y115431466D01*
X59244589Y115534730D01*
X59377944Y115626080D01*
X59519158Y115704736D01*
X59667027Y115770026D01*
X59820290Y115821395D01*
X59977638Y115858403D01*
X60137730Y115880735D01*
X60299200Y115888200D01*
X71699200D01*
Y104276400D01*
X90698400D01*
Y128000000D01*
X71699200D01*
Y116388200D01*
X60299200D01*
X60091596Y116378602D01*
X59885764Y116349889D01*
X59683458Y116302308D01*
X59486406Y116236263D01*
X59296289Y116152317D01*
X59114728Y116051189D01*
X58943272Y115933739D01*
X58783385Y115800970D01*
X58636430Y115654015D01*
X58503661Y115494128D01*
X58386211Y115322672D01*
X58285083Y115141111D01*
X58201137Y114950994D01*
X58135092Y114753942D01*
X58087511Y114551636D01*
X58058798Y114345804D01*
X58049200Y114138200D01*
Y102738200D01*
X52349200D01*
X52113879Y102727926D01*
X51880350Y102697181D01*
X51650389Y102646200D01*
X51425746Y102575370D01*
X51208131Y102485231D01*
X50999200Y102376469D01*
X50800544Y102249911D01*
X50613673Y102106520D01*
X50440012Y101947388D01*
X50280880Y101773727D01*
X50137489Y101586856D01*
X50010931Y101388200D01*
X49902169Y101179269D01*
X49812030Y100961654D01*
X49741200Y100737011D01*
X49690219Y100507050D01*
X49659474Y100273521D01*
X49649200Y100038200D01*
Y71538200D01*
X38249200D01*
Y71788200D01*
X38785266Y73788826D01*
X38526591Y73846173D01*
X38263903Y73880756D01*
X37999200Y73892313D01*
X37734497Y73880756D01*
X37471809Y73846173D01*
X37213134Y73788826D01*
X37749200Y71788200D01*
Y71225498D01*
X26349200D01*
Y67525498D01*
X37749200D01*
Y66638200D01*
X37213134Y64637574D01*
X37471809Y64580227D01*
X37734497Y64545644D01*
X37999200Y64534087D01*
X38263903Y64545644D01*
X38526591Y64580227D01*
X38785266Y64637574D01*
X38249200Y66638200D01*
Y66888200D01*
X49649200D01*
Y38389792D01*
X49648127D01*
X49658401Y38154471D01*
X49689146Y37920942D01*
X49740127Y37690981D01*
X49810957Y37466338D01*
X49901096Y37248723D01*
X50009858Y37039792D01*
X50136416Y36841136D01*
X50279807Y36654265D01*
X50438939Y36480604D01*
X50612600Y36321472D01*
X50799471Y36178081D01*
X50998127Y36051523D01*
X51207058Y35942761D01*
X51424673Y35852622D01*
X51649316Y35781792D01*
X51879277Y35730811D01*
X52112806Y35700066D01*
X52348127Y35689792D01*
X58048127D01*
Y24489792D01*
X58057725Y24282188D01*
X58086438Y24076356D01*
X58134019Y23874050D01*
X58200064Y23676998D01*
X58284010Y23486881D01*
X58385138Y23305320D01*
X58502588Y23133864D01*
X58635357Y22973977D01*
X58782312Y22827022D01*
X58942199Y22694253D01*
X59113655Y22576803D01*
X59295216Y22475675D01*
X59485333Y22391729D01*
X59682385Y22325684D01*
X59884691Y22278103D01*
X60090523Y22249390D01*
X60298127Y22239792D01*
X71698127D01*
Y10627992D01*
X90697327D01*
Y34351592D01*
X71698127D01*
Y22739792D01*
X60298127D01*
X60136657Y22747257D01*
X59976565Y22769589D01*
X59819217Y22806597D01*
X59665954Y22857966D01*
X59518085Y22923256D01*
X59376871Y23001912D01*
X59243516Y23093262D01*
X59119160Y23196526D01*
X59004861Y23310825D01*
X58901597Y23435181D01*
X58810247Y23568536D01*
X58731591Y23709750D01*
X58666301Y23857619D01*
X58614932Y24010882D01*
X58577924Y24168230D01*
X58555592Y24328322D01*
X58548127Y24489792D01*
Y36889792D01*
X58541125D01*
Y48282113D01*
X58548590Y48443583D01*
X58570922Y48603675D01*
X58607930Y48761023D01*
X58659299Y48914286D01*
X58724589Y49062155D01*
X58803245Y49203369D01*
X58894595Y49336724D01*
X58997859Y49461080D01*
X59112158Y49575379D01*
X59236514Y49678643D01*
X59369869Y49769993D01*
X59511083Y49848649D01*
X59658952Y49913939D01*
X59812215Y49965308D01*
X59969563Y50002316D01*
X60129655Y50024648D01*
X60291125Y50032113D01*
X71691125D01*
Y38420313D01*
X90690325D01*
Y62143913D01*
X71691125D01*
Y50532113D01*
X60291125D01*
X60083521Y50522515D01*
X59877689Y50493802D01*
X59675383Y50446221D01*
X59478331Y50380176D01*
X59288214Y50296230D01*
X59106653Y50195102D01*
X58935197Y50077652D01*
X58775310Y49944883D01*
X58628355Y49797928D01*
X58495586Y49638041D01*
X58378136Y49466585D01*
X58277008Y49285024D01*
X58193062Y49094907D01*
X58127017Y48897855D01*
X58079436Y48695549D01*
X58050723Y48489717D01*
X58041125Y48282113D01*
Y37089792D01*
X52348127D01*
X52122384Y37109542D01*
X51903501Y37168192D01*
X51698127Y37263959D01*
X51512503Y37393934D01*
X51352269Y37554168D01*
X51222294Y37739792D01*
X51126527Y37945166D01*
X51067877Y38164049D01*
X51048266Y38388200D01*
G37*
G04 End of Data *
M02*
