G04*
G04 #@! TF.GenerationSoftware,Altium Limited,Altium Designer,22.3.1 (43)*
G04*
G04 Layer_Physical_Order=1*
G04 Layer_Color=255*
%FSLAX44Y44*%
%MOMM*%
G71*
G04*
G04 #@! TF.SameCoordinates,7BE27A0F-F62A-4EE9-9C34-0242F132D8CE*
G04*
G04*
G04 #@! TF.FilePolarity,Positive*
G04*
G01*
G75*
%ADD10C,0.2540*%
G36*
X947368Y491602D02*
X831250D01*
Y377602D01*
X831154Y375526D01*
X830867Y373468D01*
X830391Y371445D01*
X829731Y369474D01*
X828891Y367573D01*
X827880Y365757D01*
X826705Y364043D01*
X825378Y362444D01*
X823908Y360974D01*
X822309Y359647D01*
X820595Y358472D01*
X818779Y357461D01*
X816878Y356621D01*
X814907Y355961D01*
X812884Y355485D01*
X810826Y355198D01*
X808750Y355100D01*
X694750D01*
Y298100D01*
X694948Y295843D01*
X695534Y293654D01*
X696492Y291600D01*
X697791Y289744D01*
X699394Y288141D01*
X701250Y286842D01*
X703304Y285884D01*
X705493Y285298D01*
X707750Y285100D01*
X1324245D01*
X1326497Y285297D01*
X1328686Y285884D01*
X1330740Y286841D01*
X1332596Y288141D01*
X1334198Y289743D01*
X1335498Y291600D01*
X1336456Y293653D01*
X1337042Y295842D01*
X1337240Y298100D01*
Y355099D01*
X1225241Y355097D01*
X1223165Y355193D01*
X1221106Y355480D01*
X1219083Y355956D01*
X1217113Y356617D01*
X1215212Y357456D01*
X1213396Y358467D01*
X1211682Y359642D01*
X1210083Y360970D01*
X1208613Y362439D01*
X1207285Y364038D01*
X1206111Y365752D01*
X1205100Y367568D01*
X1204260Y369469D01*
X1203600Y371440D01*
X1203124Y373463D01*
X1202837Y375521D01*
X1202741Y377597D01*
Y491597D01*
X1086623D01*
Y681589D01*
X1323859D01*
Y491597D01*
X1207741D01*
Y377597D01*
X1207815Y375983D01*
X1208039Y374381D01*
X1208409Y372808D01*
X1208923Y371275D01*
X1209575Y369797D01*
X1210362Y368385D01*
X1211275Y367051D01*
X1212308Y365807D01*
X1213451Y364664D01*
X1214695Y363632D01*
X1216028Y362718D01*
X1217440Y361932D01*
X1218919Y361279D01*
X1220452Y360765D01*
X1222025Y360395D01*
X1223626Y360172D01*
X1225240Y360099D01*
X1463240D01*
X1464854Y360174D01*
X1466455Y360397D01*
X1468029Y360768D01*
X1469561Y361281D01*
X1471040Y361934D01*
X1472452Y362721D01*
X1473786Y363634D01*
X1475029Y364667D01*
X1476172Y365810D01*
X1477205Y367053D01*
X1478118Y368387D01*
X1478905Y369799D01*
X1479558Y371278D01*
X1480072Y372811D01*
X1480442Y374384D01*
X1480665Y375985D01*
X1480740Y377599D01*
Y491600D01*
X1364622D01*
Y681592D01*
X1601858D01*
Y491600D01*
X1485740D01*
Y377599D01*
X1485644Y375523D01*
X1485357Y373465D01*
X1484881Y371442D01*
X1484220Y369472D01*
X1483381Y367570D01*
X1482370Y365755D01*
X1481195Y364040D01*
X1479867Y362441D01*
X1478398Y360972D01*
X1476799Y359644D01*
X1475084Y358470D01*
X1473269Y357458D01*
X1471368Y356619D01*
X1469397Y355959D01*
X1467374Y355483D01*
X1465316Y355196D01*
X1463240Y355099D01*
X1351240D01*
Y298100D01*
X1351137Y295746D01*
X1350829Y293411D01*
X1350320Y291111D01*
X1349611Y288865D01*
X1348710Y286689D01*
X1347622Y284599D01*
X1346357Y282613D01*
X1344923Y280744D01*
X1343332Y279008D01*
X1341595Y277416D01*
X1339726Y275982D01*
X1337740Y274717D01*
X1335650Y273629D01*
X1333474Y272728D01*
X1331228Y272020D01*
X1328928Y271510D01*
X1326593Y271202D01*
X1324250Y271100D01*
X1039250D01*
Y157100D01*
X1041750D01*
X1060869Y162223D01*
X1061955Y161564D01*
X1062330Y159874D01*
X1062676Y157247D01*
X1062791Y154600D01*
X1062676Y151953D01*
X1062330Y149326D01*
X1061955Y147636D01*
X1060869Y146977D01*
X1041750Y152100D01*
X1034550D01*
Y38100D01*
X1033352D01*
X1034026Y37023D01*
X1016669Y1375D01*
X1015331D01*
X997974Y37023D01*
X998648Y38100D01*
X997450D01*
Y152100D01*
X990250D01*
X971131Y146977D01*
X970045Y147636D01*
X969670Y149326D01*
X969324Y151953D01*
X969209Y154600D01*
X969324Y157247D01*
X969670Y159874D01*
X970045Y161564D01*
X971131Y162223D01*
X990250Y157100D01*
X992750D01*
Y271100D01*
X707750D01*
X705397Y271203D01*
X703062Y271510D01*
X700762Y272020D01*
X698515Y272728D01*
X696339Y273630D01*
X694250Y274717D01*
X692263Y275983D01*
X690395Y277417D01*
X688658Y279008D01*
X687067Y280745D01*
X685633Y282613D01*
X684367Y284600D01*
X683280Y286689D01*
X682378Y288866D01*
X681670Y291112D01*
X681160Y293412D01*
X680853Y295747D01*
X680750Y298100D01*
Y355100D01*
X566750D01*
X564674Y355196D01*
X562616Y355483D01*
X560593Y355959D01*
X558622Y356619D01*
X556721Y357459D01*
X554905Y358470D01*
X553191Y359645D01*
X551592Y360972D01*
X550122Y362442D01*
X548795Y364041D01*
X547620Y365755D01*
X546609Y367571D01*
X545769Y369472D01*
X545109Y371443D01*
X544633Y373466D01*
X544346Y375524D01*
X544250Y377600D01*
Y491600D01*
X428132D01*
Y681592D01*
X665368D01*
Y491600D01*
X549250D01*
Y377600D01*
X549325Y375985D01*
X549548Y374384D01*
X549918Y372811D01*
X550432Y371278D01*
X551085Y369800D01*
X551871Y368387D01*
X552785Y367054D01*
X553817Y365810D01*
X554960Y364667D01*
X556204Y363635D01*
X557537Y362721D01*
X558950Y361935D01*
X560428Y361282D01*
X561961Y360768D01*
X563534Y360398D01*
X565135Y360175D01*
X566750Y360100D01*
X808750Y360102D01*
X810365Y360177D01*
X811966Y360400D01*
X813539Y360770D01*
X815072Y361284D01*
X816550Y361937D01*
X817963Y362723D01*
X819296Y363637D01*
X820540Y364669D01*
X821683Y365812D01*
X822715Y367056D01*
X823629Y368390D01*
X824415Y369802D01*
X825068Y371280D01*
X825582Y372813D01*
X825952Y374386D01*
X826175Y375987D01*
X826250Y377602D01*
Y491602D01*
X710132D01*
Y681594D01*
X947368D01*
Y491602D01*
D02*
G37*
G36*
X2030625Y1375D02*
X1270000D01*
Y127000D01*
X1651000D01*
X1778000Y254000D01*
Y762000D01*
X1651000Y889000D01*
X381000D01*
X254000Y762000D01*
Y254000D01*
X406400Y127000D01*
X762000D01*
Y1375D01*
X368300D01*
Y879D01*
X0D01*
Y45678D01*
Y75554D01*
Y112022D01*
Y152400D01*
X1375D01*
Y1014625D01*
X2030625D01*
Y1375D01*
D02*
G37*
%LPC*%
G36*
X56491Y137335D02*
X56068D01*
X55292Y137300D01*
X54552Y137229D01*
X53811Y137123D01*
X53142Y136982D01*
X52472Y136841D01*
X51873Y136630D01*
X51308Y136453D01*
X50815Y136242D01*
X50321Y136030D01*
X49934Y135854D01*
X49546Y135643D01*
X49264Y135502D01*
X49017Y135360D01*
X48840Y135255D01*
X48735Y135184D01*
X48699Y135149D01*
X48135Y134726D01*
X47607Y134268D01*
X46655Y133280D01*
X46196Y132752D01*
X45809Y132258D01*
X45456Y131764D01*
X45139Y131271D01*
X44857Y130813D01*
X44610Y130390D01*
X44398Y130037D01*
X44222Y129684D01*
X44081Y129438D01*
X43975Y129226D01*
X43940Y129085D01*
X43905Y129050D01*
X43446Y127816D01*
X43094Y126582D01*
X42847Y125419D01*
X42741Y124890D01*
X42671Y124396D01*
X42600Y123903D01*
X42565Y123479D01*
X42530Y123127D01*
Y122774D01*
X42495Y122528D01*
Y122175D01*
X42530Y121223D01*
X42636Y120307D01*
X42812Y119460D01*
X43023Y118650D01*
X43270Y117944D01*
X43517Y117275D01*
X43834Y116675D01*
X44152Y116111D01*
X44434Y115653D01*
X44751Y115230D01*
X44998Y114877D01*
X45280Y114595D01*
X45456Y114348D01*
X45632Y114207D01*
X45738Y114102D01*
X45773Y114066D01*
X46267Y113714D01*
X46761Y113397D01*
X47325Y113115D01*
X47889Y112903D01*
X48453Y112691D01*
X49052Y112515D01*
X50145Y112268D01*
X50674Y112198D01*
X51167Y112127D01*
X51590Y112092D01*
X51978Y112057D01*
X52296Y112022D01*
X52719D01*
X53811Y112057D01*
X54834Y112163D01*
X55821Y112304D01*
X56667Y112445D01*
X57055Y112515D01*
X57408Y112586D01*
X57690Y112656D01*
X57936Y112727D01*
X58148Y112797D01*
X58289Y112832D01*
X58395Y112868D01*
X58430D01*
X59452Y113220D01*
X60369Y113573D01*
X61180Y113925D01*
X61885Y114243D01*
X62167Y114419D01*
X62414Y114560D01*
X62661Y114666D01*
X62837Y114771D01*
X62978Y114877D01*
X63119Y114913D01*
X63154Y114983D01*
X63189D01*
X65375Y125524D01*
X54481D01*
X53635Y121435D01*
X59875D01*
X59100Y117768D01*
X58606Y117557D01*
X58113Y117345D01*
X57619Y117134D01*
X57161Y116993D01*
X56773Y116852D01*
X56456Y116746D01*
X56244Y116711D01*
X56209Y116675D01*
X56174D01*
X55539Y116534D01*
X54940Y116428D01*
X54376Y116323D01*
X53882Y116287D01*
X53459Y116252D01*
X53142Y116217D01*
X52860D01*
X51908Y116287D01*
X51062Y116428D01*
X50356Y116675D01*
X49792Y116957D01*
X49334Y117204D01*
X48982Y117451D01*
X48805Y117592D01*
X48735Y117662D01*
X48488Y117944D01*
X48277Y118297D01*
X47924Y119002D01*
X47712Y119778D01*
X47536Y120518D01*
X47430Y121188D01*
X47395Y121470D01*
Y121752D01*
X47360Y121964D01*
Y122105D01*
Y122210D01*
Y122246D01*
X47395Y123409D01*
X47536Y124467D01*
X47712Y125454D01*
X47818Y125912D01*
X47924Y126300D01*
X48030Y126688D01*
X48135Y127040D01*
X48241Y127322D01*
X48312Y127569D01*
X48382Y127781D01*
X48453Y127922D01*
X48488Y127992D01*
Y128027D01*
X48946Y128979D01*
X49475Y129790D01*
X50004Y130460D01*
X50497Y131024D01*
X50956Y131447D01*
X51344Y131729D01*
X51485Y131835D01*
X51590Y131905D01*
X51626Y131976D01*
X51661D01*
X52437Y132399D01*
X53212Y132716D01*
X53952Y132963D01*
X54658Y133104D01*
X55222Y133210D01*
X55469Y133245D01*
X55715D01*
X55856Y133280D01*
X56103D01*
X56844Y133245D01*
X57513Y133104D01*
X58113Y132963D01*
X58606Y132752D01*
X59029Y132575D01*
X59311Y132399D01*
X59488Y132258D01*
X59558Y132223D01*
X60052Y131800D01*
X60440Y131306D01*
X60792Y130777D01*
X61074Y130284D01*
X61286Y129825D01*
X61462Y129473D01*
X61497Y129332D01*
X61532Y129226D01*
X61568Y129156D01*
Y129120D01*
X66257Y129649D01*
X66080Y130319D01*
X65869Y130954D01*
X65622Y131553D01*
X65375Y132117D01*
X65093Y132646D01*
X64811Y133104D01*
X64529Y133527D01*
X64247Y133915D01*
X63965Y134232D01*
X63683Y134550D01*
X63471Y134796D01*
X63260Y135008D01*
X63084Y135149D01*
X62943Y135255D01*
X62872Y135325D01*
X62837Y135360D01*
X62343Y135713D01*
X61814Y136030D01*
X61286Y136277D01*
X60722Y136489D01*
X59593Y136841D01*
X58500Y137088D01*
X58007Y137159D01*
X57549Y137229D01*
X57126Y137264D01*
X56773Y137300D01*
X56491Y137335D01*
D02*
G37*
G36*
X331834Y130566D02*
X331623D01*
X331023Y130531D01*
X330459Y130460D01*
X329930Y130354D01*
X329472Y130248D01*
X329084Y130143D01*
X328767Y130037D01*
X328591Y129966D01*
X328520Y129931D01*
X327956Y129649D01*
X327392Y129332D01*
X326863Y128979D01*
X326370Y128662D01*
X325946Y128345D01*
X325594Y128098D01*
X325382Y127922D01*
X325347Y127851D01*
X325312D01*
X325770Y130178D01*
X321258D01*
X317556Y112480D01*
X322280D01*
X323796Y119707D01*
X323937Y120271D01*
X324043Y120800D01*
X324184Y121294D01*
X324289Y121717D01*
X324395Y122105D01*
X324501Y122457D01*
X324607Y122739D01*
X324677Y123021D01*
X324748Y123233D01*
X324818Y123444D01*
X324924Y123726D01*
X324995Y123903D01*
X325030Y123938D01*
X325347Y124467D01*
X325664Y124925D01*
X326017Y125313D01*
X326334Y125630D01*
X326616Y125912D01*
X326863Y126088D01*
X327004Y126229D01*
X327075Y126265D01*
X327568Y126547D01*
X327991Y126758D01*
X328379Y126934D01*
X328732Y127040D01*
X329049Y127111D01*
X329260Y127146D01*
X329437D01*
X329789Y127111D01*
X330107Y127076D01*
X330353Y126970D01*
X330565Y126899D01*
X330741Y126793D01*
X330847Y126688D01*
X330917Y126652D01*
X330953Y126617D01*
X331129Y126406D01*
X331270Y126159D01*
X331376Y125912D01*
X331446Y125701D01*
X331482Y125489D01*
X331517Y125313D01*
Y125207D01*
Y125172D01*
Y125066D01*
X331482Y124925D01*
X331411Y124572D01*
X331340Y124114D01*
X331270Y123656D01*
X331164Y123233D01*
X331094Y122845D01*
X331058Y122704D01*
Y122598D01*
X331023Y122528D01*
Y122492D01*
X328873Y112480D01*
X333597D01*
X335747Y122457D01*
X335853Y122915D01*
X335959Y123338D01*
X336029Y123726D01*
X336100Y124079D01*
X336206Y124713D01*
X336276Y125172D01*
X336347Y125560D01*
X336382Y125806D01*
Y125983D01*
X336311Y126723D01*
X336170Y127358D01*
X335994Y127922D01*
X335747Y128415D01*
X335501Y128803D01*
X335324Y129085D01*
X335183Y129226D01*
X335113Y129297D01*
X334584Y129720D01*
X334020Y130037D01*
X333456Y130248D01*
X332892Y130425D01*
X332398Y130495D01*
X331975Y130531D01*
X331834Y130566D01*
D02*
G37*
G36*
X310998D02*
X310787D01*
X310187Y130531D01*
X309623Y130460D01*
X309094Y130354D01*
X308636Y130248D01*
X308248Y130143D01*
X307931Y130037D01*
X307755Y129966D01*
X307684Y129931D01*
X307120Y129649D01*
X306556Y129332D01*
X306027Y128979D01*
X305534Y128662D01*
X305111Y128345D01*
X304758Y128098D01*
X304547Y127922D01*
X304511Y127851D01*
X304476D01*
X304934Y130178D01*
X300422D01*
X296720Y112480D01*
X301444D01*
X302960Y119707D01*
X303101Y120271D01*
X303207Y120800D01*
X303348Y121294D01*
X303454Y121717D01*
X303559Y122105D01*
X303665Y122457D01*
X303771Y122739D01*
X303841Y123021D01*
X303912Y123233D01*
X303982Y123444D01*
X304088Y123726D01*
X304159Y123903D01*
X304194Y123938D01*
X304511Y124467D01*
X304828Y124925D01*
X305181Y125313D01*
X305498Y125630D01*
X305780Y125912D01*
X306027Y126088D01*
X306168Y126229D01*
X306239Y126265D01*
X306732Y126547D01*
X307155Y126758D01*
X307543Y126934D01*
X307896Y127040D01*
X308213Y127111D01*
X308425Y127146D01*
X308601D01*
X308953Y127111D01*
X309271Y127076D01*
X309517Y126970D01*
X309729Y126899D01*
X309905Y126793D01*
X310011Y126688D01*
X310082Y126652D01*
X310117Y126617D01*
X310293Y126406D01*
X310434Y126159D01*
X310540Y125912D01*
X310610Y125701D01*
X310646Y125489D01*
X310681Y125313D01*
Y125207D01*
Y125172D01*
Y125066D01*
X310646Y124925D01*
X310575Y124572D01*
X310505Y124114D01*
X310434Y123656D01*
X310328Y123233D01*
X310258Y122845D01*
X310223Y122704D01*
Y122598D01*
X310187Y122528D01*
Y122492D01*
X308037Y112480D01*
X312761D01*
X314911Y122457D01*
X315017Y122915D01*
X315123Y123338D01*
X315194Y123726D01*
X315264Y124079D01*
X315370Y124713D01*
X315440Y125172D01*
X315511Y125560D01*
X315546Y125806D01*
Y125983D01*
X315476Y126723D01*
X315335Y127358D01*
X315158Y127922D01*
X314911Y128415D01*
X314665Y128803D01*
X314489Y129085D01*
X314347Y129226D01*
X314277Y129297D01*
X313748Y129720D01*
X313184Y130037D01*
X312620Y130248D01*
X312056Y130425D01*
X311562Y130495D01*
X311139Y130531D01*
X310998Y130566D01*
D02*
G37*
G36*
X259843D02*
X259631D01*
X259032Y130531D01*
X258468Y130460D01*
X257939Y130354D01*
X257481Y130248D01*
X257093Y130143D01*
X256776Y130037D01*
X256599Y129966D01*
X256529Y129931D01*
X255965Y129649D01*
X255401Y129332D01*
X254872Y128979D01*
X254378Y128662D01*
X253955Y128345D01*
X253603Y128098D01*
X253391Y127922D01*
X253356Y127851D01*
X253321D01*
X253779Y130178D01*
X249266D01*
X245565Y112480D01*
X250289D01*
X251805Y119707D01*
X251946Y120271D01*
X252052Y120800D01*
X252192Y121294D01*
X252298Y121717D01*
X252404Y122105D01*
X252510Y122457D01*
X252616Y122739D01*
X252686Y123021D01*
X252757Y123233D01*
X252827Y123444D01*
X252933Y123726D01*
X253003Y123903D01*
X253039Y123938D01*
X253356Y124467D01*
X253673Y124925D01*
X254026Y125313D01*
X254343Y125630D01*
X254625Y125912D01*
X254872Y126088D01*
X255013Y126229D01*
X255084Y126265D01*
X255577Y126547D01*
X256000Y126758D01*
X256388Y126934D01*
X256740Y127040D01*
X257058Y127111D01*
X257269Y127146D01*
X257446D01*
X257798Y127111D01*
X258115Y127076D01*
X258362Y126970D01*
X258574Y126899D01*
X258750Y126793D01*
X258856Y126688D01*
X258926Y126652D01*
X258962Y126617D01*
X259138Y126406D01*
X259279Y126159D01*
X259385Y125912D01*
X259455Y125701D01*
X259490Y125489D01*
X259526Y125313D01*
Y125207D01*
Y125172D01*
Y125066D01*
X259490Y124925D01*
X259420Y124572D01*
X259349Y124114D01*
X259279Y123656D01*
X259173Y123233D01*
X259103Y122845D01*
X259067Y122704D01*
Y122598D01*
X259032Y122528D01*
Y122492D01*
X256882Y112480D01*
X261606D01*
X263756Y122457D01*
X263862Y122915D01*
X263968Y123338D01*
X264038Y123726D01*
X264109Y124079D01*
X264215Y124713D01*
X264285Y125172D01*
X264356Y125560D01*
X264391Y125806D01*
Y125983D01*
X264320Y126723D01*
X264179Y127358D01*
X264003Y127922D01*
X263756Y128415D01*
X263510Y128803D01*
X263333Y129085D01*
X263192Y129226D01*
X263122Y129297D01*
X262593Y129720D01*
X262029Y130037D01*
X261465Y130248D01*
X260901Y130425D01*
X260407Y130495D01*
X259984Y130531D01*
X259843Y130566D01*
D02*
G37*
G36*
X92063Y136876D02*
X87057D01*
X85083Y127463D01*
X75599D01*
X77573Y136876D01*
X72567D01*
X67455Y112480D01*
X72426D01*
X74718Y123374D01*
X84201D01*
X81945Y112480D01*
X86916D01*
X92063Y136876D01*
D02*
G37*
G36*
X182669Y130566D02*
X182352D01*
X181294Y130495D01*
X180307Y130319D01*
X179426Y130107D01*
X178650Y129825D01*
X178298Y129684D01*
X177980Y129543D01*
X177734Y129438D01*
X177487Y129332D01*
X177311Y129226D01*
X177169Y129156D01*
X177099Y129120D01*
X177064Y129085D01*
X176218Y128486D01*
X175477Y127816D01*
X174878Y127146D01*
X174384Y126511D01*
X173961Y125912D01*
X173820Y125665D01*
X173679Y125454D01*
X173609Y125278D01*
X173538Y125136D01*
X173468Y125066D01*
Y125031D01*
X173080Y124044D01*
X172763Y123092D01*
X172551Y122175D01*
X172410Y121329D01*
X172375Y120941D01*
X172339Y120624D01*
X172304Y120307D01*
Y120060D01*
X172269Y119848D01*
Y119566D01*
X172304Y118932D01*
X172339Y118332D01*
X172445Y117733D01*
X172586Y117204D01*
X172727Y116711D01*
X172904Y116252D01*
X173080Y115864D01*
X173256Y115477D01*
X173432Y115159D01*
X173609Y114842D01*
X173785Y114595D01*
X173926Y114419D01*
X174067Y114243D01*
X174173Y114137D01*
X174208Y114066D01*
X174243Y114031D01*
X174631Y113679D01*
X175054Y113361D01*
X175477Y113115D01*
X175900Y112868D01*
X176359Y112691D01*
X176817Y112515D01*
X177663Y112268D01*
X178051Y112198D01*
X178439Y112127D01*
X178756Y112092D01*
X179038Y112057D01*
X179285Y112022D01*
X179602D01*
X180166Y112057D01*
X180695Y112092D01*
X181682Y112268D01*
X182563Y112515D01*
X183339Y112832D01*
X183656Y112973D01*
X183939Y113115D01*
X184221Y113256D01*
X184432Y113361D01*
X184608Y113467D01*
X184714Y113538D01*
X184785Y113608D01*
X184820D01*
X185631Y114278D01*
X186301Y115018D01*
X186900Y115794D01*
X187393Y116569D01*
X187746Y117239D01*
X187887Y117521D01*
X188028Y117803D01*
X188134Y118015D01*
X188169Y118156D01*
X188240Y118262D01*
Y118297D01*
X183586Y119073D01*
X183339Y118473D01*
X183057Y117980D01*
X182775Y117557D01*
X182528Y117204D01*
X182281Y116922D01*
X182070Y116746D01*
X181929Y116605D01*
X181894Y116569D01*
X181506Y116287D01*
X181118Y116111D01*
X180730Y115970D01*
X180413Y115864D01*
X180131Y115794D01*
X179919Y115759D01*
X179708D01*
X179285Y115794D01*
X178932Y115900D01*
X178580Y116041D01*
X178298Y116182D01*
X178086Y116323D01*
X177910Y116464D01*
X177804Y116569D01*
X177769Y116605D01*
X177522Y116957D01*
X177346Y117345D01*
X177205Y117733D01*
X177134Y118121D01*
X177064Y118473D01*
X177028Y118755D01*
Y118932D01*
Y119002D01*
X177064Y119707D01*
X177134Y120377D01*
X177240Y121047D01*
X177346Y121646D01*
X177451Y122140D01*
X177557Y122528D01*
X177593Y122669D01*
X177628Y122774D01*
X177663Y122845D01*
Y122880D01*
X177910Y123621D01*
X178227Y124255D01*
X178509Y124784D01*
X178827Y125207D01*
X179073Y125560D01*
X179285Y125806D01*
X179461Y125947D01*
X179496Y125983D01*
X179955Y126335D01*
X180413Y126582D01*
X180836Y126793D01*
X181224Y126899D01*
X181576Y126970D01*
X181823Y127040D01*
X182070D01*
X182493Y127005D01*
X182881Y126934D01*
X183198Y126793D01*
X183480Y126688D01*
X183727Y126547D01*
X183868Y126406D01*
X183974Y126335D01*
X184009Y126300D01*
X184256Y126018D01*
X184467Y125665D01*
X184608Y125313D01*
X184749Y124960D01*
X184820Y124608D01*
X184890Y124361D01*
X184926Y124185D01*
Y124114D01*
X189473Y124572D01*
X189403Y125066D01*
X189297Y125524D01*
X189051Y126370D01*
X188698Y127111D01*
X188310Y127745D01*
X187958Y128239D01*
X187640Y128627D01*
X187535Y128733D01*
X187429Y128838D01*
X187393Y128874D01*
X187358Y128909D01*
X187006Y129191D01*
X186618Y129473D01*
X185772Y129861D01*
X184961Y130178D01*
X184150Y130354D01*
X183445Y130495D01*
X183128Y130531D01*
X182881D01*
X182669Y130566D01*
D02*
G37*
G36*
X30755Y136559D02*
X18451D01*
X14749Y124044D01*
X18662Y123762D01*
X18979Y124079D01*
X19261Y124326D01*
X19543Y124572D01*
X19790Y124749D01*
X20002Y124890D01*
X20178Y124995D01*
X20284Y125031D01*
X20319Y125066D01*
X20636Y125207D01*
X20989Y125348D01*
X21271Y125419D01*
X21553Y125454D01*
X21800Y125489D01*
X21976Y125524D01*
X22152D01*
X22611Y125489D01*
X23034Y125383D01*
X23386Y125242D01*
X23668Y125101D01*
X23915Y124925D01*
X24091Y124784D01*
X24197Y124678D01*
X24232Y124643D01*
X24515Y124290D01*
X24691Y123867D01*
X24832Y123444D01*
X24938Y123021D01*
X25008Y122669D01*
X25043Y122351D01*
Y122140D01*
Y122105D01*
Y122069D01*
X24973Y121047D01*
X24832Y120130D01*
X24585Y119355D01*
X24338Y118720D01*
X24091Y118226D01*
X23950Y118015D01*
X23845Y117874D01*
X23774Y117733D01*
X23704Y117627D01*
X23633Y117592D01*
Y117557D01*
X23386Y117275D01*
X23104Y117028D01*
X22575Y116605D01*
X22047Y116323D01*
X21553Y116146D01*
X21165Y116005D01*
X20813Y115970D01*
X20601Y115935D01*
X20531D01*
X20108Y115970D01*
X19720Y116076D01*
X19367Y116182D01*
X19085Y116358D01*
X18874Y116499D01*
X18697Y116605D01*
X18592Y116711D01*
X18556Y116746D01*
X18310Y117098D01*
X18133Y117486D01*
X17992Y117909D01*
X17922Y118332D01*
X17851Y118720D01*
X17816Y119002D01*
Y119214D01*
Y119249D01*
Y119284D01*
Y119425D01*
X17851Y119601D01*
Y119742D01*
Y119813D01*
X13197Y119390D01*
X13233Y118755D01*
X13268Y118191D01*
X13374Y117627D01*
X13515Y117134D01*
X13656Y116640D01*
X13832Y116182D01*
X14008Y115794D01*
X14220Y115441D01*
X14396Y115089D01*
X14572Y114807D01*
X14749Y114560D01*
X14890Y114348D01*
X15031Y114207D01*
X15137Y114102D01*
X15172Y114031D01*
X15207Y113996D01*
X15595Y113643D01*
X16018Y113361D01*
X16441Y113079D01*
X16864Y112868D01*
X17710Y112515D01*
X18521Y112268D01*
X18909Y112198D01*
X19261Y112127D01*
X19579Y112092D01*
X19826Y112057D01*
X20037Y112022D01*
X20354D01*
X21271Y112092D01*
X22117Y112233D01*
X22893Y112445D01*
X23598Y112691D01*
X24162Y112903D01*
X24409Y113009D01*
X24620Y113115D01*
X24797Y113220D01*
X24902Y113256D01*
X24973Y113326D01*
X25008D01*
X25819Y113855D01*
X26524Y114454D01*
X27123Y115089D01*
X27617Y115688D01*
X28005Y116252D01*
X28181Y116499D01*
X28287Y116711D01*
X28393Y116852D01*
X28463Y116993D01*
X28533Y117063D01*
Y117098D01*
X28957Y118015D01*
X29274Y118932D01*
X29485Y119778D01*
X29662Y120518D01*
X29697Y120871D01*
X29732Y121188D01*
X29767Y121435D01*
Y121681D01*
X29803Y121858D01*
Y121999D01*
Y122069D01*
Y122105D01*
X29767Y122669D01*
X29732Y123233D01*
X29521Y124220D01*
X29380Y124678D01*
X29239Y125101D01*
X29062Y125489D01*
X28886Y125806D01*
X28710Y126124D01*
X28533Y126406D01*
X28393Y126617D01*
X28252Y126793D01*
X28146Y126970D01*
X28040Y127076D01*
X28005Y127111D01*
X27970Y127146D01*
X27617Y127499D01*
X27264Y127781D01*
X26877Y128027D01*
X26489Y128239D01*
X25713Y128591D01*
X25008Y128803D01*
X24373Y128944D01*
X24091Y128979D01*
X23845Y129015D01*
X23668Y129050D01*
X23386D01*
X22857Y129015D01*
X22434Y128979D01*
X22223Y128944D01*
X22082Y128909D01*
X22011Y128874D01*
X21976D01*
X21483Y128733D01*
X21024Y128591D01*
X20848Y128521D01*
X20707Y128486D01*
X20636Y128415D01*
X20601D01*
X21694Y132188D01*
X29838D01*
X30755Y136559D01*
D02*
G37*
G36*
X348721Y130566D02*
X348404D01*
X347241Y130495D01*
X346183Y130354D01*
X345725Y130248D01*
X345302Y130143D01*
X344879Y130037D01*
X344526Y129896D01*
X344209Y129755D01*
X343927Y129649D01*
X343680Y129543D01*
X343468Y129438D01*
X343327Y129367D01*
X343222Y129297D01*
X343151Y129226D01*
X343116D01*
X342446Y128697D01*
X341847Y128098D01*
X341388Y127463D01*
X341000Y126899D01*
X340718Y126370D01*
X340507Y125947D01*
X340436Y125771D01*
X340401Y125665D01*
X340366Y125595D01*
Y125560D01*
X345019Y125172D01*
X345125Y125489D01*
X345266Y125771D01*
X345443Y126018D01*
X345619Y126229D01*
X345760Y126406D01*
X345901Y126511D01*
X345971Y126582D01*
X346007Y126617D01*
X346324Y126793D01*
X346641Y126934D01*
X346994Y127005D01*
X347311Y127076D01*
X347593Y127111D01*
X347840Y127146D01*
X348051D01*
X348475Y127111D01*
X348862Y127076D01*
X349144Y126970D01*
X349426Y126899D01*
X349638Y126793D01*
X349779Y126688D01*
X349849Y126652D01*
X349885Y126617D01*
X350096Y126406D01*
X350237Y126194D01*
X350378Y125983D01*
X350449Y125771D01*
X350484Y125595D01*
X350519Y125489D01*
Y125383D01*
Y125348D01*
Y125101D01*
X350484Y124854D01*
X350378Y124326D01*
X350308Y124114D01*
X350237Y123938D01*
X350202Y123797D01*
Y123762D01*
X349955Y123691D01*
X349673Y123621D01*
X349356Y123550D01*
X349003Y123479D01*
X348263Y123338D01*
X347487Y123268D01*
X346782Y123162D01*
X346465Y123127D01*
X346218Y123092D01*
X345971D01*
X345795Y123056D01*
X345654D01*
X344914Y122986D01*
X344244Y122880D01*
X343644Y122774D01*
X343080Y122633D01*
X342552Y122492D01*
X342093Y122351D01*
X341670Y122175D01*
X341318Y122034D01*
X341000Y121858D01*
X340718Y121717D01*
X340507Y121576D01*
X340331Y121470D01*
X340190Y121364D01*
X340084Y121294D01*
X340048Y121258D01*
X340013Y121223D01*
X339731Y120941D01*
X339520Y120624D01*
X339132Y119954D01*
X338850Y119284D01*
X338674Y118614D01*
X338532Y118050D01*
X338497Y117803D01*
Y117592D01*
X338462Y117416D01*
Y117169D01*
X338532Y116358D01*
X338674Y115618D01*
X338920Y114983D01*
X339167Y114454D01*
X339414Y113996D01*
X339661Y113679D01*
X339802Y113502D01*
X339872Y113432D01*
X340436Y112973D01*
X341036Y112621D01*
X341670Y112374D01*
X342234Y112198D01*
X342728Y112092D01*
X343151Y112057D01*
X343292Y112022D01*
X343503D01*
X344032Y112057D01*
X344526Y112127D01*
X344984Y112233D01*
X345407Y112339D01*
X345760Y112445D01*
X346007Y112550D01*
X346183Y112621D01*
X346253Y112656D01*
X346747Y112903D01*
X347205Y113220D01*
X347628Y113502D01*
X347981Y113784D01*
X348263Y114066D01*
X348510Y114278D01*
X348651Y114419D01*
X348686Y114454D01*
X348756Y113714D01*
X348827Y113397D01*
X348862Y113079D01*
X348933Y112832D01*
X349003Y112656D01*
X349039Y112515D01*
Y112480D01*
X353657D01*
X353516Y112973D01*
X353446Y113467D01*
X353375Y113890D01*
X353304Y114243D01*
Y114560D01*
X353269Y114771D01*
Y114948D01*
Y114983D01*
Y115230D01*
X353304Y115547D01*
X353375Y116217D01*
X353481Y116922D01*
X353622Y117662D01*
X353727Y118332D01*
X353798Y118614D01*
X353833Y118896D01*
X353868Y119108D01*
X353904Y119249D01*
X353939Y119355D01*
Y119390D01*
X354080Y120060D01*
X354221Y120694D01*
X354362Y121258D01*
X354468Y121752D01*
X354538Y122175D01*
X354609Y122563D01*
X354679Y122915D01*
X354750Y123197D01*
X354785Y123444D01*
X354856Y123621D01*
Y123797D01*
X354891Y123903D01*
X354926Y124079D01*
Y124114D01*
X355032Y124784D01*
X355067Y125066D01*
Y125313D01*
X355103Y125524D01*
Y126194D01*
X355032Y126547D01*
X354856Y127181D01*
X354574Y127745D01*
X354292Y128239D01*
X353974Y128662D01*
X353692Y128944D01*
X353516Y129120D01*
X353481Y129191D01*
X353446D01*
X353128Y129438D01*
X352776Y129649D01*
X351965Y130002D01*
X351154Y130248D01*
X350308Y130390D01*
X349567Y130495D01*
X349250Y130531D01*
X348968D01*
X348721Y130566D01*
D02*
G37*
G36*
X238549Y136876D02*
X232873D01*
X219158Y112480D01*
X224306D01*
X227232Y117874D01*
X236892D01*
X237703Y112480D01*
X242462D01*
X238549Y136876D01*
D02*
G37*
G36*
X200473D02*
X195749D01*
X190637Y112480D01*
X195361D01*
X196842Y119460D01*
X196983Y120060D01*
X197089Y120589D01*
X197194Y121047D01*
X197300Y121505D01*
X197406Y121893D01*
X197477Y122210D01*
X197582Y122528D01*
X197653Y122774D01*
X197723Y122986D01*
X197759Y123162D01*
X197864Y123444D01*
X197899Y123585D01*
X197935Y123621D01*
X198252Y124185D01*
X198605Y124713D01*
X198992Y125172D01*
X199345Y125560D01*
X199662Y125877D01*
X199909Y126088D01*
X200085Y126265D01*
X200156Y126300D01*
X200579Y126582D01*
X201002Y126793D01*
X201390Y126934D01*
X201778Y127040D01*
X202060Y127111D01*
X202306Y127146D01*
X202518D01*
X202871Y127111D01*
X203153Y127076D01*
X203435Y126970D01*
X203646Y126864D01*
X203822Y126758D01*
X203928Y126688D01*
X203999Y126617D01*
X204034Y126582D01*
X204210Y126370D01*
X204351Y126124D01*
X204457Y125912D01*
X204527Y125665D01*
X204563Y125489D01*
X204598Y125313D01*
Y125207D01*
Y125172D01*
X204563Y124925D01*
X204527Y124608D01*
X204457Y124255D01*
X204387Y123903D01*
X204316Y123550D01*
X204281Y123268D01*
X204210Y123056D01*
Y123021D01*
Y122986D01*
X201954Y112480D01*
X206678D01*
X208899Y122774D01*
X209075Y123550D01*
X209181Y124255D01*
X209287Y124819D01*
X209357Y125278D01*
X209393Y125630D01*
X209428Y125877D01*
Y126088D01*
X209357Y126793D01*
X209216Y127428D01*
X209040Y127957D01*
X208793Y128450D01*
X208547Y128803D01*
X208370Y129085D01*
X208229Y129226D01*
X208159Y129297D01*
X207665Y129720D01*
X207101Y130037D01*
X206537Y130248D01*
X205973Y130425D01*
X205479Y130495D01*
X205092Y130531D01*
X204951Y130566D01*
X204739D01*
X204140Y130531D01*
X203576Y130495D01*
X203082Y130390D01*
X202624Y130284D01*
X202236Y130178D01*
X201954Y130107D01*
X201778Y130037D01*
X201707Y130002D01*
X201178Y129755D01*
X200649Y129473D01*
X200121Y129191D01*
X199662Y128874D01*
X199275Y128591D01*
X198957Y128380D01*
X198746Y128239D01*
X198710Y128168D01*
X198675D01*
X200473Y136876D01*
D02*
G37*
G36*
X151680Y130566D02*
X151363D01*
X150199Y130495D01*
X149142Y130354D01*
X148683Y130248D01*
X148260Y130143D01*
X147837Y130037D01*
X147485Y129896D01*
X147167Y129755D01*
X146885Y129649D01*
X146638Y129543D01*
X146427Y129438D01*
X146286Y129367D01*
X146180Y129297D01*
X146110Y129226D01*
X146074D01*
X145405Y128697D01*
X144805Y128098D01*
X144347Y127463D01*
X143959Y126899D01*
X143677Y126370D01*
X143465Y125947D01*
X143395Y125771D01*
X143360Y125665D01*
X143324Y125595D01*
Y125560D01*
X147978Y125172D01*
X148084Y125489D01*
X148225Y125771D01*
X148401Y126018D01*
X148577Y126229D01*
X148719Y126406D01*
X148860Y126511D01*
X148930Y126582D01*
X148965Y126617D01*
X149283Y126793D01*
X149600Y126934D01*
X149952Y127005D01*
X150270Y127076D01*
X150552Y127111D01*
X150799Y127146D01*
X151010D01*
X151433Y127111D01*
X151821Y127076D01*
X152103Y126970D01*
X152385Y126899D01*
X152597Y126793D01*
X152738Y126688D01*
X152808Y126652D01*
X152843Y126617D01*
X153055Y126406D01*
X153196Y126194D01*
X153337Y125983D01*
X153407Y125771D01*
X153443Y125595D01*
X153478Y125489D01*
Y125383D01*
Y125348D01*
Y125101D01*
X153443Y124854D01*
X153337Y124326D01*
X153266Y124114D01*
X153196Y123938D01*
X153161Y123797D01*
Y123762D01*
X152914Y123691D01*
X152632Y123621D01*
X152315Y123550D01*
X151962Y123479D01*
X151222Y123338D01*
X150446Y123268D01*
X149741Y123162D01*
X149424Y123127D01*
X149177Y123092D01*
X148930D01*
X148754Y123056D01*
X148613D01*
X147872Y122986D01*
X147203Y122880D01*
X146603Y122774D01*
X146039Y122633D01*
X145510Y122492D01*
X145052Y122351D01*
X144629Y122175D01*
X144276Y122034D01*
X143959Y121858D01*
X143677Y121717D01*
X143465Y121576D01*
X143289Y121470D01*
X143148Y121364D01*
X143042Y121294D01*
X143007Y121258D01*
X142972Y121223D01*
X142690Y120941D01*
X142478Y120624D01*
X142091Y119954D01*
X141809Y119284D01*
X141632Y118614D01*
X141491Y118050D01*
X141456Y117803D01*
Y117592D01*
X141421Y117416D01*
Y117169D01*
X141491Y116358D01*
X141632Y115618D01*
X141879Y114983D01*
X142126Y114454D01*
X142373Y113996D01*
X142619Y113679D01*
X142760Y113502D01*
X142831Y113432D01*
X143395Y112973D01*
X143994Y112621D01*
X144629Y112374D01*
X145193Y112198D01*
X145687Y112092D01*
X146110Y112057D01*
X146251Y112022D01*
X146462D01*
X146991Y112057D01*
X147485Y112127D01*
X147943Y112233D01*
X148366Y112339D01*
X148719Y112445D01*
X148965Y112550D01*
X149142Y112621D01*
X149212Y112656D01*
X149706Y112903D01*
X150164Y113220D01*
X150587Y113502D01*
X150940Y113784D01*
X151222Y114066D01*
X151468Y114278D01*
X151609Y114419D01*
X151645Y114454D01*
X151715Y113714D01*
X151786Y113397D01*
X151821Y113079D01*
X151891Y112832D01*
X151962Y112656D01*
X151997Y112515D01*
Y112480D01*
X156616D01*
X156475Y112973D01*
X156404Y113467D01*
X156334Y113890D01*
X156263Y114243D01*
Y114560D01*
X156228Y114771D01*
Y114948D01*
Y114983D01*
Y115230D01*
X156263Y115547D01*
X156334Y116217D01*
X156439Y116922D01*
X156580Y117662D01*
X156686Y118332D01*
X156757Y118614D01*
X156792Y118896D01*
X156827Y119108D01*
X156862Y119249D01*
X156898Y119355D01*
Y119390D01*
X157039Y120060D01*
X157180Y120694D01*
X157321Y121258D01*
X157427Y121752D01*
X157497Y122175D01*
X157568Y122563D01*
X157638Y122915D01*
X157709Y123197D01*
X157744Y123444D01*
X157814Y123621D01*
Y123797D01*
X157850Y123903D01*
X157885Y124079D01*
Y124114D01*
X157991Y124784D01*
X158026Y125066D01*
Y125313D01*
X158061Y125524D01*
Y126194D01*
X157991Y126547D01*
X157814Y127181D01*
X157532Y127745D01*
X157250Y128239D01*
X156933Y128662D01*
X156651Y128944D01*
X156475Y129120D01*
X156439Y129191D01*
X156404D01*
X156087Y129438D01*
X155734Y129649D01*
X154923Y130002D01*
X154113Y130248D01*
X153266Y130390D01*
X152526Y130495D01*
X152209Y130531D01*
X151927D01*
X151680Y130566D01*
D02*
G37*
G36*
X133982Y136876D02*
X123652D01*
X118540Y112480D01*
X123511D01*
X125485Y121787D01*
X130315D01*
X130774Y121823D01*
X131514D01*
X131831Y121858D01*
X132360D01*
X132572Y121893D01*
X132889D01*
X133065Y121928D01*
X133136D01*
X133876Y122034D01*
X134511Y122175D01*
X135075Y122316D01*
X135533Y122457D01*
X135886Y122563D01*
X136168Y122669D01*
X136309Y122704D01*
X136379Y122739D01*
X136838Y122986D01*
X137225Y123233D01*
X137613Y123479D01*
X137930Y123762D01*
X138212Y123973D01*
X138424Y124149D01*
X138565Y124290D01*
X138600Y124326D01*
X138988Y124749D01*
X139341Y125207D01*
X139623Y125665D01*
X139869Y126124D01*
X140081Y126511D01*
X140222Y126829D01*
X140328Y127040D01*
X140363Y127076D01*
Y127111D01*
X140610Y127781D01*
X140786Y128415D01*
X140927Y129050D01*
X140998Y129579D01*
X141068Y130072D01*
X141103Y130425D01*
Y130742D01*
X141068Y131447D01*
X140962Y132117D01*
X140821Y132681D01*
X140645Y133210D01*
X140469Y133598D01*
X140328Y133915D01*
X140222Y134091D01*
X140187Y134162D01*
X139834Y134655D01*
X139411Y135114D01*
X138988Y135466D01*
X138600Y135748D01*
X138248Y135960D01*
X137966Y136136D01*
X137789Y136207D01*
X137754Y136242D01*
X137719D01*
X137120Y136453D01*
X136414Y136594D01*
X135745Y136735D01*
X135075Y136806D01*
X134475Y136841D01*
X134229D01*
X133982Y136876D01*
D02*
G37*
G36*
X108316Y130178D02*
X94425D01*
X93650Y126441D01*
X101547D01*
X91852Y115723D01*
X91182Y112480D01*
X105672D01*
X106483Y116358D01*
X97880D01*
X107717Y127322D01*
X108316Y130178D01*
D02*
G37*
G36*
X288435Y130566D02*
X288118D01*
X287201Y130531D01*
X286320Y130390D01*
X285509Y130213D01*
X284768Y129966D01*
X284063Y129684D01*
X283429Y129367D01*
X282829Y129015D01*
X282300Y128662D01*
X281842Y128274D01*
X281419Y127957D01*
X281102Y127604D01*
X280784Y127322D01*
X280573Y127076D01*
X280432Y126899D01*
X280326Y126758D01*
X280291Y126723D01*
X279938Y126194D01*
X279621Y125630D01*
X279374Y125066D01*
X279128Y124502D01*
X278951Y123938D01*
X278775Y123409D01*
X278528Y122422D01*
X278458Y121964D01*
X278387Y121540D01*
X278352Y121153D01*
X278317Y120835D01*
X278281Y120589D01*
Y120412D01*
Y120271D01*
Y120236D01*
X278317Y119566D01*
X278387Y118932D01*
X278493Y118297D01*
X278634Y117733D01*
X278810Y117204D01*
X278986Y116711D01*
X279198Y116287D01*
X279410Y115864D01*
X279586Y115512D01*
X279797Y115195D01*
X279974Y114913D01*
X280150Y114701D01*
X280291Y114525D01*
X280397Y114384D01*
X280467Y114313D01*
X280502Y114278D01*
X280926Y113890D01*
X281384Y113538D01*
X281877Y113220D01*
X282336Y112973D01*
X282829Y112762D01*
X283323Y112586D01*
X284240Y112304D01*
X284663Y112198D01*
X285050Y112127D01*
X285403Y112092D01*
X285720Y112057D01*
X285967Y112022D01*
X286320D01*
X287271Y112092D01*
X288118Y112233D01*
X288929Y112409D01*
X289598Y112656D01*
X290198Y112903D01*
X290409Y113009D01*
X290621Y113079D01*
X290762Y113185D01*
X290868Y113220D01*
X290938Y113291D01*
X290973D01*
X291714Y113820D01*
X292383Y114454D01*
X292983Y115089D01*
X293476Y115723D01*
X293829Y116323D01*
X294005Y116569D01*
X294111Y116781D01*
X294217Y116957D01*
X294287Y117098D01*
X294358Y117169D01*
Y117204D01*
X290092Y117909D01*
X289845Y117486D01*
X289563Y117098D01*
X289246Y116781D01*
X288929Y116499D01*
X288646Y116252D01*
X288329Y116041D01*
X288012Y115864D01*
X287730Y115759D01*
X287201Y115582D01*
X286954Y115512D01*
X286743Y115477D01*
X286602Y115441D01*
X286355D01*
X285826Y115477D01*
X285332Y115618D01*
X284909Y115794D01*
X284557Y115970D01*
X284240Y116182D01*
X284028Y116323D01*
X283887Y116464D01*
X283852Y116499D01*
X283534Y116922D01*
X283288Y117416D01*
X283111Y117874D01*
X283006Y118332D01*
X282935Y118755D01*
X282865Y119073D01*
Y119284D01*
Y119319D01*
Y119355D01*
Y119496D01*
X282900Y119637D01*
Y119778D01*
Y119813D01*
X294887D01*
X295098Y120871D01*
X295169Y121399D01*
X295204Y121893D01*
X295239Y122281D01*
Y122915D01*
X295204Y123585D01*
X295169Y124185D01*
X295063Y124784D01*
X294922Y125313D01*
X294781Y125842D01*
X294640Y126300D01*
X294464Y126723D01*
X294287Y127111D01*
X294076Y127428D01*
X293899Y127745D01*
X293758Y127992D01*
X293617Y128204D01*
X293476Y128345D01*
X293371Y128450D01*
X293335Y128521D01*
X293300Y128556D01*
X292912Y128909D01*
X292525Y129226D01*
X292101Y129473D01*
X291678Y129720D01*
X291255Y129931D01*
X290832Y130072D01*
X289986Y130319D01*
X289598Y130390D01*
X289246Y130460D01*
X288929Y130495D01*
X288646Y130531D01*
X288435Y130566D01*
D02*
G37*
G36*
X276589Y136277D02*
X271160Y132998D01*
X270596Y130178D01*
X268269D01*
X267528Y126617D01*
X269891D01*
X268375Y119496D01*
X268269Y118967D01*
X268163Y118473D01*
X268093Y118050D01*
X268022Y117662D01*
X267952Y117310D01*
X267881Y116993D01*
X267846Y116746D01*
X267811Y116499D01*
X267775Y116146D01*
X267740Y115900D01*
Y115759D01*
Y115723D01*
X267775Y115089D01*
X267916Y114560D01*
X268093Y114066D01*
X268304Y113679D01*
X268516Y113397D01*
X268692Y113150D01*
X268833Y113009D01*
X268868Y112973D01*
X269362Y112656D01*
X269926Y112409D01*
X270560Y112268D01*
X271160Y112127D01*
X271724Y112057D01*
X271935D01*
X272147Y112022D01*
X272570D01*
X273522Y112057D01*
X273945Y112127D01*
X274333Y112163D01*
X274650Y112233D01*
X274897Y112268D01*
X275038Y112304D01*
X275108D01*
X275849Y115829D01*
X275426Y115794D01*
X275073Y115759D01*
X274791Y115723D01*
X274580D01*
X274439Y115688D01*
X273945D01*
X273663Y115723D01*
X273416Y115794D01*
X273240Y115864D01*
X273134Y115900D01*
X273028Y115970D01*
X272993Y116005D01*
X272958D01*
X272782Y116287D01*
X272676Y116534D01*
X272641Y116781D01*
Y116816D01*
Y116852D01*
Y116922D01*
X272676Y117028D01*
X272711Y117345D01*
X272782Y117698D01*
X272852Y118121D01*
X272923Y118509D01*
X272993Y118826D01*
X273028Y118967D01*
X273064Y119073D01*
Y119108D01*
Y119143D01*
X274615Y126617D01*
X277541D01*
X278281Y130178D01*
X275355D01*
X276589Y136277D01*
D02*
G37*
G36*
X170506D02*
X165077Y132998D01*
X164513Y130178D01*
X162186D01*
X161446Y126617D01*
X163808D01*
X162292Y119496D01*
X162186Y118967D01*
X162080Y118473D01*
X162010Y118050D01*
X161939Y117662D01*
X161869Y117310D01*
X161798Y116993D01*
X161763Y116746D01*
X161728Y116499D01*
X161692Y116146D01*
X161657Y115900D01*
Y115759D01*
Y115723D01*
X161692Y115089D01*
X161833Y114560D01*
X162010Y114066D01*
X162221Y113679D01*
X162433Y113397D01*
X162609Y113150D01*
X162750Y113009D01*
X162785Y112973D01*
X163279Y112656D01*
X163843Y112409D01*
X164478Y112268D01*
X165077Y112127D01*
X165641Y112057D01*
X165853D01*
X166064Y112022D01*
X166487D01*
X167439Y112057D01*
X167862Y112127D01*
X168250Y112163D01*
X168567Y112233D01*
X168814Y112268D01*
X168955Y112304D01*
X169025D01*
X169766Y115829D01*
X169343Y115794D01*
X168990Y115759D01*
X168708Y115723D01*
X168497D01*
X168356Y115688D01*
X167862D01*
X167580Y115723D01*
X167333Y115794D01*
X167157Y115864D01*
X167051Y115900D01*
X166945Y115970D01*
X166910Y116005D01*
X166875D01*
X166699Y116287D01*
X166593Y116534D01*
X166558Y116781D01*
Y116816D01*
Y116852D01*
Y116922D01*
X166593Y117028D01*
X166628Y117345D01*
X166699Y117698D01*
X166769Y118121D01*
X166840Y118509D01*
X166910Y118826D01*
X166945Y118967D01*
X166981Y119073D01*
Y119108D01*
Y119143D01*
X168532Y126617D01*
X171458D01*
X172199Y130178D01*
X169272D01*
X170506Y136277D01*
D02*
G37*
G36*
X190707Y100832D02*
X190531D01*
X190002Y100796D01*
X189473Y100655D01*
X188945Y100479D01*
X188486Y100232D01*
X187993Y99950D01*
X187570Y99633D01*
X186759Y98928D01*
X186406Y98575D01*
X186089Y98223D01*
X185807Y97905D01*
X185560Y97623D01*
X185384Y97377D01*
X185243Y97200D01*
X185172Y97059D01*
X185137Y97024D01*
X185842Y100444D01*
X181400D01*
X177698Y82746D01*
X182423D01*
X183586Y88281D01*
X183727Y88880D01*
X183833Y89479D01*
X183974Y90008D01*
X184115Y90467D01*
X184221Y90925D01*
X184326Y91348D01*
X184467Y91700D01*
X184573Y92018D01*
X184644Y92300D01*
X184749Y92547D01*
X184820Y92758D01*
X184890Y92934D01*
X184926Y93040D01*
X184961Y93146D01*
X184996Y93216D01*
X185278Y93781D01*
X185595Y94274D01*
X185948Y94697D01*
X186265Y95050D01*
X186547Y95296D01*
X186759Y95508D01*
X186900Y95649D01*
X186970Y95684D01*
X187464Y96002D01*
X187922Y96248D01*
X188345Y96389D01*
X188733Y96531D01*
X189051Y96601D01*
X189297Y96636D01*
X189509D01*
X190038Y96601D01*
X190496Y96531D01*
X190672Y96460D01*
X190813Y96425D01*
X190884Y96389D01*
X190919D01*
X191377Y97368D01*
X192752Y100303D01*
X192329Y100479D01*
X191906Y100620D01*
X191518Y100691D01*
X191201Y100761D01*
X190919Y100796D01*
X190707Y100832D01*
D02*
G37*
G36*
X177451D02*
X177275D01*
X176746Y100796D01*
X176218Y100655D01*
X175689Y100479D01*
X175230Y100232D01*
X174737Y99950D01*
X174314Y99633D01*
X173503Y98928D01*
X173150Y98575D01*
X172833Y98223D01*
X172551Y97905D01*
X172304Y97623D01*
X172128Y97377D01*
X171987Y97200D01*
X171916Y97059D01*
X171881Y97024D01*
X172586Y100444D01*
X168144D01*
X164442Y82746D01*
X169167D01*
X170330Y88281D01*
X170471Y88880D01*
X170577Y89479D01*
X170718Y90008D01*
X170859Y90467D01*
X170965Y90925D01*
X171070Y91348D01*
X171211Y91700D01*
X171317Y92018D01*
X171388Y92300D01*
X171493Y92547D01*
X171564Y92758D01*
X171634Y92934D01*
X171670Y93040D01*
X171705Y93146D01*
X171740Y93216D01*
X172022Y93781D01*
X172339Y94274D01*
X172692Y94697D01*
X173009Y95050D01*
X173291Y95296D01*
X173503Y95508D01*
X173644Y95649D01*
X173715Y95684D01*
X174208Y96002D01*
X174666Y96248D01*
X175089Y96389D01*
X175477Y96531D01*
X175795Y96601D01*
X176041Y96636D01*
X176253D01*
X176782Y96601D01*
X177240Y96531D01*
X177416Y96460D01*
X177557Y96425D01*
X177628Y96389D01*
X177663D01*
X179496Y100303D01*
X179073Y100479D01*
X178650Y100620D01*
X178262Y100691D01*
X177945Y100761D01*
X177698Y100792D01*
X177663Y100796D01*
X177451Y100832D01*
D02*
G37*
G36*
X229982Y100444D02*
X224940D01*
X220710Y92547D01*
X220146Y91454D01*
X219617Y90396D01*
X219194Y89444D01*
X218806Y88598D01*
X218665Y88210D01*
X218524Y87893D01*
X218418Y87576D01*
X218312Y87329D01*
X218242Y87153D01*
X218171Y86976D01*
X218136Y86906D01*
Y87153D01*
X218101Y87470D01*
X218030Y88175D01*
X217924Y88951D01*
X217854Y89726D01*
X217748Y90467D01*
X217713Y90784D01*
X217678Y91031D01*
X217642Y91277D01*
Y91454D01*
X217607Y91559D01*
Y91595D01*
X216444Y100444D01*
X211684D01*
X214751Y82746D01*
X214470Y82146D01*
X214187Y81653D01*
X213870Y81194D01*
X213588Y80807D01*
X213271Y80489D01*
X212953Y80207D01*
X212672Y79996D01*
X212389Y79819D01*
X212143Y79679D01*
X211896Y79573D01*
X211473Y79467D01*
X211332Y79432D01*
X211226Y79396D01*
X211120D01*
X210521Y79432D01*
X210239Y79502D01*
X209992Y79538D01*
X209781Y79608D01*
X209604Y79643D01*
X209499Y79679D01*
X209463D01*
X209075Y76118D01*
X209745Y75941D01*
X210380Y75800D01*
X210979Y75695D01*
X211473Y75624D01*
X211896Y75589D01*
X212178Y75554D01*
X212460D01*
X213024Y75589D01*
X213518Y75659D01*
X213941Y75730D01*
X214328Y75836D01*
X214646Y75941D01*
X214893Y76047D01*
X215034Y76082D01*
X215069Y76118D01*
X215457Y76364D01*
X215809Y76611D01*
X216126Y76858D01*
X216409Y77105D01*
X216620Y77316D01*
X216761Y77493D01*
X216867Y77634D01*
X216902Y77669D01*
X217219Y78092D01*
X217572Y78586D01*
X217924Y79150D01*
X218277Y79714D01*
X218594Y80207D01*
X218841Y80630D01*
X218912Y80807D01*
X218982Y80912D01*
X219053Y80983D01*
Y81018D01*
X229982Y100444D01*
D02*
G37*
G36*
X201637Y100832D02*
X201319D01*
X200156Y100761D01*
X199098Y100620D01*
X198640Y100514D01*
X198217Y100408D01*
X197794Y100303D01*
X197441Y100162D01*
X197124Y100021D01*
X196842Y99915D01*
X196595Y99809D01*
X196384Y99703D01*
X196243Y99633D01*
X196137Y99562D01*
X196066Y99492D01*
X196031D01*
X195361Y98963D01*
X194762Y98364D01*
X194303Y97729D01*
X193916Y97165D01*
X193634Y96636D01*
X193422Y96213D01*
X193352Y96037D01*
X193316Y95931D01*
X193281Y95861D01*
Y95825D01*
X197935Y95438D01*
X198041Y95755D01*
X198182Y96037D01*
X198358Y96284D01*
X198534Y96495D01*
X198675Y96671D01*
X198816Y96777D01*
X198887Y96848D01*
X198922Y96883D01*
X199239Y97059D01*
X199557Y97200D01*
X199909Y97271D01*
X200226Y97341D01*
X200508Y97377D01*
X200755Y97412D01*
X200967D01*
X201390Y97377D01*
X201778Y97341D01*
X202060Y97236D01*
X202342Y97165D01*
X202553Y97059D01*
X202694Y96953D01*
X202765Y96918D01*
X202800Y96883D01*
X203011Y96671D01*
X203153Y96460D01*
X203294Y96248D01*
X203364Y96037D01*
X203399Y95861D01*
X203435Y95755D01*
Y95649D01*
Y95614D01*
Y95367D01*
X203399Y95120D01*
X203294Y94591D01*
X203223Y94380D01*
X203153Y94204D01*
X203117Y94063D01*
Y94027D01*
X202871Y93957D01*
X202589Y93886D01*
X202271Y93816D01*
X201919Y93745D01*
X201178Y93604D01*
X200403Y93534D01*
X199697Y93428D01*
X199380Y93393D01*
X199133Y93357D01*
X198887D01*
X198710Y93322D01*
X198569D01*
X197829Y93252D01*
X197159Y93146D01*
X196560Y93040D01*
X195996Y92899D01*
X195467Y92758D01*
X195009Y92617D01*
X194585Y92441D01*
X194233Y92300D01*
X193916Y92124D01*
X193634Y91982D01*
X193422Y91841D01*
X193246Y91736D01*
X193105Y91630D01*
X192999Y91559D01*
X192964Y91524D01*
X192929Y91489D01*
X192647Y91207D01*
X192435Y90890D01*
X192047Y90220D01*
X191765Y89550D01*
X191589Y88880D01*
X191448Y88316D01*
X191413Y88069D01*
Y87858D01*
X191377Y87681D01*
Y87540D01*
Y87470D01*
Y87435D01*
X191448Y86624D01*
X191589Y85883D01*
X191836Y85249D01*
X192082Y84720D01*
X192329Y84262D01*
X192576Y83944D01*
X192717Y83768D01*
X192787Y83698D01*
X193352Y83239D01*
X193951Y82887D01*
X194585Y82640D01*
X195150Y82464D01*
X195643Y82358D01*
X196066Y82323D01*
X196207Y82287D01*
X196419D01*
X196948Y82323D01*
X197441Y82393D01*
X197899Y82499D01*
X198323Y82605D01*
X198675Y82710D01*
X198922Y82816D01*
X199098Y82887D01*
X199169Y82922D01*
X199662Y83169D01*
X200121Y83486D01*
X200544Y83768D01*
X200896Y84050D01*
X201178Y84332D01*
X201425Y84544D01*
X201566Y84685D01*
X201601Y84720D01*
X201672Y83980D01*
X201742Y83662D01*
X201778Y83345D01*
X201848Y83098D01*
X201919Y82922D01*
X201954Y82781D01*
Y82746D01*
X206572D01*
X206431Y83239D01*
X206361Y83733D01*
X206290Y84156D01*
X206220Y84508D01*
Y84826D01*
X206185Y85037D01*
Y85213D01*
Y85249D01*
Y85496D01*
X206220Y85813D01*
X206290Y86483D01*
X206396Y87188D01*
X206537Y87928D01*
X206643Y88598D01*
X206713Y88880D01*
X206749Y89162D01*
X206784Y89374D01*
X206819Y89515D01*
X206854Y89620D01*
Y89656D01*
X206995Y90325D01*
X207136Y90960D01*
X207277Y91524D01*
X207383Y92018D01*
X207454Y92441D01*
X207524Y92829D01*
X207595Y93181D01*
X207665Y93463D01*
X207701Y93710D01*
X207771Y93886D01*
Y94063D01*
X207806Y94168D01*
X207841Y94345D01*
Y94380D01*
X207947Y95050D01*
X207983Y95332D01*
Y95579D01*
X208018Y95790D01*
Y96460D01*
X207947Y96812D01*
X207771Y97447D01*
X207489Y98011D01*
X207207Y98505D01*
X206890Y98928D01*
X206608Y99210D01*
X206431Y99386D01*
X206396Y99457D01*
X206361D01*
X206043Y99703D01*
X205691Y99915D01*
X204880Y100267D01*
X204069Y100514D01*
X203223Y100655D01*
X202483Y100761D01*
X202165Y100796D01*
X201883D01*
X201637Y100832D01*
D02*
G37*
G36*
X157779Y107142D02*
X152103D01*
X138389Y82746D01*
X143536D01*
X146462Y88140D01*
X156122D01*
X156933Y82746D01*
X161692D01*
X157779Y107142D01*
D02*
G37*
G36*
X129769Y70533D02*
X125045D01*
X124128Y66232D01*
X128888D01*
X129769Y70533D01*
D02*
G37*
G36*
X143765Y64223D02*
X143554D01*
X142954Y64187D01*
X142390Y64117D01*
X141861Y64011D01*
X141403Y63905D01*
X141015Y63800D01*
X140698Y63694D01*
X140522Y63623D01*
X140451Y63588D01*
X139887Y63306D01*
X139323Y62989D01*
X138794Y62636D01*
X138301Y62319D01*
X137878Y62002D01*
X137525Y61755D01*
X137313Y61578D01*
X137278Y61508D01*
X137243D01*
X137701Y63835D01*
X133189D01*
X129769Y47485D01*
X129487Y46137D01*
X134211D01*
X135727Y53364D01*
X135868Y53928D01*
X135974Y54457D01*
X136115Y54950D01*
X136221Y55374D01*
X136326Y55761D01*
X136432Y56114D01*
X136538Y56396D01*
X136608Y56678D01*
X136679Y56890D01*
X136749Y57101D01*
X136855Y57383D01*
X136926Y57559D01*
X136961Y57595D01*
X137278Y58123D01*
X137596Y58582D01*
X137948Y58970D01*
X138265Y59287D01*
X138547Y59569D01*
X138794Y59745D01*
X138935Y59886D01*
X139006Y59921D01*
X139499Y60203D01*
X139922Y60415D01*
X140310Y60591D01*
X140663Y60697D01*
X140980Y60768D01*
X141192Y60803D01*
X141368D01*
X141720Y60768D01*
X142038Y60732D01*
X142284Y60627D01*
X142496Y60556D01*
X142672Y60450D01*
X142778Y60345D01*
X142849Y60309D01*
X142884Y60274D01*
X143060Y60062D01*
X143201Y59816D01*
X143307Y59569D01*
X143377Y59357D01*
X143413Y59146D01*
X143448Y58970D01*
Y58864D01*
Y58829D01*
Y58723D01*
X143413Y58582D01*
X143342Y58229D01*
X143272Y57771D01*
X143201Y57313D01*
X143095Y56890D01*
X143025Y56502D01*
X142990Y56361D01*
Y56255D01*
X142954Y56184D01*
Y56149D01*
X140804Y46137D01*
X145528D01*
X147678Y56114D01*
X147784Y56572D01*
X147890Y56995D01*
X147961Y57383D01*
X148031Y57736D01*
X148137Y58370D01*
X148207Y58829D01*
X148278Y59216D01*
X148313Y59463D01*
Y59639D01*
X148243Y60380D01*
X148102Y61014D01*
X147925Y61578D01*
X147678Y62072D01*
X147432Y62460D01*
X147255Y62742D01*
X147114Y62883D01*
X147044Y62953D01*
X146515Y63376D01*
X145951Y63694D01*
X145387Y63905D01*
X144823Y64082D01*
X144329Y64152D01*
X143906Y64187D01*
X143765Y64223D01*
D02*
G37*
G36*
X193299D02*
X193122D01*
X192594Y64187D01*
X192065Y64046D01*
X191536Y63870D01*
X191078Y63623D01*
X190584Y63341D01*
X190161Y63024D01*
X189350Y62319D01*
X188998Y61966D01*
X188680Y61614D01*
X188398Y61296D01*
X188151Y61014D01*
X187975Y60768D01*
X187834Y60591D01*
X187764Y60450D01*
X187728Y60415D01*
X188433Y63835D01*
X183991D01*
X180290Y46137D01*
X185014D01*
X186177Y51672D01*
X186318Y52271D01*
X186424Y52870D01*
X186565Y53399D01*
X186706Y53858D01*
X186812Y54316D01*
X186917Y54739D01*
X187059Y55092D01*
X187164Y55409D01*
X187235Y55691D01*
X187341Y55938D01*
X187411Y56149D01*
X187482Y56325D01*
X187517Y56431D01*
X187552Y56537D01*
X187587Y56607D01*
X187869Y57172D01*
X188187Y57665D01*
X188539Y58088D01*
X188857Y58441D01*
X189139Y58688D01*
X189350Y58899D01*
X189491Y59040D01*
X189562Y59075D01*
X190055Y59393D01*
X190514Y59639D01*
X190937Y59780D01*
X191324Y59921D01*
X191642Y59992D01*
X191889Y60027D01*
X192100D01*
X192629Y59992D01*
X193087Y59921D01*
X193263Y59851D01*
X193405Y59816D01*
X193475Y59780D01*
X193510D01*
X195343Y63694D01*
X194921Y63870D01*
X194497Y64011D01*
X194110Y64082D01*
X193792Y64152D01*
X193510Y64187D01*
X193299Y64223D01*
D02*
G37*
G36*
X122788Y70533D02*
X117923D01*
X109885Y53611D01*
X109321Y70533D01*
X103891D01*
X95465Y53435D01*
X95254Y70533D01*
X90353D01*
X91270Y46137D01*
X96453D01*
X105337Y63976D01*
X105901Y46137D01*
X110978D01*
X122788Y70533D01*
D02*
G37*
G36*
X271389Y70674D02*
X271072D01*
X270472Y70639D01*
X269908Y70568D01*
X269344Y70463D01*
X268815Y70322D01*
X267864Y69969D01*
X267476Y69793D01*
X267088Y69581D01*
X266735Y69370D01*
X266418Y69194D01*
X266171Y68982D01*
X265924Y68841D01*
X265783Y68700D01*
X265642Y68594D01*
X265572Y68524D01*
X265537Y68488D01*
X265008Y67889D01*
X264550Y67219D01*
X264162Y66549D01*
X263844Y65880D01*
X263598Y65280D01*
X263492Y65033D01*
X263386Y64822D01*
X263316Y64610D01*
X263280Y64469D01*
X263245Y64399D01*
Y64364D01*
X267617Y63517D01*
X267793Y64152D01*
X268004Y64681D01*
X268216Y65139D01*
X268428Y65492D01*
X268604Y65739D01*
X268745Y65950D01*
X268851Y66056D01*
X268886Y66091D01*
X269203Y66338D01*
X269520Y66549D01*
X269838Y66691D01*
X270120Y66761D01*
X270367Y66831D01*
X270543Y66867D01*
X270719D01*
X271107Y66831D01*
X271460Y66761D01*
X271742Y66655D01*
X272024Y66514D01*
X272200Y66373D01*
X272376Y66267D01*
X272447Y66197D01*
X272482Y66162D01*
X272729Y65880D01*
X272905Y65562D01*
X273011Y65245D01*
X273116Y64963D01*
X273152Y64681D01*
X273187Y64469D01*
Y64328D01*
Y64258D01*
X273152Y63658D01*
X273046Y63130D01*
X272870Y62671D01*
X272693Y62284D01*
X272482Y61966D01*
X272341Y61755D01*
X272200Y61614D01*
X272165Y61578D01*
X271742Y61261D01*
X271283Y61014D01*
X270825Y60873D01*
X270367Y60732D01*
X269944Y60662D01*
X269591Y60627D01*
X268780D01*
X267969Y56678D01*
X268251Y56713D01*
X268498Y56748D01*
X268710D01*
X269238Y56713D01*
X269697Y56607D01*
X270120Y56466D01*
X270437Y56325D01*
X270719Y56149D01*
X270895Y56008D01*
X271036Y55902D01*
X271072Y55867D01*
X271354Y55515D01*
X271565Y55127D01*
X271742Y54739D01*
X271847Y54351D01*
X271918Y53999D01*
X271953Y53717D01*
Y53540D01*
Y53505D01*
Y53470D01*
X271918Y52870D01*
X271777Y52306D01*
X271600Y51813D01*
X271424Y51425D01*
X271213Y51072D01*
X271036Y50861D01*
X270895Y50685D01*
X270860Y50649D01*
X270437Y50297D01*
X269979Y50015D01*
X269520Y49839D01*
X269097Y49697D01*
X268710Y49627D01*
X268428Y49592D01*
X268216Y49556D01*
X268146D01*
X267722Y49592D01*
X267335Y49662D01*
X266982Y49803D01*
X266700Y49944D01*
X266488Y50050D01*
X266312Y50191D01*
X266206Y50262D01*
X266171Y50297D01*
X265924Y50614D01*
X265713Y51037D01*
X265537Y51495D01*
X265396Y51919D01*
X265290Y52342D01*
X265219Y52694D01*
X265184Y52835D01*
X265149Y52941D01*
Y52976D01*
Y53011D01*
X260566Y52447D01*
X260671Y51848D01*
X260777Y51319D01*
X260954Y50790D01*
X261130Y50297D01*
X261306Y49839D01*
X261518Y49451D01*
X261729Y49063D01*
X261941Y48746D01*
X262152Y48428D01*
X262328Y48182D01*
X262505Y47935D01*
X262681Y47758D01*
X262822Y47617D01*
X262928Y47512D01*
X262963Y47476D01*
X262998Y47441D01*
X263386Y47124D01*
X263809Y46877D01*
X264232Y46630D01*
X264655Y46419D01*
X265501Y46101D01*
X266312Y45890D01*
X266665Y45819D01*
X267017Y45784D01*
X267335Y45749D01*
X267581Y45714D01*
X267828Y45678D01*
X268110D01*
X268851Y45714D01*
X269591Y45819D01*
X270261Y45960D01*
X270895Y46172D01*
X271495Y46384D01*
X272059Y46666D01*
X272552Y46948D01*
X273011Y47230D01*
X273434Y47512D01*
X273786Y47794D01*
X274104Y48076D01*
X274386Y48287D01*
X274562Y48499D01*
X274738Y48640D01*
X274809Y48746D01*
X274844Y48781D01*
X275197Y49204D01*
X275479Y49627D01*
X275761Y50085D01*
X275972Y50508D01*
X276325Y51354D01*
X276536Y52130D01*
X276607Y52447D01*
X276677Y52765D01*
X276712Y53047D01*
X276748Y53293D01*
X276783Y53505D01*
Y53646D01*
Y53717D01*
Y53752D01*
X276748Y54281D01*
X276677Y54774D01*
X276536Y55233D01*
X276430Y55656D01*
X276290Y55973D01*
X276148Y56255D01*
X276078Y56396D01*
X276043Y56466D01*
X275725Y56925D01*
X275373Y57348D01*
X274985Y57700D01*
X274632Y58018D01*
X274280Y58264D01*
X273998Y58441D01*
X273822Y58547D01*
X273786Y58582D01*
X273751D01*
X274456Y58899D01*
X275056Y59216D01*
X275584Y59604D01*
X276007Y59992D01*
X276360Y60309D01*
X276607Y60591D01*
X276783Y60768D01*
X276818Y60838D01*
X277206Y61437D01*
X277488Y62037D01*
X277664Y62601D01*
X277805Y63165D01*
X277876Y63623D01*
X277946Y63976D01*
Y64293D01*
X277911Y64787D01*
X277876Y65245D01*
X277664Y66091D01*
X277382Y66867D01*
X277065Y67501D01*
X276748Y68030D01*
X276607Y68242D01*
X276466Y68453D01*
X276360Y68594D01*
X276254Y68700D01*
X276219Y68735D01*
X276184Y68770D01*
X275831Y69123D01*
X275443Y69405D01*
X275056Y69652D01*
X274632Y69863D01*
X273786Y70216D01*
X272976Y70427D01*
X272235Y70568D01*
X271918Y70604D01*
X271636Y70639D01*
X271389Y70674D01*
D02*
G37*
G36*
X252316D02*
X251999D01*
X251434Y70639D01*
X250870Y70604D01*
X249883Y70392D01*
X249002Y70110D01*
X248614Y69934D01*
X248262Y69758D01*
X247909Y69581D01*
X247627Y69405D01*
X247380Y69264D01*
X247204Y69123D01*
X247028Y69017D01*
X246922Y68911D01*
X246851Y68876D01*
X246816Y68841D01*
X246464Y68488D01*
X246111Y68101D01*
X245547Y67290D01*
X245089Y66408D01*
X244736Y65562D01*
X244595Y65174D01*
X244489Y64822D01*
X244419Y64505D01*
X244313Y64223D01*
X244278Y63976D01*
X244242Y63800D01*
X244207Y63694D01*
Y63658D01*
X248861Y62989D01*
X249037Y63764D01*
X249249Y64399D01*
X249460Y64928D01*
X249672Y65351D01*
X249848Y65668D01*
X249989Y65880D01*
X250095Y66021D01*
X250130Y66056D01*
X250447Y66338D01*
X250800Y66549D01*
X251117Y66726D01*
X251434Y66831D01*
X251717Y66902D01*
X251928Y66937D01*
X252104D01*
X252492Y66902D01*
X252845Y66831D01*
X253162Y66691D01*
X253444Y66549D01*
X253656Y66408D01*
X253797Y66267D01*
X253902Y66197D01*
X253938Y66162D01*
X254184Y65844D01*
X254361Y65527D01*
X254502Y65174D01*
X254572Y64857D01*
X254643Y64575D01*
X254678Y64364D01*
Y64223D01*
Y64152D01*
X254643Y63870D01*
X254608Y63553D01*
X254537Y63271D01*
X254466Y62989D01*
X254361Y62777D01*
X254290Y62601D01*
X254255Y62460D01*
X254220Y62425D01*
X254043Y62072D01*
X253797Y61684D01*
X253550Y61296D01*
X253268Y60944D01*
X253021Y60627D01*
X252810Y60380D01*
X252668Y60239D01*
X252633Y60168D01*
X252492Y60027D01*
X252316Y59851D01*
X251893Y59393D01*
X251364Y58899D01*
X250835Y58370D01*
X250342Y57877D01*
X249919Y57489D01*
X249778Y57313D01*
X249636Y57207D01*
X249566Y57136D01*
X249531Y57101D01*
X248931Y56537D01*
X248403Y56008D01*
X247909Y55515D01*
X247451Y55056D01*
X247028Y54668D01*
X246675Y54281D01*
X246322Y53963D01*
X246040Y53646D01*
X245794Y53399D01*
X245582Y53152D01*
X245406Y52976D01*
X245265Y52835D01*
X245089Y52624D01*
X245018Y52553D01*
X244595Y52024D01*
X244207Y51495D01*
X243855Y51002D01*
X243537Y50544D01*
X243291Y50156D01*
X243114Y49839D01*
X243009Y49627D01*
X242973Y49592D01*
Y49556D01*
X242691Y48957D01*
X242480Y48323D01*
X242304Y47758D01*
X242162Y47230D01*
X242057Y46807D01*
X241986Y46454D01*
Y46313D01*
X241951Y46207D01*
Y46137D01*
X256758D01*
X257675Y50508D01*
X249214D01*
X249707Y51108D01*
X249919Y51390D01*
X250130Y51637D01*
X250306Y51813D01*
X250447Y51954D01*
X250518Y52060D01*
X250553Y52095D01*
X250906Y52447D01*
X251329Y52870D01*
X251822Y53329D01*
X252316Y53787D01*
X252774Y54245D01*
X253162Y54598D01*
X253303Y54739D01*
X253409Y54809D01*
X253479Y54880D01*
X253515Y54915D01*
X254290Y55656D01*
X254960Y56290D01*
X255524Y56854D01*
X255982Y57313D01*
X256335Y57665D01*
X256582Y57912D01*
X256723Y58088D01*
X256758Y58123D01*
X257252Y58723D01*
X257640Y59287D01*
X257992Y59816D01*
X258274Y60274D01*
X258486Y60662D01*
X258627Y60944D01*
X258697Y61120D01*
X258732Y61191D01*
X258944Y61755D01*
X259085Y62284D01*
X259191Y62777D01*
X259261Y63200D01*
X259296Y63588D01*
X259332Y63870D01*
Y64117D01*
X259296Y64646D01*
X259261Y65139D01*
X259014Y66056D01*
X258697Y66867D01*
X258345Y67537D01*
X258168Y67819D01*
X257992Y68065D01*
X257816Y68277D01*
X257675Y68488D01*
X257534Y68629D01*
X257428Y68735D01*
X257393Y68770D01*
X257357Y68806D01*
X256970Y69123D01*
X256582Y69440D01*
X256159Y69687D01*
X255700Y69899D01*
X254819Y70216D01*
X253938Y70427D01*
X253550Y70533D01*
X253197Y70568D01*
X252845Y70604D01*
X252563Y70639D01*
X252316Y70674D01*
D02*
G37*
G36*
X214381D02*
X214064D01*
X213500Y70639D01*
X212936Y70604D01*
X211949Y70392D01*
X211067Y70110D01*
X210679Y69934D01*
X210327Y69758D01*
X209974Y69581D01*
X209692Y69405D01*
X209446Y69264D01*
X209269Y69123D01*
X209093Y69017D01*
X208987Y68911D01*
X208917Y68876D01*
X208881Y68841D01*
X208529Y68488D01*
X208176Y68101D01*
X207612Y67290D01*
X207154Y66408D01*
X206801Y65562D01*
X206660Y65174D01*
X206555Y64822D01*
X206484Y64505D01*
X206378Y64223D01*
X206343Y63976D01*
X206308Y63800D01*
X206273Y63694D01*
Y63658D01*
X210926Y62989D01*
X211103Y63764D01*
X211314Y64399D01*
X211526Y64928D01*
X211737Y65351D01*
X211914Y65668D01*
X212055Y65880D01*
X212160Y66021D01*
X212195Y66056D01*
X212513Y66338D01*
X212865Y66549D01*
X213183Y66726D01*
X213500Y66831D01*
X213782Y66902D01*
X213993Y66937D01*
X214170D01*
X214558Y66902D01*
X214910Y66831D01*
X215228Y66691D01*
X215509Y66549D01*
X215721Y66408D01*
X215862Y66267D01*
X215968Y66197D01*
X216003Y66162D01*
X216250Y65844D01*
X216426Y65527D01*
X216567Y65174D01*
X216638Y64857D01*
X216708Y64575D01*
X216743Y64364D01*
Y64223D01*
Y64152D01*
X216708Y63870D01*
X216673Y63553D01*
X216602Y63271D01*
X216532Y62989D01*
X216426Y62777D01*
X216356Y62601D01*
X216320Y62460D01*
X216285Y62425D01*
X216109Y62072D01*
X215862Y61684D01*
X215615Y61296D01*
X215333Y60944D01*
X215086Y60627D01*
X214875Y60380D01*
X214734Y60239D01*
X214699Y60168D01*
X214558Y60027D01*
X214381Y59851D01*
X213958Y59393D01*
X213429Y58899D01*
X212901Y58370D01*
X212407Y57877D01*
X211984Y57489D01*
X211843Y57313D01*
X211702Y57207D01*
X211631Y57136D01*
X211596Y57101D01*
X210997Y56537D01*
X210468Y56008D01*
X209974Y55515D01*
X209516Y55056D01*
X209093Y54668D01*
X208741Y54281D01*
X208388Y53963D01*
X208106Y53646D01*
X207859Y53399D01*
X207648Y53152D01*
X207471Y52976D01*
X207330Y52835D01*
X207154Y52624D01*
X207083Y52553D01*
X206660Y52024D01*
X206273Y51495D01*
X205920Y51002D01*
X205603Y50544D01*
X205356Y50156D01*
X205180Y49839D01*
X205074Y49627D01*
X205039Y49592D01*
Y49556D01*
X204757Y48957D01*
X204545Y48323D01*
X204369Y47758D01*
X204228Y47230D01*
X204122Y46807D01*
X204052Y46454D01*
Y46313D01*
X204016Y46207D01*
Y46137D01*
X218824D01*
X219740Y50508D01*
X211279D01*
X211772Y51108D01*
X211984Y51390D01*
X212195Y51637D01*
X212372Y51813D01*
X212513Y51954D01*
X212583Y52060D01*
X212619Y52095D01*
X212971Y52447D01*
X213394Y52870D01*
X213888Y53329D01*
X214381Y53787D01*
X214840Y54245D01*
X215228Y54598D01*
X215368Y54739D01*
X215474Y54809D01*
X215545Y54880D01*
X215580Y54915D01*
X216356Y55656D01*
X217026Y56290D01*
X217590Y56854D01*
X218048Y57313D01*
X218400Y57665D01*
X218647Y57912D01*
X218788Y58088D01*
X218824Y58123D01*
X219317Y58723D01*
X219705Y59287D01*
X220057Y59816D01*
X220340Y60274D01*
X220551Y60662D01*
X220692Y60944D01*
X220763Y61120D01*
X220798Y61191D01*
X221009Y61755D01*
X221150Y62284D01*
X221256Y62777D01*
X221327Y63200D01*
X221362Y63588D01*
X221397Y63870D01*
Y64117D01*
X221362Y64646D01*
X221327Y65139D01*
X221080Y66056D01*
X220763Y66867D01*
X220410Y67537D01*
X220234Y67819D01*
X220057Y68065D01*
X219881Y68277D01*
X219740Y68488D01*
X219599Y68629D01*
X219493Y68735D01*
X219458Y68770D01*
X219423Y68806D01*
X219035Y69123D01*
X218647Y69440D01*
X218224Y69687D01*
X217766Y69899D01*
X216884Y70216D01*
X216003Y70427D01*
X215615Y70533D01*
X215263Y70568D01*
X214910Y70604D01*
X214628Y70639D01*
X214381Y70674D01*
D02*
G37*
G36*
X128394Y63835D02*
X123634D01*
X122788Y59790D01*
X119933Y46137D01*
X124657D01*
X128394Y63835D01*
D02*
G37*
G36*
X233878Y70674D02*
X233595D01*
X233031Y70639D01*
X232502Y70568D01*
X232009Y70463D01*
X231515Y70322D01*
X230599Y69969D01*
X229823Y69546D01*
X229471Y69335D01*
X229153Y69123D01*
X228871Y68947D01*
X228660Y68770D01*
X228483Y68629D01*
X228342Y68524D01*
X228272Y68453D01*
X228237Y68418D01*
X227814Y67960D01*
X227390Y67466D01*
X226967Y66937D01*
X226615Y66373D01*
X225945Y65245D01*
X225381Y64117D01*
X225134Y63588D01*
X224923Y63094D01*
X224711Y62671D01*
X224570Y62284D01*
X224464Y61966D01*
X224359Y61719D01*
X224323Y61578D01*
X224288Y61508D01*
X223865Y60098D01*
X223583Y58758D01*
X223371Y57489D01*
X223266Y56890D01*
X223195Y56361D01*
X223160Y55867D01*
X223125Y55409D01*
X223089Y55021D01*
Y54668D01*
X223054Y54386D01*
Y54034D01*
X223089Y53293D01*
X223125Y52588D01*
X223230Y51954D01*
X223336Y51354D01*
X223512Y50790D01*
X223654Y50297D01*
X223830Y49839D01*
X224006Y49415D01*
X224182Y49028D01*
X224359Y48710D01*
X224535Y48464D01*
X224676Y48217D01*
X224782Y48040D01*
X224887Y47935D01*
X224923Y47864D01*
X224958Y47829D01*
X225346Y47441D01*
X225734Y47124D01*
X226121Y46842D01*
X226544Y46595D01*
X226967Y46384D01*
X227355Y46207D01*
X228131Y45960D01*
X228836Y45784D01*
X229118Y45749D01*
X229365Y45714D01*
X229576Y45678D01*
X229858D01*
X230422Y45714D01*
X230951Y45784D01*
X231480Y45890D01*
X231974Y46031D01*
X232855Y46384D01*
X233666Y46807D01*
X234018Y46983D01*
X234300Y47194D01*
X234583Y47371D01*
X234794Y47547D01*
X234970Y47688D01*
X235111Y47794D01*
X235182Y47864D01*
X235217Y47899D01*
X235640Y48323D01*
X236063Y48816D01*
X236804Y49839D01*
X237438Y50896D01*
X238002Y51919D01*
X238214Y52412D01*
X238425Y52835D01*
X238602Y53258D01*
X238743Y53611D01*
X238848Y53893D01*
X238919Y54104D01*
X238990Y54245D01*
Y54281D01*
X239448Y55832D01*
X239800Y57313D01*
X239941Y57982D01*
X240047Y58652D01*
X240153Y59252D01*
X240223Y59851D01*
X240294Y60380D01*
X240329Y60838D01*
X240364Y61261D01*
Y61578D01*
X240400Y61860D01*
Y62248D01*
X240364Y62989D01*
X240329Y63694D01*
X240223Y64328D01*
X240082Y64963D01*
X239941Y65492D01*
X239800Y66021D01*
X239624Y66479D01*
X239448Y66902D01*
X239236Y67290D01*
X239060Y67607D01*
X238919Y67854D01*
X238778Y68101D01*
X238637Y68277D01*
X238531Y68383D01*
X238496Y68453D01*
X238461Y68488D01*
X238108Y68876D01*
X237720Y69194D01*
X237297Y69511D01*
X236909Y69758D01*
X236486Y69969D01*
X236098Y70146D01*
X235323Y70392D01*
X234618Y70568D01*
X234336Y70604D01*
X234089Y70639D01*
X233878Y70674D01*
D02*
G37*
G36*
X172357Y64223D02*
X172040D01*
X171123Y64187D01*
X170242Y64046D01*
X169431Y63870D01*
X168691Y63623D01*
X167985Y63341D01*
X167351Y63024D01*
X166752Y62671D01*
X166223Y62319D01*
X165764Y61931D01*
X165341Y61614D01*
X165024Y61261D01*
X164707Y60979D01*
X164495Y60732D01*
X164354Y60556D01*
X164248Y60415D01*
X164213Y60380D01*
X163861Y59851D01*
X163543Y59287D01*
X163297Y58723D01*
X163050Y58159D01*
X162873Y57595D01*
X162697Y57066D01*
X162450Y56079D01*
X162380Y55620D01*
X162309Y55197D01*
X162274Y54809D01*
X162239Y54492D01*
X162204Y54245D01*
Y54069D01*
Y53928D01*
Y53893D01*
X162239Y53223D01*
X162309Y52588D01*
X162415Y51954D01*
X162556Y51390D01*
X162733Y50861D01*
X162909Y50367D01*
X163120Y49944D01*
X163332Y49521D01*
X163508Y49169D01*
X163720Y48851D01*
X163896Y48569D01*
X164072Y48358D01*
X164213Y48182D01*
X164319Y48040D01*
X164389Y47970D01*
X164425Y47935D01*
X164848Y47547D01*
X165306Y47194D01*
X165800Y46877D01*
X166258Y46630D01*
X166752Y46419D01*
X167245Y46242D01*
X168162Y45960D01*
X168585Y45855D01*
X168973Y45784D01*
X169325Y45749D01*
X169643Y45714D01*
X169889Y45678D01*
X170242D01*
X171194Y45749D01*
X172040Y45890D01*
X172851Y46066D01*
X173521Y46313D01*
X174120Y46560D01*
X174331Y46666D01*
X174543Y46736D01*
X174684Y46842D01*
X174790Y46877D01*
X174860Y46948D01*
X174895D01*
X175636Y47476D01*
X176306Y48111D01*
X176905Y48746D01*
X177399Y49380D01*
X177751Y49980D01*
X177927Y50226D01*
X178033Y50438D01*
X178139Y50614D01*
X178209Y50755D01*
X178280Y50826D01*
Y50861D01*
X174014Y51566D01*
X173767Y51143D01*
X173485Y50755D01*
X173168Y50438D01*
X172851Y50156D01*
X172569Y49909D01*
X172251Y49697D01*
X171934Y49521D01*
X171652Y49415D01*
X171123Y49239D01*
X170876Y49169D01*
X170665Y49133D01*
X170524Y49098D01*
X170277D01*
X169748Y49133D01*
X169255Y49274D01*
X168832Y49451D01*
X168479Y49627D01*
X168162Y49839D01*
X167950Y49980D01*
X167809Y50121D01*
X167774Y50156D01*
X167457Y50579D01*
X167210Y51072D01*
X167034Y51531D01*
X166928Y51989D01*
X166857Y52412D01*
X166787Y52729D01*
Y52941D01*
Y52976D01*
Y53011D01*
Y53152D01*
X166822Y53293D01*
Y53435D01*
Y53470D01*
X178809D01*
X179020Y54527D01*
X179091Y55056D01*
X179126Y55550D01*
X179161Y55938D01*
Y56572D01*
X179126Y57242D01*
X179091Y57841D01*
X178985Y58441D01*
X178844Y58970D01*
X178703Y59498D01*
X178562Y59957D01*
X178386Y60380D01*
X178209Y60768D01*
X177998Y61085D01*
X177822Y61402D01*
X177681Y61649D01*
X177540Y61860D01*
X177399Y62002D01*
X177293Y62107D01*
X177258Y62178D01*
X177222Y62213D01*
X176835Y62566D01*
X176447Y62883D01*
X176024Y63130D01*
X175601Y63376D01*
X175178Y63588D01*
X174755Y63729D01*
X173908Y63976D01*
X173521Y64046D01*
X173168Y64117D01*
X172851Y64152D01*
X172569Y64187D01*
X172357Y64223D01*
D02*
G37*
G36*
X160511Y69934D02*
X155082Y66655D01*
X154518Y63835D01*
X152191D01*
X151451Y60274D01*
X153813D01*
X152297Y53152D01*
X152191Y52624D01*
X152085Y52130D01*
X152015Y51707D01*
X151944Y51319D01*
X151874Y50967D01*
X151803Y50649D01*
X151768Y50403D01*
X151733Y50156D01*
X151698Y49803D01*
X151662Y49556D01*
Y49415D01*
Y49380D01*
X151698Y48746D01*
X151839Y48217D01*
X152015Y47723D01*
X152226Y47335D01*
X152438Y47053D01*
X152614Y46807D01*
X152755Y46666D01*
X152790Y46630D01*
X153284Y46313D01*
X153848Y46066D01*
X154483Y45925D01*
X155082Y45784D01*
X155646Y45714D01*
X155858D01*
X156069Y45678D01*
X156492D01*
X157444Y45714D01*
X157867Y45784D01*
X158255Y45819D01*
X158572Y45890D01*
X158819Y45925D01*
X158960Y45960D01*
X159031D01*
X159771Y49486D01*
X159348Y49451D01*
X158995Y49415D01*
X158713Y49380D01*
X158502D01*
X158361Y49345D01*
X157867D01*
X157585Y49380D01*
X157338Y49451D01*
X157162Y49521D01*
X157056Y49556D01*
X156951Y49627D01*
X156915Y49662D01*
X156880D01*
X156704Y49944D01*
X156598Y50191D01*
X156563Y50438D01*
Y50473D01*
Y50508D01*
Y50579D01*
X156598Y50685D01*
X156633Y51002D01*
X156704Y51354D01*
X156774Y51778D01*
X156845Y52165D01*
X156915Y52483D01*
X156951Y52624D01*
X156986Y52729D01*
Y52765D01*
Y52800D01*
X158537Y60274D01*
X161463D01*
X162204Y63835D01*
X159277D01*
X160511Y69934D01*
D02*
G37*
G36*
X302590Y40799D02*
X297866D01*
X296949Y36498D01*
X301709D01*
X302590Y40799D01*
D02*
G37*
G36*
X208776D02*
X204052D01*
X203135Y36498D01*
X207894D01*
X208776Y40799D01*
D02*
G37*
G36*
X90283D02*
X85559D01*
X84642Y36498D01*
X89402D01*
X90283Y40799D01*
D02*
G37*
G36*
X61832D02*
X57108D01*
X56191Y36498D01*
X60951D01*
X61832Y40799D01*
D02*
G37*
G36*
X222772Y34488D02*
X222561D01*
X221961Y34453D01*
X221397Y34383D01*
X220868Y34277D01*
X220410Y34171D01*
X220022Y34065D01*
X219705Y33960D01*
X219529Y33889D01*
X219458Y33854D01*
X218894Y33572D01*
X218330Y33254D01*
X217801Y32902D01*
X217307Y32585D01*
X216884Y32267D01*
X216532Y32020D01*
X216320Y31844D01*
X216285Y31774D01*
X216250D01*
X216708Y34101D01*
X212195D01*
X208776Y17751D01*
X208494Y16402D01*
X213218D01*
X214734Y23630D01*
X214875Y24194D01*
X214981Y24723D01*
X215122Y25216D01*
X215228Y25639D01*
X215333Y26027D01*
X215439Y26380D01*
X215545Y26662D01*
X215615Y26944D01*
X215686Y27155D01*
X215756Y27367D01*
X215862Y27649D01*
X215933Y27825D01*
X215968Y27860D01*
X216285Y28389D01*
X216602Y28847D01*
X216955Y29235D01*
X217272Y29553D01*
X217554Y29835D01*
X217801Y30011D01*
X217942Y30152D01*
X218013Y30187D01*
X218506Y30469D01*
X218929Y30681D01*
X219317Y30857D01*
X219670Y30963D01*
X219987Y31033D01*
X220198Y31069D01*
X220375D01*
X220727Y31033D01*
X221045Y30998D01*
X221291Y30892D01*
X221503Y30822D01*
X221679Y30716D01*
X221785Y30610D01*
X221855Y30575D01*
X221891Y30540D01*
X222067Y30328D01*
X222208Y30082D01*
X222314Y29835D01*
X222384Y29623D01*
X222419Y29412D01*
X222455Y29235D01*
Y29130D01*
Y29094D01*
Y28989D01*
X222419Y28847D01*
X222349Y28495D01*
X222278Y28037D01*
X222208Y27578D01*
X222102Y27155D01*
X222032Y26767D01*
X221996Y26627D01*
Y26521D01*
X221961Y26450D01*
Y26415D01*
X219811Y16402D01*
X224535D01*
X226685Y26380D01*
X226791Y26838D01*
X226897Y27261D01*
X226967Y27649D01*
X227038Y28001D01*
X227144Y28636D01*
X227214Y29094D01*
X227285Y29482D01*
X227320Y29729D01*
Y29905D01*
X227250Y30646D01*
X227108Y31280D01*
X226932Y31844D01*
X226685Y32338D01*
X226439Y32726D01*
X226262Y33008D01*
X226121Y33149D01*
X226051Y33219D01*
X225522Y33642D01*
X224958Y33960D01*
X224394Y34171D01*
X223830Y34347D01*
X223336Y34418D01*
X222913Y34453D01*
X222772Y34488D01*
D02*
G37*
G36*
X178985D02*
X178668D01*
X177892Y34453D01*
X177152Y34383D01*
X176482Y34277D01*
X175847Y34171D01*
X175248Y33995D01*
X174719Y33819D01*
X174261Y33607D01*
X173803Y33431D01*
X173415Y33219D01*
X173097Y33008D01*
X172815Y32831D01*
X172604Y32690D01*
X172428Y32549D01*
X172287Y32444D01*
X172216Y32373D01*
X172181Y32338D01*
X171899Y32056D01*
X171687Y31739D01*
X171299Y31139D01*
X171017Y30540D01*
X170841Y29976D01*
X170700Y29482D01*
X170665Y29094D01*
X170630Y28953D01*
Y28847D01*
Y28777D01*
Y28742D01*
X170665Y28354D01*
X170700Y28001D01*
X170876Y27332D01*
X171123Y26732D01*
X171441Y26239D01*
X171723Y25851D01*
X171969Y25569D01*
X172146Y25392D01*
X172216Y25322D01*
X172463Y25181D01*
X172745Y25005D01*
X173097Y24828D01*
X173521Y24617D01*
X174402Y24264D01*
X175319Y23877D01*
X176200Y23559D01*
X176588Y23418D01*
X176905Y23312D01*
X177187Y23207D01*
X177434Y23136D01*
X177575Y23066D01*
X177610D01*
X178174Y22889D01*
X178597Y22713D01*
X178950Y22537D01*
X179232Y22396D01*
X179408Y22290D01*
X179549Y22220D01*
X179585Y22184D01*
X179620Y22149D01*
X179831Y21867D01*
X179937Y21585D01*
X179972Y21373D01*
Y21338D01*
Y21303D01*
X179937Y21021D01*
X179867Y20809D01*
X179620Y20422D01*
X179479Y20280D01*
X179373Y20175D01*
X179302Y20104D01*
X179267Y20069D01*
X178879Y19822D01*
X178456Y19646D01*
X177998Y19540D01*
X177575Y19470D01*
X177187Y19399D01*
X176905Y19364D01*
X176623D01*
X176059Y19399D01*
X175565Y19470D01*
X175142Y19540D01*
X174790Y19681D01*
X174508Y19787D01*
X174296Y19857D01*
X174155Y19928D01*
X174120Y19963D01*
X173803Y20210D01*
X173485Y20527D01*
X173239Y20880D01*
X173027Y21232D01*
X172851Y21550D01*
X172710Y21797D01*
X172639Y21973D01*
X172604Y22043D01*
X167985Y21303D01*
X168303Y20386D01*
X168726Y19611D01*
X169219Y18906D01*
X169678Y18341D01*
X170101Y17918D01*
X170453Y17566D01*
X170594Y17460D01*
X170700Y17390D01*
X170771Y17319D01*
X170806D01*
X171229Y17072D01*
X171652Y16861D01*
X172604Y16508D01*
X173591Y16297D01*
X174543Y16120D01*
X175001Y16050D01*
X175389Y16015D01*
X175777Y15979D01*
X176094D01*
X176376Y15944D01*
X176729D01*
X177434Y15979D01*
X178104Y16015D01*
X178703Y16120D01*
X179267Y16226D01*
X179831Y16367D01*
X180290Y16508D01*
X180748Y16684D01*
X181136Y16861D01*
X181488Y17037D01*
X181805Y17213D01*
X182088Y17354D01*
X182299Y17495D01*
X182475Y17601D01*
X182581Y17707D01*
X182652Y17742D01*
X182687Y17777D01*
X183075Y18130D01*
X183392Y18518D01*
X183674Y18870D01*
X183921Y19258D01*
X184132Y19611D01*
X184309Y19999D01*
X184555Y20668D01*
X184732Y21268D01*
X184767Y21514D01*
X184802Y21726D01*
X184837Y21902D01*
Y22043D01*
Y22114D01*
Y22149D01*
X184802Y22502D01*
X184767Y22854D01*
X184591Y23489D01*
X184309Y24053D01*
X183991Y24546D01*
X183674Y24934D01*
X183427Y25252D01*
X183216Y25428D01*
X183181Y25498D01*
X183145D01*
X182898Y25675D01*
X182616Y25851D01*
X182264Y26027D01*
X181911Y26203D01*
X181136Y26556D01*
X180360Y26838D01*
X179620Y27085D01*
X179302Y27190D01*
X179020Y27296D01*
X178774Y27367D01*
X178597Y27437D01*
X178491Y27473D01*
X178456D01*
X178033Y27578D01*
X177681Y27719D01*
X177363Y27825D01*
X177081Y27896D01*
X176799Y28001D01*
X176588Y28072D01*
X176235Y28213D01*
X175988Y28284D01*
X175847Y28354D01*
X175777Y28424D01*
X175742D01*
X175530Y28601D01*
X175389Y28777D01*
X175248Y28953D01*
X175178Y29130D01*
X175142Y29271D01*
X175107Y29412D01*
Y29482D01*
Y29517D01*
X175142Y29764D01*
X175213Y29976D01*
X175424Y30328D01*
X175530Y30469D01*
X175636Y30575D01*
X175706Y30610D01*
X175742Y30646D01*
X176024Y30822D01*
X176376Y30963D01*
X176729Y31033D01*
X177081Y31104D01*
X177399Y31139D01*
X177681Y31174D01*
X177927D01*
X178491Y31139D01*
X178985Y31069D01*
X179408Y30963D01*
X179796Y30857D01*
X180078Y30716D01*
X180325Y30610D01*
X180466Y30540D01*
X180501Y30505D01*
X180783Y30328D01*
X181030Y30082D01*
X181241Y29870D01*
X181383Y29623D01*
X181523Y29412D01*
X181594Y29235D01*
X181665Y29130D01*
Y29094D01*
X186071Y29835D01*
X185825Y30610D01*
X185507Y31280D01*
X185155Y31844D01*
X184767Y32338D01*
X184414Y32726D01*
X184097Y33008D01*
X183886Y33149D01*
X183850Y33219D01*
X183815D01*
X183463Y33431D01*
X183110Y33642D01*
X182299Y33960D01*
X181418Y34171D01*
X180607Y34347D01*
X179831Y34418D01*
X179514Y34453D01*
X179232D01*
X178985Y34488D01*
D02*
G37*
G36*
X313307D02*
X312990D01*
X311933Y34418D01*
X310945Y34242D01*
X310064Y34030D01*
X309288Y33748D01*
X308936Y33607D01*
X308619Y33466D01*
X308372Y33360D01*
X308125Y33254D01*
X307949Y33149D01*
X307808Y33078D01*
X307737Y33043D01*
X307702Y33008D01*
X306856Y32408D01*
X306115Y31739D01*
X305516Y31069D01*
X305023Y30434D01*
X304599Y29835D01*
X304458Y29588D01*
X304317Y29376D01*
X304247Y29200D01*
X304176Y29059D01*
X304106Y28989D01*
Y28953D01*
X303718Y27966D01*
X303401Y27014D01*
X303189Y26098D01*
X303048Y25252D01*
X303013Y24864D01*
X302978Y24546D01*
X302942Y24229D01*
Y23982D01*
X302907Y23771D01*
Y23489D01*
X302942Y22854D01*
X302978Y22255D01*
X303083Y21655D01*
X303224Y21127D01*
X303365Y20633D01*
X303542Y20175D01*
X303718Y19787D01*
X303894Y19399D01*
X304071Y19082D01*
X304247Y18765D01*
X304423Y18518D01*
X304564Y18341D01*
X304705Y18165D01*
X304811Y18060D01*
X304846Y17989D01*
X304881Y17954D01*
X305269Y17601D01*
X305692Y17284D01*
X306115Y17037D01*
X306538Y16790D01*
X306997Y16614D01*
X307455Y16438D01*
X308301Y16191D01*
X308689Y16120D01*
X309077Y16050D01*
X309394Y16015D01*
X309676Y15979D01*
X309923Y15944D01*
X310240D01*
X310804Y15979D01*
X311333Y16015D01*
X312320Y16191D01*
X313202Y16438D01*
X313977Y16755D01*
X314295Y16896D01*
X314577Y17037D01*
X314859Y17178D01*
X315070Y17284D01*
X315247Y17390D01*
X315352Y17460D01*
X315423Y17531D01*
X315458D01*
X316269Y18201D01*
X316939Y18941D01*
X317538Y19716D01*
X318032Y20492D01*
X318384Y21162D01*
X318525Y21444D01*
X318666Y21726D01*
X318772Y21937D01*
X318807Y22078D01*
X318878Y22184D01*
Y22220D01*
X314224Y22995D01*
X313977Y22396D01*
X313695Y21902D01*
X313413Y21479D01*
X313166Y21127D01*
X312920Y20845D01*
X312708Y20668D01*
X312567Y20527D01*
X312532Y20492D01*
X312144Y20210D01*
X311756Y20034D01*
X311368Y19893D01*
X311051Y19787D01*
X310769Y19716D01*
X310557Y19681D01*
X310346D01*
X309923Y19716D01*
X309570Y19822D01*
X309218Y19963D01*
X308936Y20104D01*
X308724Y20245D01*
X308548Y20386D01*
X308442Y20492D01*
X308407Y20527D01*
X308160Y20880D01*
X307984Y21268D01*
X307843Y21655D01*
X307772Y22043D01*
X307702Y22396D01*
X307667Y22678D01*
Y22854D01*
Y22925D01*
X307702Y23630D01*
X307772Y24300D01*
X307878Y24969D01*
X307984Y25569D01*
X308090Y26062D01*
X308195Y26450D01*
X308231Y26591D01*
X308266Y26697D01*
X308301Y26767D01*
Y26803D01*
X308548Y27543D01*
X308865Y28178D01*
X309147Y28707D01*
X309465Y29130D01*
X309711Y29482D01*
X309923Y29729D01*
X310099Y29870D01*
X310135Y29905D01*
X310593Y30258D01*
X311051Y30505D01*
X311474Y30716D01*
X311862Y30822D01*
X312215Y30892D01*
X312461Y30963D01*
X312708D01*
X313131Y30928D01*
X313519Y30857D01*
X313836Y30716D01*
X314118Y30610D01*
X314365Y30469D01*
X314506Y30328D01*
X314612Y30258D01*
X314647Y30222D01*
X314894Y29941D01*
X315105Y29588D01*
X315247Y29235D01*
X315387Y28883D01*
X315458Y28530D01*
X315529Y28284D01*
X315564Y28107D01*
Y28037D01*
X320112Y28495D01*
X320041Y28989D01*
X319935Y29447D01*
X319689Y30293D01*
X319336Y31033D01*
X318948Y31668D01*
X318596Y32162D01*
X318278Y32549D01*
X318173Y32655D01*
X318067Y32761D01*
X318032Y32796D01*
X317996Y32831D01*
X317644Y33113D01*
X317256Y33396D01*
X316410Y33783D01*
X315599Y34101D01*
X314788Y34277D01*
X314083Y34418D01*
X313766Y34453D01*
X313519D01*
X313307Y34488D01*
D02*
G37*
G36*
X292718Y40799D02*
X288100D01*
X284645Y24476D01*
X278017Y40799D01*
X273398D01*
X268286Y16402D01*
X272905D01*
X276360Y32796D01*
X282988Y16402D01*
X287606D01*
X292718Y40799D01*
D02*
G37*
G36*
X51961D02*
X47342D01*
X43887Y24476D01*
X37259Y40799D01*
X32641D01*
X27529Y16402D01*
X32147D01*
X35602Y32796D01*
X42230Y16402D01*
X46849D01*
X51961Y40799D01*
D02*
G37*
G36*
X147890D02*
X142954D01*
X139887Y26168D01*
X139746Y25463D01*
X139570Y24793D01*
X139429Y24229D01*
X139323Y23700D01*
X139182Y23242D01*
X139076Y22854D01*
X138970Y22502D01*
X138865Y22220D01*
X138794Y21973D01*
X138688Y21761D01*
X138618Y21585D01*
X138583Y21479D01*
X138512Y21303D01*
X138477Y21268D01*
X138124Y20880D01*
X137701Y20633D01*
X137278Y20422D01*
X136820Y20280D01*
X136397Y20210D01*
X136080Y20175D01*
X135939Y20140D01*
X135762D01*
X135269Y20175D01*
X134846Y20245D01*
X134493Y20316D01*
X134211Y20457D01*
X133964Y20563D01*
X133823Y20633D01*
X133717Y20704D01*
X133682Y20739D01*
X133471Y20986D01*
X133330Y21268D01*
X133189Y21550D01*
X133118Y21832D01*
X133083Y22114D01*
X133048Y22325D01*
Y22466D01*
Y22502D01*
Y22889D01*
X133083Y23312D01*
Y23489D01*
X133118Y23630D01*
Y23700D01*
Y23735D01*
X128500Y23207D01*
X128464Y22713D01*
X128429Y22325D01*
Y21937D01*
X128464Y21444D01*
X128500Y20950D01*
X128711Y20069D01*
X128993Y19329D01*
X129311Y18694D01*
X129628Y18201D01*
X129769Y17989D01*
X129875Y17813D01*
X130016Y17707D01*
X130086Y17601D01*
X130121Y17566D01*
X130157Y17531D01*
X130509Y17249D01*
X130897Y17002D01*
X131708Y16614D01*
X132589Y16332D01*
X133435Y16156D01*
X133858Y16085D01*
X134211Y16015D01*
X134564Y15979D01*
X134846D01*
X135092Y15944D01*
X135410D01*
X136150Y15979D01*
X136855Y16050D01*
X137525Y16120D01*
X138124Y16261D01*
X138688Y16438D01*
X139182Y16614D01*
X139640Y16790D01*
X140028Y17002D01*
X140381Y17178D01*
X140698Y17354D01*
X140945Y17531D01*
X141156Y17707D01*
X141333Y17848D01*
X141438Y17918D01*
X141509Y17989D01*
X141544Y18024D01*
X141897Y18447D01*
X142249Y18976D01*
X142602Y19540D01*
X142884Y20140D01*
X143448Y21444D01*
X143906Y22784D01*
X144118Y23418D01*
X144294Y24018D01*
X144435Y24546D01*
X144576Y25040D01*
X144647Y25428D01*
X144717Y25745D01*
X144788Y25921D01*
Y25992D01*
X147890Y40799D01*
D02*
G37*
G36*
X250765Y36921D02*
X246499D01*
Y30610D01*
X240118D01*
Y26239D01*
X246499D01*
Y19928D01*
X250765D01*
Y26239D01*
X257181D01*
Y30610D01*
X250765D01*
Y36921D01*
D02*
G37*
G36*
X111436D02*
X107170D01*
Y30610D01*
X100789D01*
Y26239D01*
X107170D01*
Y19928D01*
X111436D01*
Y26239D01*
X117853D01*
Y30610D01*
X111436D01*
Y36921D01*
D02*
G37*
G36*
X166893Y34101D02*
X162133D01*
X160229Y25639D01*
X160088Y25075D01*
X159983Y24617D01*
X159877Y24194D01*
X159771Y23877D01*
X159700Y23595D01*
X159630Y23418D01*
X159595Y23312D01*
Y23277D01*
X159454Y22889D01*
X159277Y22537D01*
X159136Y22255D01*
X158995Y21973D01*
X158890Y21797D01*
X158784Y21620D01*
X158749Y21550D01*
X158713Y21514D01*
X158361Y21056D01*
X158008Y20704D01*
X157867Y20563D01*
X157761Y20457D01*
X157691Y20386D01*
X157656Y20351D01*
X157233Y20034D01*
X156880Y19787D01*
X156739Y19716D01*
X156633Y19646D01*
X156563Y19611D01*
X156528D01*
X156140Y19470D01*
X155787Y19399D01*
X155646Y19364D01*
X155435D01*
X155153Y19399D01*
X154906Y19434D01*
X154694Y19540D01*
X154483Y19646D01*
X154342Y19716D01*
X154236Y19822D01*
X154165Y19857D01*
X154130Y19893D01*
X153954Y20104D01*
X153848Y20351D01*
X153707Y20774D01*
X153672Y20950D01*
X153637Y21091D01*
Y21197D01*
Y21232D01*
X153672Y21479D01*
X153707Y21797D01*
X153778Y22184D01*
X153848Y22572D01*
X153919Y22960D01*
X153989Y23277D01*
X154060Y23489D01*
Y23524D01*
Y23559D01*
X156422Y34101D01*
X151592D01*
X149371Y24229D01*
X149265Y23735D01*
X149159Y23277D01*
X149089Y22854D01*
X149018Y22502D01*
X148983Y22149D01*
X148912Y21867D01*
X148842Y21373D01*
X148807Y20986D01*
X148771Y20739D01*
Y20563D01*
X148807Y19822D01*
X148948Y19152D01*
X149124Y18553D01*
X149335Y18095D01*
X149547Y17707D01*
X149723Y17425D01*
X149864Y17249D01*
X149900Y17178D01*
X150358Y16755D01*
X150887Y16473D01*
X151416Y16261D01*
X151909Y16085D01*
X152367Y16015D01*
X152755Y15979D01*
X152896Y15944D01*
X153073D01*
X153672Y15979D01*
X154236Y16050D01*
X154800Y16191D01*
X155329Y16367D01*
X156316Y16790D01*
X156774Y17037D01*
X157197Y17319D01*
X157585Y17566D01*
X157902Y17813D01*
X158220Y18024D01*
X158467Y18236D01*
X158643Y18412D01*
X158819Y18553D01*
X158890Y18623D01*
X158925Y18659D01*
X158431Y16402D01*
X162909D01*
X166893Y34101D01*
D02*
G37*
G36*
X330935Y40799D02*
X326211D01*
X321099Y16402D01*
X325823D01*
X326951Y21655D01*
X330230Y24617D01*
X332698Y16402D01*
X337492D01*
X333650Y27719D01*
X340771Y34101D01*
X334566D01*
X328291Y28072D01*
X330935Y40799D01*
D02*
G37*
G36*
X301215Y34101D02*
X296455D01*
X292754Y16402D01*
X297478D01*
X301215Y34101D01*
D02*
G37*
G36*
X207401D02*
X202641D01*
X199539Y19268D01*
X198940Y16402D01*
X203664D01*
X207401Y34101D01*
D02*
G37*
G36*
X88908D02*
X84149D01*
X81046Y19268D01*
X80447Y16402D01*
X85171D01*
X88908Y34101D01*
D02*
G37*
G36*
X71210Y40799D02*
X66486D01*
X61374Y16402D01*
X66098D01*
X67226Y21655D01*
X70505Y24617D01*
X72973Y16402D01*
X77767D01*
X73925Y27719D01*
X81046Y34101D01*
X74841D01*
X68566Y28072D01*
X71210Y40799D01*
D02*
G37*
G36*
X60457Y34101D02*
X55698D01*
X51996Y16402D01*
X56720D01*
X60457Y34101D01*
D02*
G37*
G36*
X197847Y40200D02*
X192417Y36921D01*
X191853Y34101D01*
X189526D01*
X188786Y30540D01*
X191148D01*
X189632Y23418D01*
X189526Y22889D01*
X189421Y22396D01*
X189350Y21973D01*
X189280Y21585D01*
X189209Y21232D01*
X189139Y20915D01*
X189103Y20668D01*
X189068Y20422D01*
X189033Y20069D01*
X188998Y19822D01*
Y19681D01*
Y19646D01*
X189033Y19011D01*
X189174Y18483D01*
X189350Y17989D01*
X189562Y17601D01*
X189773Y17319D01*
X189949Y17072D01*
X190091Y16931D01*
X190126Y16896D01*
X190619Y16579D01*
X191183Y16332D01*
X191818Y16191D01*
X192417Y16050D01*
X192981Y15979D01*
X193193D01*
X193405Y15944D01*
X193828D01*
X194779Y15979D01*
X195203Y16050D01*
X195590Y16085D01*
X195908Y16156D01*
X196154Y16191D01*
X196295Y16226D01*
X196366D01*
X197106Y19752D01*
X196683Y19716D01*
X196331Y19681D01*
X196049Y19646D01*
X195837D01*
X195696Y19611D01*
X195203D01*
X194921Y19646D01*
X194674Y19716D01*
X194497Y19787D01*
X194392Y19822D01*
X194286Y19893D01*
X194251Y19928D01*
X194215D01*
X194039Y20210D01*
X193933Y20457D01*
X193898Y20704D01*
Y20739D01*
Y20774D01*
Y20845D01*
X193933Y20950D01*
X193969Y21268D01*
X194039Y21620D01*
X194110Y22043D01*
X194180Y22431D01*
X194251Y22748D01*
X194286Y22889D01*
X194321Y22995D01*
Y23030D01*
Y23066D01*
X195872Y30540D01*
X198799D01*
X199539Y34101D01*
X196613D01*
X197847Y40200D01*
D02*
G37*
%LPD*%
G36*
X349426Y120060D02*
X349285Y119460D01*
X349144Y118932D01*
X349003Y118473D01*
X348862Y118121D01*
X348756Y117839D01*
X348651Y117662D01*
X348615Y117521D01*
X348580Y117486D01*
X348404Y117169D01*
X348157Y116922D01*
X347910Y116675D01*
X347699Y116499D01*
X347487Y116323D01*
X347311Y116217D01*
X347170Y116146D01*
X347135Y116111D01*
X346782Y115935D01*
X346430Y115829D01*
X346077Y115723D01*
X345760Y115688D01*
X345513Y115653D01*
X345302Y115618D01*
X345125D01*
X344773Y115653D01*
X344455Y115723D01*
X344173Y115794D01*
X343962Y115900D01*
X343786Y116005D01*
X343644Y116111D01*
X343574Y116146D01*
X343539Y116182D01*
X343327Y116393D01*
X343186Y116640D01*
X343080Y116887D01*
X343010Y117098D01*
X342975Y117310D01*
X342939Y117451D01*
Y117557D01*
Y117592D01*
X342975Y117944D01*
X343045Y118262D01*
X343186Y118544D01*
X343327Y118791D01*
X343468Y118967D01*
X343609Y119108D01*
X343680Y119178D01*
X343715Y119214D01*
X343962Y119355D01*
X344244Y119496D01*
X344561Y119637D01*
X344914Y119778D01*
X345689Y119989D01*
X346465Y120166D01*
X347205Y120307D01*
X347523Y120377D01*
X347840Y120412D01*
X348051Y120448D01*
X348263D01*
X348369Y120483D01*
X348404D01*
X348898Y120553D01*
X349250Y120659D01*
X349391Y120694D01*
X349497D01*
X349532Y120730D01*
X349567D01*
X349426Y120060D01*
D02*
G37*
G36*
X236292Y121964D02*
X229488D01*
X234847Y131764D01*
X236292Y121964D01*
D02*
G37*
G36*
X152385Y120060D02*
X152244Y119460D01*
X152103Y118932D01*
X151962Y118473D01*
X151821Y118121D01*
X151715Y117839D01*
X151609Y117662D01*
X151574Y117521D01*
X151539Y117486D01*
X151363Y117169D01*
X151116Y116922D01*
X150869Y116675D01*
X150658Y116499D01*
X150446Y116323D01*
X150270Y116217D01*
X150129Y116146D01*
X150093Y116111D01*
X149741Y115935D01*
X149388Y115829D01*
X149036Y115723D01*
X148719Y115688D01*
X148472Y115653D01*
X148260Y115618D01*
X148084D01*
X147731Y115653D01*
X147414Y115723D01*
X147132Y115794D01*
X146920Y115900D01*
X146744Y116005D01*
X146603Y116111D01*
X146533Y116146D01*
X146497Y116182D01*
X146286Y116393D01*
X146145Y116640D01*
X146039Y116887D01*
X145969Y117098D01*
X145933Y117310D01*
X145898Y117451D01*
Y117557D01*
Y117592D01*
X145933Y117944D01*
X146004Y118262D01*
X146145Y118544D01*
X146286Y118791D01*
X146427Y118967D01*
X146568Y119108D01*
X146638Y119178D01*
X146674Y119214D01*
X146920Y119355D01*
X147203Y119496D01*
X147520Y119637D01*
X147872Y119778D01*
X148648Y119989D01*
X149424Y120166D01*
X150164Y120307D01*
X150481Y120377D01*
X150799Y120412D01*
X151010Y120448D01*
X151222D01*
X151327Y120483D01*
X151363D01*
X151856Y120553D01*
X152209Y120659D01*
X152350Y120694D01*
X152456D01*
X152491Y120730D01*
X152526D01*
X152385Y120060D01*
D02*
G37*
G36*
X132607Y132822D02*
X132924D01*
X133488Y132787D01*
X133876Y132716D01*
X134193Y132681D01*
X134405Y132611D01*
X134511Y132575D01*
X134546D01*
X135004Y132329D01*
X135357Y132082D01*
X135568Y131870D01*
X135639Y131800D01*
Y131764D01*
X135780Y131553D01*
X135886Y131306D01*
X136027Y130848D01*
Y130636D01*
X136062Y130460D01*
Y130354D01*
Y130319D01*
X136027Y129825D01*
X135956Y129402D01*
X135815Y128979D01*
X135674Y128627D01*
X135533Y128345D01*
X135392Y128098D01*
X135322Y127957D01*
X135286Y127922D01*
X134969Y127569D01*
X134616Y127252D01*
X134264Y126970D01*
X133947Y126758D01*
X133629Y126582D01*
X133383Y126476D01*
X133242Y126406D01*
X133171Y126370D01*
X132889Y126300D01*
X132572Y126194D01*
X132184Y126159D01*
X131796Y126088D01*
X130915Y125983D01*
X130033Y125947D01*
X129222Y125912D01*
X128835Y125877D01*
X126332D01*
X127812Y132857D01*
X132254D01*
X132607Y132822D01*
D02*
G37*
G36*
X288153Y127111D02*
X288611Y127005D01*
X289034Y126829D01*
X289352Y126652D01*
X289634Y126476D01*
X289810Y126300D01*
X289951Y126194D01*
X289986Y126159D01*
X290268Y125736D01*
X290480Y125278D01*
X290656Y124784D01*
X290762Y124326D01*
X290832Y123867D01*
X290868Y123515D01*
Y123374D01*
Y123268D01*
Y123233D01*
Y123197D01*
Y123056D01*
Y122915D01*
Y122774D01*
Y122739D01*
X283358D01*
X283534Y123515D01*
X283781Y124149D01*
X284063Y124713D01*
X284310Y125172D01*
X284557Y125560D01*
X284768Y125806D01*
X284909Y125983D01*
X284945Y126018D01*
X285403Y126406D01*
X285861Y126688D01*
X286320Y126864D01*
X286743Y127005D01*
X287095Y127076D01*
X287377Y127146D01*
X287624D01*
X288153Y127111D01*
D02*
G37*
G36*
X202342Y90325D02*
X202201Y89726D01*
X202060Y89197D01*
X201919Y88739D01*
X201778Y88386D01*
X201672Y88104D01*
X201566Y87928D01*
X201531Y87787D01*
X201496Y87752D01*
X201319Y87435D01*
X201073Y87188D01*
X200826Y86941D01*
X200614Y86765D01*
X200403Y86588D01*
X200226Y86483D01*
X200085Y86412D01*
X200050Y86377D01*
X199697Y86201D01*
X199345Y86095D01*
X198992Y85989D01*
X198675Y85954D01*
X198428Y85919D01*
X198217Y85883D01*
X198041D01*
X197688Y85919D01*
X197371Y85989D01*
X197089Y86060D01*
X196877Y86165D01*
X196701Y86271D01*
X196560Y86377D01*
X196489Y86412D01*
X196454Y86447D01*
X196243Y86659D01*
X196101Y86906D01*
X195996Y87153D01*
X195925Y87364D01*
X195890Y87576D01*
X195855Y87717D01*
Y87822D01*
Y87858D01*
X195890Y88210D01*
X195961Y88527D01*
X196101Y88810D01*
X196243Y89056D01*
X196384Y89233D01*
X196525Y89374D01*
X196595Y89444D01*
X196630Y89479D01*
X196877Y89620D01*
X197159Y89761D01*
X197477Y89902D01*
X197829Y90043D01*
X198605Y90255D01*
X199380Y90431D01*
X200121Y90572D01*
X200438Y90643D01*
X200755Y90678D01*
X200967Y90713D01*
X201178D01*
X201284Y90749D01*
X201319D01*
X201813Y90819D01*
X202165Y90925D01*
X202306Y90960D01*
X202412D01*
X202447Y90995D01*
X202483D01*
X202342Y90325D01*
D02*
G37*
G36*
X155523Y92229D02*
X148719D01*
X154077Y102030D01*
X155523Y92229D01*
D02*
G37*
G36*
X233772Y66831D02*
X234124Y66726D01*
X234406Y66585D01*
X234618Y66444D01*
X234829Y66303D01*
X234970Y66162D01*
X235041Y66056D01*
X235076Y66021D01*
X235288Y65668D01*
X235464Y65280D01*
X235570Y64822D01*
X235676Y64399D01*
X235711Y64011D01*
X235746Y63694D01*
Y63447D01*
Y63412D01*
Y63376D01*
Y62953D01*
X235711Y62460D01*
X235605Y61473D01*
X235464Y60450D01*
X235323Y59463D01*
X235217Y59005D01*
X235147Y58582D01*
X235076Y58194D01*
X235006Y57877D01*
X234935Y57630D01*
X234900Y57418D01*
X234865Y57277D01*
Y57242D01*
X234653Y56361D01*
X234442Y55550D01*
X234230Y54845D01*
X234018Y54175D01*
X233807Y53576D01*
X233595Y53047D01*
X233419Y52553D01*
X233208Y52165D01*
X233031Y51813D01*
X232890Y51495D01*
X232749Y51249D01*
X232644Y51072D01*
X232538Y50896D01*
X232467Y50790D01*
X232397Y50755D01*
Y50720D01*
X231974Y50297D01*
X231586Y50015D01*
X231163Y49803D01*
X230810Y49627D01*
X230493Y49556D01*
X230211Y49521D01*
X230070Y49486D01*
X229999D01*
X229647Y49521D01*
X229294Y49592D01*
X229012Y49733D01*
X228801Y49874D01*
X228589Y50015D01*
X228448Y50156D01*
X228378Y50226D01*
X228342Y50262D01*
X228131Y50614D01*
X227990Y51037D01*
X227849Y51495D01*
X227778Y51954D01*
X227743Y52377D01*
X227708Y52729D01*
Y52870D01*
Y52976D01*
Y53011D01*
Y53047D01*
X227743Y54034D01*
X227849Y55092D01*
X227990Y56114D01*
X228166Y57136D01*
X228237Y57595D01*
X228307Y58018D01*
X228378Y58405D01*
X228448Y58723D01*
X228519Y59005D01*
X228554Y59181D01*
X228589Y59322D01*
Y59357D01*
X228801Y60168D01*
X229012Y60909D01*
X229224Y61614D01*
X229435Y62213D01*
X229647Y62812D01*
X229858Y63306D01*
X230070Y63764D01*
X230281Y64187D01*
X230458Y64540D01*
X230599Y64822D01*
X230775Y65069D01*
X230881Y65280D01*
X230986Y65421D01*
X231057Y65562D01*
X231128Y65598D01*
Y65633D01*
X231515Y66056D01*
X231903Y66338D01*
X232291Y66549D01*
X232644Y66726D01*
X232961Y66796D01*
X233208Y66831D01*
X233349Y66867D01*
X233419D01*
X233772Y66831D01*
D02*
G37*
G36*
X172075Y60768D02*
X172533Y60662D01*
X172957Y60486D01*
X173274Y60309D01*
X173556Y60133D01*
X173732Y59957D01*
X173873Y59851D01*
X173908Y59816D01*
X174190Y59393D01*
X174402Y58934D01*
X174578Y58441D01*
X174684Y57982D01*
X174755Y57524D01*
X174790Y57172D01*
Y57031D01*
Y56925D01*
Y56890D01*
Y56854D01*
Y56713D01*
Y56572D01*
Y56431D01*
Y56396D01*
X167280D01*
X167457Y57172D01*
X167703Y57806D01*
X167985Y58370D01*
X168232Y58829D01*
X168479Y59216D01*
X168691Y59463D01*
X168832Y59639D01*
X168867Y59675D01*
X169325Y60062D01*
X169783Y60345D01*
X170242Y60521D01*
X170665Y60662D01*
X171017Y60732D01*
X171299Y60803D01*
X171546D01*
X172075Y60768D01*
D02*
G37*
D10*
X0Y0D02*
X2032000D01*
X0Y1016000D02*
X2032000D01*
Y0D02*
Y1016000D01*
X0Y0D02*
Y1016000D01*
M02*
