  0
SECTION
  2
HEADER
  9
$ACADVER
  1
AC1009
  9
$INSUNITS
  70
4
  9
$EXTMIN
  10
26.3492
  20
10.62743
  9
$EXTMAX
  10
90.698602
  20
128
  0
ENDSEC
  0
SECTION
  2
TABLES
  0
TABLE
  2
LTYPE
  70
1
  0
LTYPE
  2
CONTINUOUS
  70
64
  3
Solid line
  72
65
  73
0
  40
0
  0
ENDTAB
  0
TABLE
  2
LAYER
  70
1
  0
LAYER
  2
Copper
  70
0
  62
136
  6
CONTINUOUS
  0
ENDTAB
  0
ENDSEC
  0
SECTION
  2
BLOCKS
  0
ENDSEC
  0
SECTION
  2
ENTITIES
  0
POLYLINE
  8
Copper
  70
1
  66
1
  0
VERTEX
  8
Copper
  10
49.6492
  20
38.38923
  0
VERTEX
  8
Copper
  10
49.649155
  20
38.38923
  0
VERTEX
  8
Copper
  10
49.6492
  20
38.3882
  0
VERTEX
  8
Copper
  10
49.659429
  20
38.153909
  0
VERTEX
  8
Copper
  10
49.690174
  20
37.92038
  0
VERTEX
  8
Copper
  10
49.741155
  20
37.690419
  0
VERTEX
  8
Copper
  10
49.811985
  20
37.465776
  0
VERTEX
  8
Copper
  10
49.902124
  20
37.248161
  0
VERTEX
  8
Copper
  10
50.010886
  20
37.03923
  0
VERTEX
  8
Copper
  10
50.137444
  20
36.840574
  0
VERTEX
  8
Copper
  10
50.280835
  20
36.653703
  0
VERTEX
  8
Copper
  10
50.439967
  20
36.480042
  0
VERTEX
  8
Copper
  10
50.613628
  20
36.32091
  0
VERTEX
  8
Copper
  10
50.800499
  20
36.177519
  0
VERTEX
  8
Copper
  10
50.999155
  20
36.050961
  0
VERTEX
  8
Copper
  10
51.208086
  20
35.942199
  0
VERTEX
  8
Copper
  10
51.425701
  20
35.85206
  0
VERTEX
  8
Copper
  10
51.650344
  20
35.78123
  0
VERTEX
  8
Copper
  10
51.880305
  20
35.730249
  0
VERTEX
  8
Copper
  10
52.113834
  20
35.699504
  0
VERTEX
  8
Copper
  10
52.349155
  20
35.68923
  0
VERTEX
  8
Copper
  10
58.049155
  20
35.68923
  0
VERTEX
  8
Copper
  10
58.049155
  20
24.48923
  0
VERTEX
  8
Copper
  10
58.058753
  20
24.281626
  0
VERTEX
  8
Copper
  10
58.087466
  20
24.075794
  0
VERTEX
  8
Copper
  10
58.135047
  20
23.873488
  0
VERTEX
  8
Copper
  10
58.201092
  20
23.676436
  0
VERTEX
  8
Copper
  10
58.285038
  20
23.486319
  0
VERTEX
  8
Copper
  10
58.386166
  20
23.304758
  0
VERTEX
  8
Copper
  10
58.503616
  20
23.133302
  0
VERTEX
  8
Copper
  10
58.636385
  20
22.973415
  0
VERTEX
  8
Copper
  10
58.78334
  20
22.82646
  0
VERTEX
  8
Copper
  10
58.943227
  20
22.693691
  0
VERTEX
  8
Copper
  10
59.114683
  20
22.576241
  0
VERTEX
  8
Copper
  10
59.296244
  20
22.475113
  0
VERTEX
  8
Copper
  10
59.486361
  20
22.391167
  0
VERTEX
  8
Copper
  10
59.683413
  20
22.325122
  0
VERTEX
  8
Copper
  10
59.885719
  20
22.277541
  0
VERTEX
  8
Copper
  10
60.091551
  20
22.248828
  0
VERTEX
  8
Copper
  10
60.299155
  20
22.23923
  0
VERTEX
  8
Copper
  10
71.699155
  20
22.23923
  0
VERTEX
  8
Copper
  10
71.699155
  20
10.62743
  0
VERTEX
  8
Copper
  10
90.698355
  20
10.62743
  0
VERTEX
  8
Copper
  10
90.698355
  20
34.35103
  0
VERTEX
  8
Copper
  10
71.699155
  20
34.35103
  0
VERTEX
  8
Copper
  10
71.699155
  20
22.73923
  0
VERTEX
  8
Copper
  10
60.299155
  20
22.73923
  0
VERTEX
  8
Copper
  10
60.137685
  20
22.746695
  0
VERTEX
  8
Copper
  10
59.977593
  20
22.769027
  0
VERTEX
  8
Copper
  10
59.820245
  20
22.806035
  0
VERTEX
  8
Copper
  10
59.666982
  20
22.857404
  0
VERTEX
  8
Copper
  10
59.519113
  20
22.922694
  0
VERTEX
  8
Copper
  10
59.377899
  20
23.00135
  0
VERTEX
  8
Copper
  10
59.244544
  20
23.0927
  0
VERTEX
  8
Copper
  10
59.120188
  20
23.195964
  0
VERTEX
  8
Copper
  10
59.005889
  20
23.310263
  0
VERTEX
  8
Copper
  10
58.902625
  20
23.434619
  0
VERTEX
  8
Copper
  10
58.811275
  20
23.567974
  0
VERTEX
  8
Copper
  10
58.732619
  20
23.709188
  0
VERTEX
  8
Copper
  10
58.667329
  20
23.857057
  0
VERTEX
  8
Copper
  10
58.61596
  20
24.01032
  0
VERTEX
  8
Copper
  10
58.578952
  20
24.167668
  0
VERTEX
  8
Copper
  10
58.55662
  20
24.32776
  0
VERTEX
  8
Copper
  10
58.549155
  20
24.48923
  0
VERTEX
  8
Copper
  10
58.549155
  20
48.28923
  0
VERTEX
  8
Copper
  10
58.548922
  20
48.28923
  0
VERTEX
  8
Copper
  10
58.556382
  20
48.450595
  0
VERTEX
  8
Copper
  10
58.578714
  20
48.610687
  0
VERTEX
  8
Copper
  10
58.615722
  20
48.768035
  0
VERTEX
  8
Copper
  10
58.667091
  20
48.921298
  0
VERTEX
  8
Copper
  10
58.732381
  20
49.069167
  0
VERTEX
  8
Copper
  10
58.811037
  20
49.210381
  0
VERTEX
  8
Copper
  10
58.902387
  20
49.343736
  0
VERTEX
  8
Copper
  10
59.005651
  20
49.468092
  0
VERTEX
  8
Copper
  10
59.11995
  20
49.582391
  0
VERTEX
  8
Copper
  10
59.244306
  20
49.685655
  0
VERTEX
  8
Copper
  10
59.377661
  20
49.777005
  0
VERTEX
  8
Copper
  10
59.518875
  20
49.855661
  0
VERTEX
  8
Copper
  10
59.666744
  20
49.920951
  0
VERTEX
  8
Copper
  10
59.820007
  20
49.97232
  0
VERTEX
  8
Copper
  10
59.977355
  20
50.009328
  0
VERTEX
  8
Copper
  10
60.137447
  20
50.03166
  0
VERTEX
  8
Copper
  10
60.298917
  20
50.039125
  0
VERTEX
  8
Copper
  10
71.698917
  20
50.039125
  0
VERTEX
  8
Copper
  10
71.698917
  20
38.427325
  0
VERTEX
  8
Copper
  10
90.698117
  20
38.427325
  0
VERTEX
  8
Copper
  10
90.698117
  20
62.150925
  0
VERTEX
  8
Copper
  10
71.698917
  20
62.150925
  0
VERTEX
  8
Copper
  10
71.698917
  20
50.539125
  0
VERTEX
  8
Copper
  10
60.298917
  20
50.539125
  0
VERTEX
  8
Copper
  10
60.091313
  20
50.529527
  0
VERTEX
  8
Copper
  10
59.885481
  20
50.500814
  0
VERTEX
  8
Copper
  10
59.683175
  20
50.453233
  0
VERTEX
  8
Copper
  10
59.486123
  20
50.387188
  0
VERTEX
  8
Copper
  10
59.296006
  20
50.303242
  0
VERTEX
  8
Copper
  10
59.114445
  20
50.202114
  0
VERTEX
  8
Copper
  10
58.942989
  20
50.084664
  0
VERTEX
  8
Copper
  10
58.783102
  20
49.951895
  0
VERTEX
  8
Copper
  10
58.636147
  20
49.80494
  0
VERTEX
  8
Copper
  10
58.503378
  20
49.645053
  0
VERTEX
  8
Copper
  10
58.385928
  20
49.473597
  0
VERTEX
  8
Copper
  10
58.2848
  20
49.292036
  0
VERTEX
  8
Copper
  10
58.200854
  20
49.101919
  0
VERTEX
  8
Copper
  10
58.134809
  20
48.904867
  0
VERTEX
  8
Copper
  10
58.087228
  20
48.702561
  0
VERTEX
  8
Copper
  10
58.058515
  20
48.496729
  0
VERTEX
  8
Copper
  10
58.048917
  20
48.289125
  0
VERTEX
  8
Copper
  10
58.049155
  20
48.289125
  0
VERTEX
  8
Copper
  10
58.049155
  20
37.08923
  0
VERTEX
  8
Copper
  10
52.349155
  20
37.08923
  0
VERTEX
  8
Copper
  10
52.123412
  20
37.10898
  0
VERTEX
  8
Copper
  10
51.904529
  20
37.16763
  0
VERTEX
  8
Copper
  10
51.699155
  20
37.263397
  0
VERTEX
  8
Copper
  10
51.513531
  20
37.393372
  0
VERTEX
  8
Copper
  10
51.353297
  20
37.553606
  0
VERTEX
  8
Copper
  10
51.223322
  20
37.73923
  0
VERTEX
  8
Copper
  10
51.127555
  20
37.944604
  0
VERTEX
  8
Copper
  10
51.068905
  20
38.163487
  0
VERTEX
  8
Copper
  10
51.0492
  20
38.388716
  0
VERTEX
  8
Copper
  10
51.0492
  20
100.0382
  0
VERTEX
  8
Copper
  10
51.06895
  20
100.263943
  0
VERTEX
  8
Copper
  10
51.1276
  20
100.482826
  0
VERTEX
  8
Copper
  10
51.223367
  20
100.6882
  0
VERTEX
  8
Copper
  10
51.353342
  20
100.873824
  0
VERTEX
  8
Copper
  10
51.513576
  20
101.034058
  0
VERTEX
  8
Copper
  10
51.6992
  20
101.164033
  0
VERTEX
  8
Copper
  10
51.904574
  20
101.2598
  0
VERTEX
  8
Copper
  10
52.123457
  20
101.31845
  0
VERTEX
  8
Copper
  10
52.3492
  20
101.3382
  0
VERTEX
  8
Copper
  10
58.0492
  20
101.3382
  0
VERTEX
  8
Copper
  10
58.0492
  20
89.9382
  0
VERTEX
  8
Copper
  10
58.049402
  20
89.9382
  0
VERTEX
  8
Copper
  10
58.059
  20
89.730596
  0
VERTEX
  8
Copper
  10
58.087713
  20
89.524764
  0
VERTEX
  8
Copper
  10
58.135294
  20
89.322458
  0
VERTEX
  8
Copper
  10
58.201339
  20
89.125406
  0
VERTEX
  8
Copper
  10
58.285285
  20
88.935289
  0
VERTEX
  8
Copper
  10
58.386413
  20
88.753728
  0
VERTEX
  8
Copper
  10
58.503863
  20
88.582272
  0
VERTEX
  8
Copper
  10
58.636632
  20
88.422385
  0
VERTEX
  8
Copper
  10
58.783587
  20
88.27543
  0
VERTEX
  8
Copper
  10
58.943474
  20
88.142661
  0
VERTEX
  8
Copper
  10
59.11493
  20
88.025211
  0
VERTEX
  8
Copper
  10
59.296491
  20
87.924083
  0
VERTEX
  8
Copper
  10
59.486608
  20
87.840137
  0
VERTEX
  8
Copper
  10
59.68366
  20
87.774092
  0
VERTEX
  8
Copper
  10
59.885966
  20
87.726511
  0
VERTEX
  8
Copper
  10
60.091798
  20
87.697798
  0
VERTEX
  8
Copper
  10
60.299402
  20
87.6882
  0
VERTEX
  8
Copper
  10
71.699402
  20
87.6882
  0
VERTEX
  8
Copper
  10
71.699402
  20
76.0764
  0
VERTEX
  8
Copper
  10
90.698602
  20
76.0764
  0
VERTEX
  8
Copper
  10
90.698602
  20
99.8
  0
VERTEX
  8
Copper
  10
71.699402
  20
99.8
  0
VERTEX
  8
Copper
  10
71.699402
  20
88.1882
  0
VERTEX
  8
Copper
  10
60.299402
  20
88.1882
  0
VERTEX
  8
Copper
  10
60.137932
  20
88.195665
  0
VERTEX
  8
Copper
  10
59.97784
  20
88.217997
  0
VERTEX
  8
Copper
  10
59.820492
  20
88.255005
  0
VERTEX
  8
Copper
  10
59.667229
  20
88.306374
  0
VERTEX
  8
Copper
  10
59.51936
  20
88.371664
  0
VERTEX
  8
Copper
  10
59.378146
  20
88.45032
  0
VERTEX
  8
Copper
  10
59.244791
  20
88.54167
  0
VERTEX
  8
Copper
  10
59.120435
  20
88.644934
  0
VERTEX
  8
Copper
  10
59.006136
  20
88.759233
  0
VERTEX
  8
Copper
  10
58.902872
  20
88.883589
  0
VERTEX
  8
Copper
  10
58.811522
  20
89.016944
  0
VERTEX
  8
Copper
  10
58.732866
  20
89.158158
  0
VERTEX
  8
Copper
  10
58.667576
  20
89.306027
  0
VERTEX
  8
Copper
  10
58.616207
  20
89.45929
  0
VERTEX
  8
Copper
  10
58.579199
  20
89.616638
  0
VERTEX
  8
Copper
  10
58.556867
  20
89.77673
  0
VERTEX
  8
Copper
  10
58.549402
  20
89.9382
  0
VERTEX
  8
Copper
  10
58.5492
  20
89.9382
  0
VERTEX
  8
Copper
  10
58.5492
  20
114.1382
  0
VERTEX
  8
Copper
  10
58.556665
  20
114.29967
  0
VERTEX
  8
Copper
  10
58.578997
  20
114.459762
  0
VERTEX
  8
Copper
  10
58.616005
  20
114.61711
  0
VERTEX
  8
Copper
  10
58.667374
  20
114.770373
  0
VERTEX
  8
Copper
  10
58.732664
  20
114.918242
  0
VERTEX
  8
Copper
  10
58.81132
  20
115.059456
  0
VERTEX
  8
Copper
  10
58.90267
  20
115.192811
  0
VERTEX
  8
Copper
  10
59.005934
  20
115.317167
  0
VERTEX
  8
Copper
  10
59.120233
  20
115.431466
  0
VERTEX
  8
Copper
  10
59.244589
  20
115.53473
  0
VERTEX
  8
Copper
  10
59.377944
  20
115.62608
  0
VERTEX
  8
Copper
  10
59.519158
  20
115.704736
  0
VERTEX
  8
Copper
  10
59.667027
  20
115.770026
  0
VERTEX
  8
Copper
  10
59.82029
  20
115.821395
  0
VERTEX
  8
Copper
  10
59.977638
  20
115.858403
  0
VERTEX
  8
Copper
  10
60.13773
  20
115.880735
  0
VERTEX
  8
Copper
  10
60.2992
  20
115.8882
  0
VERTEX
  8
Copper
  10
71.6992
  20
115.8882
  0
VERTEX
  8
Copper
  10
71.6992
  20
104.2764
  0
VERTEX
  8
Copper
  10
90.6984
  20
104.2764
  0
VERTEX
  8
Copper
  10
90.6984
  20
128
  0
VERTEX
  8
Copper
  10
71.6992
  20
128
  0
VERTEX
  8
Copper
  10
71.6992
  20
116.3882
  0
VERTEX
  8
Copper
  10
60.2992
  20
116.3882
  0
VERTEX
  8
Copper
  10
60.091596
  20
116.378602
  0
VERTEX
  8
Copper
  10
59.885764
  20
116.349889
  0
VERTEX
  8
Copper
  10
59.683458
  20
116.302308
  0
VERTEX
  8
Copper
  10
59.486406
  20
116.236263
  0
VERTEX
  8
Copper
  10
59.296289
  20
116.152317
  0
VERTEX
  8
Copper
  10
59.114728
  20
116.051189
  0
VERTEX
  8
Copper
  10
58.943272
  20
115.933739
  0
VERTEX
  8
Copper
  10
58.783385
  20
115.80097
  0
VERTEX
  8
Copper
  10
58.63643
  20
115.654015
  0
VERTEX
  8
Copper
  10
58.503661
  20
115.494128
  0
VERTEX
  8
Copper
  10
58.386211
  20
115.322672
  0
VERTEX
  8
Copper
  10
58.285083
  20
115.141111
  0
VERTEX
  8
Copper
  10
58.201137
  20
114.950994
  0
VERTEX
  8
Copper
  10
58.135092
  20
114.753942
  0
VERTEX
  8
Copper
  10
58.087511
  20
114.551636
  0
VERTEX
  8
Copper
  10
58.058798
  20
114.345804
  0
VERTEX
  8
Copper
  10
58.0492
  20
114.1382
  0
VERTEX
  8
Copper
  10
58.0492
  20
102.7382
  0
VERTEX
  8
Copper
  10
52.3492
  20
102.7382
  0
VERTEX
  8
Copper
  10
52.113879
  20
102.727926
  0
VERTEX
  8
Copper
  10
51.88035
  20
102.697181
  0
VERTEX
  8
Copper
  10
51.650389
  20
102.6462
  0
VERTEX
  8
Copper
  10
51.425746
  20
102.57537
  0
VERTEX
  8
Copper
  10
51.208131
  20
102.485231
  0
VERTEX
  8
Copper
  10
50.9992
  20
102.376469
  0
VERTEX
  8
Copper
  10
50.800544
  20
102.249911
  0
VERTEX
  8
Copper
  10
50.613673
  20
102.10652
  0
VERTEX
  8
Copper
  10
50.440012
  20
101.947388
  0
VERTEX
  8
Copper
  10
50.28088
  20
101.773727
  0
VERTEX
  8
Copper
  10
50.137489
  20
101.586856
  0
VERTEX
  8
Copper
  10
50.010931
  20
101.3882
  0
VERTEX
  8
Copper
  10
49.902169
  20
101.179269
  0
VERTEX
  8
Copper
  10
49.81203
  20
100.961654
  0
VERTEX
  8
Copper
  10
49.7412
  20
100.737011
  0
VERTEX
  8
Copper
  10
49.690219
  20
100.50705
  0
VERTEX
  8
Copper
  10
49.659474
  20
100.273521
  0
VERTEX
  8
Copper
  10
49.6492
  20
100.0382
  0
VERTEX
  8
Copper
  10
49.6492
  20
71.5382
  0
VERTEX
  8
Copper
  10
38.2492
  20
71.5382
  0
VERTEX
  8
Copper
  10
38.2492
  20
71.7882
  0
VERTEX
  8
Copper
  10
38.785266
  20
73.788826
  0
VERTEX
  8
Copper
  10
38.526591
  20
73.846173
  0
VERTEX
  8
Copper
  10
38.263903
  20
73.880756
  0
VERTEX
  8
Copper
  10
37.9992
  20
73.892313
  0
VERTEX
  8
Copper
  10
37.734497
  20
73.880756
  0
VERTEX
  8
Copper
  10
37.471809
  20
73.846173
  0
VERTEX
  8
Copper
  10
37.213134
  20
73.788826
  0
VERTEX
  8
Copper
  10
37.7492
  20
71.7882
  0
VERTEX
  8
Copper
  10
37.7492
  20
71.0682
  0
VERTEX
  8
Copper
  10
26.3492
  20
71.0682
  0
VERTEX
  8
Copper
  10
26.3492
  20
67.3582
  0
VERTEX
  8
Copper
  10
37.7492
  20
67.3582
  0
VERTEX
  8
Copper
  10
37.7492
  20
66.6382
  0
VERTEX
  8
Copper
  10
37.213134
  20
64.637574
  0
VERTEX
  8
Copper
  10
37.471809
  20
64.580227
  0
VERTEX
  8
Copper
  10
37.734497
  20
64.545644
  0
VERTEX
  8
Copper
  10
37.9992
  20
64.534087
  0
VERTEX
  8
Copper
  10
38.263903
  20
64.545644
  0
VERTEX
  8
Copper
  10
38.526591
  20
64.580227
  0
VERTEX
  8
Copper
  10
38.785266
  20
64.637574
  0
VERTEX
  8
Copper
  10
38.2492
  20
66.6382
  0
VERTEX
  8
Copper
  10
38.2492
  20
66.8882
  0
VERTEX
  8
Copper
  10
49.6492
  20
66.8882
  0
SEQEND
  0
ENDSEC
  0
EOF
