G04 AWR Design Environment 17.01 *
G04 RS274-X Output Version 0.1 *
%FSLAX36Y36*%
%MOMM*%
%ADD10C,.010*%

%LPD*%
G36*
X49649200Y38389230D02*
G01*
X49649155D01*
X49649200Y38388200D01*
X49659429Y38153909D01*
X49690174Y37920380D01*
X49741155Y37690419D01*
X49811985Y37465776D01*
X49902124Y37248161D01*
X50010886Y37039230D01*
X50137444Y36840574D01*
X50280835Y36653703D01*
X50439967Y36480042D01*
X50613628Y36320910D01*
X50800499Y36177519D01*
X50999155Y36050961D01*
X51208086Y35942199D01*
X51425701Y35852060D01*
X51650344Y35781230D01*
X51880305Y35730249D01*
X52113834Y35699504D01*
X52349155Y35689230D01*
X58049155D01*
Y24489230D01*
X58058753Y24281626D01*
X58087466Y24075794D01*
X58135047Y23873488D01*
X58201092Y23676436D01*
X58285038Y23486319D01*
X58386166Y23304758D01*
X58503616Y23133302D01*
X58636385Y22973415D01*
X58783340Y22826460D01*
X58943227Y22693691D01*
X59114683Y22576241D01*
X59296244Y22475113D01*
X59486361Y22391167D01*
X59683413Y22325122D01*
X59885719Y22277541D01*
X60091551Y22248828D01*
X60299155Y22239230D01*
X71699155D01*
Y10627430D01*
X90698355D01*
Y34351030D01*
X71699155D01*
Y22739230D01*
X60299155D01*
X60137685Y22746695D01*
X59977593Y22769027D01*
X59820245Y22806035D01*
X59666982Y22857404D01*
X59519113Y22922694D01*
X59377899Y23001350D01*
X59244544Y23092700D01*
X59120188Y23195964D01*
X59005889Y23310263D01*
X58902625Y23434619D01*
X58811275Y23567974D01*
X58732619Y23709188D01*
X58667329Y23857057D01*
X58615960Y24010320D01*
X58578952Y24167668D01*
X58556620Y24327760D01*
X58549155Y24489230D01*
Y48289230D01*
X58548922D01*
X58556382Y48450595D01*
X58578714Y48610687D01*
X58615722Y48768035D01*
X58667091Y48921298D01*
X58732381Y49069167D01*
X58811037Y49210381D01*
X58902387Y49343736D01*
X59005651Y49468092D01*
X59119950Y49582391D01*
X59244306Y49685655D01*
X59377661Y49777005D01*
X59518875Y49855661D01*
X59666744Y49920951D01*
X59820007Y49972320D01*
X59977355Y50009328D01*
X60137447Y50031660D01*
X60298917Y50039125D01*
X71698917D01*
Y38427325D01*
X90698117D01*
Y62150925D01*
X71698917D01*
Y50539125D01*
X60298917D01*
X60091313Y50529527D01*
X59885481Y50500814D01*
X59683175Y50453233D01*
X59486123Y50387188D01*
X59296006Y50303242D01*
X59114445Y50202114D01*
X58942989Y50084664D01*
X58783102Y49951895D01*
X58636147Y49804940D01*
X58503378Y49645053D01*
X58385928Y49473597D01*
X58284800Y49292036D01*
X58200854Y49101919D01*
X58134809Y48904867D01*
X58087228Y48702561D01*
X58058515Y48496729D01*
X58048917Y48289125D01*
X58049155D01*
Y37089230D01*
X52349155D01*
X52123412Y37108980D01*
X51904529Y37167630D01*
X51699155Y37263397D01*
X51513531Y37393372D01*
X51353297Y37553606D01*
X51223322Y37739230D01*
X51127555Y37944604D01*
X51068905Y38163487D01*
X51049200Y38388716D01*
Y100038200D01*
X51068950Y100263943D01*
X51127600Y100482826D01*
X51223367Y100688200D01*
X51353342Y100873824D01*
X51513576Y101034058D01*
X51699200Y101164033D01*
X51904574Y101259800D01*
X52123457Y101318450D01*
X52349200Y101338200D01*
X58049200D01*
Y89938200D01*
X58049402D01*
X58059000Y89730596D01*
X58087713Y89524764D01*
X58135294Y89322458D01*
X58201339Y89125406D01*
X58285285Y88935289D01*
X58386413Y88753728D01*
X58503863Y88582272D01*
X58636632Y88422385D01*
X58783587Y88275430D01*
X58943474Y88142661D01*
X59114930Y88025211D01*
X59296491Y87924083D01*
X59486608Y87840137D01*
X59683660Y87774092D01*
X59885966Y87726511D01*
X60091798Y87697798D01*
X60299402Y87688200D01*
X71699402D01*
Y76076400D01*
X90698602D01*
Y99800000D01*
X71699402D01*
Y88188200D01*
X60299402D01*
X60137932Y88195665D01*
X59977840Y88217997D01*
X59820492Y88255005D01*
X59667229Y88306374D01*
X59519360Y88371664D01*
X59378146Y88450320D01*
X59244791Y88541670D01*
X59120435Y88644934D01*
X59006136Y88759233D01*
X58902872Y88883589D01*
X58811522Y89016944D01*
X58732866Y89158158D01*
X58667576Y89306027D01*
X58616207Y89459290D01*
X58579199Y89616638D01*
X58556867Y89776730D01*
X58549402Y89938200D01*
X58549200D01*
Y114138200D01*
X58556665Y114299670D01*
X58578997Y114459762D01*
X58616005Y114617110D01*
X58667374Y114770373D01*
X58732664Y114918242D01*
X58811320Y115059456D01*
X58902670Y115192811D01*
X59005934Y115317167D01*
X59120233Y115431466D01*
X59244589Y115534730D01*
X59377944Y115626080D01*
X59519158Y115704736D01*
X59667027Y115770026D01*
X59820290Y115821395D01*
X59977638Y115858403D01*
X60137730Y115880735D01*
X60299200Y115888200D01*
X71699200D01*
Y104276400D01*
X90698400D01*
Y128000000D01*
X71699200D01*
Y116388200D01*
X60299200D01*
X60091596Y116378602D01*
X59885764Y116349889D01*
X59683458Y116302308D01*
X59486406Y116236263D01*
X59296289Y116152317D01*
X59114728Y116051189D01*
X58943272Y115933739D01*
X58783385Y115800970D01*
X58636430Y115654015D01*
X58503661Y115494128D01*
X58386211Y115322672D01*
X58285083Y115141111D01*
X58201137Y114950994D01*
X58135092Y114753942D01*
X58087511Y114551636D01*
X58058798Y114345804D01*
X58049200Y114138200D01*
Y102738200D01*
X52349200D01*
X52113879Y102727926D01*
X51880350Y102697181D01*
X51650389Y102646200D01*
X51425746Y102575370D01*
X51208131Y102485231D01*
X50999200Y102376469D01*
X50800544Y102249911D01*
X50613673Y102106520D01*
X50440012Y101947388D01*
X50280880Y101773727D01*
X50137489Y101586856D01*
X50010931Y101388200D01*
X49902169Y101179269D01*
X49812030Y100961654D01*
X49741200Y100737011D01*
X49690219Y100507050D01*
X49659474Y100273521D01*
X49649200Y100038200D01*
Y71538200D01*
X38249200D01*
Y71788200D01*
X38785266Y73788826D01*
X38526591Y73846173D01*
X38263903Y73880756D01*
X37999200Y73892313D01*
X37734497Y73880756D01*
X37471809Y73846173D01*
X37213134Y73788826D01*
X37749200Y71788200D01*
Y71068200D01*
X26349200D01*
Y67358200D01*
X37749200D01*
Y66638200D01*
X37213134Y64637574D01*
X37471809Y64580227D01*
X37734497Y64545644D01*
X37999200Y64534087D01*
X38263903Y64545644D01*
X38526591Y64580227D01*
X38785266Y64637574D01*
X38249200Y66638200D01*
Y66888200D01*
X49649200D01*
Y38389230D01*
G37*
G04 End of Data *
M02*
